<svg id="pureconnect" xmlns="http://www.w3.org/2000/svg" viewBox="0 0 308 308"><defs><style>.cls-1{fill:none;stroke:#f0522a;stroke-miterlimit:10;stroke-width:3.5px;}.cls-2{font-size:46.8px;fill:#4e5055;font-family:Roboto-Light, Roboto;letter-spacing:-0.04em;}.cls-3{letter-spacing:-0.04em;}.cls-4{letter-spacing:-0.05em;}.cls-5{letter-spacing:-0.02em;}.cls-10,.cls-11,.cls-12,.cls-6,.cls-7,.cls-8,.cls-9{font-family:Roboto-Medium, Roboto;}.cls-6{letter-spacing:-0.02em;}.cls-7{letter-spacing:-0.02em;}.cls-8{letter-spacing:-0.02em;}.cls-9{letter-spacing:-0.03em;}.cls-10{letter-spacing:-0.02em;}.cls-11{letter-spacing:-0.01em;}.cls-12{letter-spacing:-0.02em;}</style></defs><title>pureconnect-color-text</title><path class="cls-1" d="M130.19,119.06a18.75,18.75,0,0,0,18.75,18.75h73.17a8.86,8.86,0,0,1,9,8.75h0a8.86,8.86,0,0,1-9,8.75H143.95a13.75,13.75,0,0,1-13.75-13.75h0a13.75,13.75,0,0,1,13.75-13.75h88.74a8.86,8.86,0,0,0,9-8.75h0a8.86,8.86,0,0,0-9-8.75H143.95a13.75,13.75,0,0,1-13.75-13.75h0a13.75,13.75,0,0,1,13.75-13.75h79.83a8.86,8.86,0,0,1,9,8.75h0a8.86,8.86,0,0,1-9,8.75H148.95a18.75,18.75,0,0,0-18.75,18.75Z"/><path class="cls-1" d="M130.19,174.07a8.75,8.75,0,0,1,8.75-8.75h63.68a8.86,8.86,0,0,1,9,8.75h0a8.86,8.86,0,0,1-9,8.75H138.94a8.75,8.75,0,0,1-8.75-8.75Z"/><path class="cls-1" d="M66.34,121.5A41.05,41.05,0,0,1,94.17,82.63l65-22.13a8.75,8.75,0,0,0,5.4-11.13h0A8.75,8.75,0,0,0,153.46,44h0L125.93,53.5a12.41,12.41,0,0,0-8.35,11.71l-.12,100.68a10.06,10.06,0,0,1-10.06,10h0a41.05,41.05,0,0,1-41.05-41.05Z"/><text class="cls-2" transform="translate(26.19 251.84)">P<tspan class="cls-3" x="27.16" y="0">u</tspan><tspan class="cls-4" x="51.2" y="0">r</tspan><tspan class="cls-5" x="64.79" y="0">e</tspan><tspan class="cls-6" x="88.17" y="0">C</tspan><tspan class="cls-7" x="117.74" y="0">o</tspan><tspan class="cls-8" x="143.26" y="0">n</tspan><tspan class="cls-9" x="168.18" y="0">n</tspan><tspan class="cls-10" x="192.9" y="0">e</tspan><tspan class="cls-11" x="216.98" y="0">c</tspan><tspan class="cls-12" x="240.81" y="0">t</tspan></text></svg>