<?xml version="1.0" standalone="no"?>
<!DOCTYPE svg PUBLIC "-//W3C//DTD SVG 1.1//EN" "http://www.w3.org/Graphics/SVG/1.1/DTD/svg11.dtd" >
<svg xmlns="http://www.w3.org/2000/svg" xmlns:xlink="http://www.w3.org/1999/xlink" version="1.1">
<metadata>
Created by FontForge 20190801 at Fri Aug  5 19:36:04 2016
 By Jimmy Wärting
Copyright 2016 Dalton Maag Ltd. Modification of this file requires prior written permission from Dalton Maag Ltd.
</metadata>
<defs>
<font id="Prometo-Light" horiz-adv-x="372" >
  <font-face 
    font-family="Prometo Light"
    font-weight="300"
    font-stretch="normal"
    units-per-em="1000"
    panose-1="2 11 4 4 3 2 3 6 2 3"
    ascent="743"
    descent="-257"
    x-height="514"
    cap-height="712"
    bbox="-199 -232 1187 956"
    underline-thickness="93"
    underline-position="-146"
    unicode-range="U+0008-FB04"
  />
<missing-glyph horiz-adv-x="500" 
d="M50 0v750h400v-750h-400zM400 50v650h-300v-650h300z" />
    <glyph glyph-name="f_f" unicode="ff" horiz-adv-x="638" 
d="M605 694q-46 0 -76.5 -6.5t-49 -26t-26.5 -55t-8 -92.5h196l-11 -50h-185v-464h-58v521q0 63 11.5 106t37 69.5t66 37.5t98.5 11q20 0 43.5 -0.5t42.5 -1.5l-11 -51q-17 1 -35 1.5t-35 0.5zM289 694q-46 0 -76.5 -6.5t-49 -26t-26 -55t-7.5 -92.5h196l-11 -50h-185v-464
h-58v521q0 63 11.5 106t37 69.5t66 37.5t98.5 11q25 0 45.5 -0.5t37.5 -1.5l-11 -51q-17 1 -35 1.5t-33 0.5z" />
    <glyph glyph-name="f_i" unicode="fi" horiz-adv-x="513" 
d="M307 694q-54 0 -88.5 -10t-54 -31.5t-27 -55.5t-7.5 -83h191l-11 -50h-180v-464h-58v502q0 64 11.5 110.5t39 75.5t72.5 43t112 14q28 0 57.5 -0.5t65.5 -1.5l-11 -51q-23 1 -54.5 1.5t-57.5 0.5zM441 514v-514h-58v514h58z" />
    <glyph glyph-name="f_l" unicode="fl" horiz-adv-x="525" 
d="M285 745q14 0 33 -0.5t32 -1.5l-11 -51q-9 1 -24.5 1.5t-25.5 0.5q-46 0 -76.5 -6.5t-49 -26t-26 -55t-7.5 -92.5h193l-11 -50h-182v-464h-58v521q0 63 11.5 106t37 69.5t66 37.5t98.5 11zM395 743h58v-743h-58v743z" />
    <glyph glyph-name="f_f_i" unicode="ffi" horiz-adv-x="832" 
d="M625 694q-54 0 -88 -10t-53.5 -31.5t-27 -55.5t-7.5 -83h192l-11 -50h-181v-464h-58v502q0 64 11.5 110.5t38.5 75.5t72 43t112 14q32 0 61.5 -0.5t62.5 -1.5l-11 -51q-32 1 -62.5 1.5t-50.5 0.5zM760 514v-514h-58v514h58zM289 694q-46 0 -76.5 -6.5t-49 -26t-26 -55
t-7.5 -92.5h196l-11 -50h-185v-464h-58v521q0 63 11.5 106t37 69.5t66 37.5t98.5 11q25 0 47 -0.5t36 -1.5l-11 -51q-22 1 -37.5 1.5t-30.5 0.5z" />
    <glyph glyph-name="f_f_l" unicode="ffl" horiz-adv-x="844" 
d="M289 694q-46 0 -76.5 -6.5t-49 -26t-26 -55t-7.5 -92.5h196l-11 -50h-185v-464h-58v521q0 63 11.5 106t37 69.5t66 37.5t98.5 11q20 0 43.5 -0.5t39.5 -1.5l-11 -51q-14 1 -34 1.5t-34 0.5zM603 745q16 0 33.5 -0.5t31.5 -1.5l-11 -51q-11 1 -25 1.5t-25 0.5
q-46 0 -76.5 -6.5t-49 -26t-26 -55t-7.5 -92.5h193l-11 -50h-182v-464h-58v521q0 63 11.5 106t37 69.5t66 37.5t98.5 11zM714 743h58v-743h-58v743z" />
    <glyph glyph-name="f_t" unicode="ft" horiz-adv-x="683" 
d="M289 694q-46 0 -76.5 -6.5t-49 -26t-26 -55t-7.5 -92.5h193l-11 -50h-182v-464h-58v521q0 63 11.5 106t37 69.5t66 37.5t98.5 11q22 0 45 -0.5t38 -1.5l-11 -51q-17 1 -35 1.5t-33 0.5zM384 635l58 11v-132h211l-11 -50h-200v-289q0 -37 5 -61t18.5 -38t37 -19.5
t61.5 -5.5h77l-11 -51h-66q-51 0 -85.5 7.5t-55.5 27t-30 53t-9 86.5v461z" />
    <glyph glyph-name="f_f_t" unicode="fft" horiz-adv-x="999" 
d="M289 694q-46 0 -76.5 -6.5t-49 -26t-26 -55t-7.5 -92.5h196l-11 -50h-185v-464h-58v521q0 63 11.5 106t37 69.5t66 37.5t98.5 11q21 0 44 -0.5t39 -1.5l-11 -51q-16 1 -35 1.5t-33 0.5zM605 694q-46 0 -76.5 -6.5t-49 -26t-26 -55t-7.5 -92.5h192l-11 -50h-181v-464h-59
v521q0 63 11.5 106t37 69.5t66 37.5t98.5 11q20 0 43.5 -0.5t40.5 -1.5l-11 -51q-17 1 -35.5 1.5t-32.5 0.5zM699 635l58 11v-132h211l-11 -50h-200v-289q0 -37 5 -61t18.5 -38t37 -19.5t61.5 -5.5h77l-11 -51h-66q-51 0 -85.5 7.5t-55.5 27t-30 53t-9 86.5v461z" />
    <glyph glyph-name=".notdef" horiz-adv-x="500" 
d="M50 0v750h400v-750h-400zM400 50v650h-300v-650h300z" />
    <glyph glyph-name=".null" horiz-adv-x="0" 
 />
    <glyph glyph-name=".null" horiz-adv-x="0" 
 />
    <glyph glyph-name=".null" horiz-adv-x="0" 
 />
    <glyph glyph-name="nonmarkingreturn" unicode="&#x9;" horiz-adv-x="250" 
 />
    <glyph glyph-name="nonmarkingreturn" unicode="&#xd;" horiz-adv-x="250" 
 />
    <glyph glyph-name="space" unicode=" " horiz-adv-x="250" 
 />
    <glyph glyph-name="exclam" unicode="!" horiz-adv-x="211" 
d="M83 176l-6 184q0 12 -0.5 35t-0.5 48.5v49v35.5v184h60v-184v-35.5v-49t-0.5 -48.5t-0.5 -35l-6 -184h-46zM151 40q0 -47 -45 -47t-45 47t45 47t45 -47z" />
    <glyph glyph-name="quotedbl" unicode="&#x22;" horiz-adv-x="322" 
d="M55 487l-6 118q-1 18 -1 40v45v53h60v-53q0 -23 -0.5 -45t-1.5 -40l-5 -118h-46zM221 487l-6 118q-1 18 -1 40v45v53h60v-53q0 -23 -0.5 -45t-1.5 -40l-5 -118h-46z" />
    <glyph glyph-name="numbersign" unicode="#" horiz-adv-x="667" 
d="M411 184h-203l-27 -184h-53l27 184h-109l10 49h106l32 214h-111l10 49h108l28 184h53l-28 -184h203l27 184h53l-27 -184h111l-10 -49h-109l-31 -214h113l-11 -49h-109l-27 -184h-53zM215 233h203l31 214h-202z" />
    <glyph glyph-name="dollar" unicode="$" horiz-adv-x="595" 
d="M262 -96v96h-104.5t-93.5 2l11 52q39 -2 88.5 -2h98.5v272l-46 9q-71 14 -109.5 54t-38.5 109v16q0 77 47 119t147 50v79h48v-78h47h41.5t43.5 -0.5t53 -1.5l-11 -52q-39 1 -84 1.5t-90 0.5v-258l43 -7q42 -7 72.5 -19t50.5 -32.5t29.5 -49.5t9.5 -69v-13
q0 -86 -49 -130.5t-156 -50.5v-97h-48zM457 187q0 31 -6 52.5t-22 36t-45 24t-74 16.5v-263q83 5 115 37.5t32 96.5zM125 507q0 -27 5.5 -47.5t20.5 -35.5t42 -25.5t69 -16.5v247q-78 -5 -107.5 -34.5t-29.5 -87.5z" />
    <glyph glyph-name="percent" unicode="%" horiz-adv-x="839" 
d="M603 680h57l-425 -680h-57zM653 38q32 0 53 6t33.5 21t17.5 41.5t5 67.5v44q0 41 -5 67.5t-17.5 41.5t-33.5 21t-53 6t-53.5 -6t-34 -21t-17.5 -41.5t-5 -67.5v-44q0 -41 5 -67.5t17.5 -41.5t34 -21t53.5 -6zM653 -9q-89 0 -125.5 42t-36.5 137v52q0 95 36.5 137
t125.5 42t125 -42t36 -137v-52q0 -95 -36 -137t-125 -42zM186 326q32 0 53 6t33.5 21t17.5 41.5t5 67.5v44q0 41 -5 67.5t-17.5 41.5t-33.5 21t-53 6t-53.5 -6t-34 -21t-17.5 -41.5t-5 -67.5v-44q0 -41 5 -67.5t17.5 -41.5t34 -21t53.5 -6zM186 279q-89 0 -125.5 42
t-36.5 137v52q0 95 36.5 137t125.5 42t125 -42t36 -137v-52q0 -95 -36 -137t-125 -42z" />
    <glyph glyph-name="ampersand" unicode="&#x26;" horiz-adv-x="644" 
d="M120 193q0 -37 8 -63.5t26 -44t48.5 -26t75.5 -8.5h196v298h-181q-53 0 -86.5 -10.5t-53 -29.5t-26.5 -46t-7 -60v-10zM285 0q-119 0 -171.5 46t-52.5 145v13q0 68 29 112.5t90 58.5q-55 17 -78.5 58t-23.5 105v8q0 81 49.5 125t160.5 44h44h38t40 -0.5t50 -1.5l-11 -52
q-24 0 -43.5 0.5t-37.5 1t-37 0.5h-43q-43 0 -72 -7.5t-47 -22.5t-25.5 -38t-7.5 -53v-10q0 -29 6 -53.5t23 -41.5t48 -26.5t82 -9.5h309l-11 -52h-61v-292q0 -32 -11 -44.5t-40 -12.5h-196z" />
    <glyph glyph-name="quotesingle" unicode="'" horiz-adv-x="156" 
d="M55 487l-6 118q-1 18 -1 40v45v53h60v-53q0 -23 -0.5 -45t-1.5 -40l-5 -118h-46z" />
    <glyph glyph-name="parenleft" unicode="(" horiz-adv-x="325" 
d="M294 -175h-13q-39 0 -70.5 4t-55.5 16t-41 34.5t-28 60.5t-16 93t-5 132v207q0 115 11.5 183t37.5 102.5t67 44.5t100 10h24l-11 -52h-13q-47 0 -78 -6.5t-49 -35t-25.5 -86.5t-7.5 -160v-207q0 -102 7.5 -160t25.5 -86.5t49 -35t78 -6.5h24z" />
    <glyph glyph-name="parenright" unicode=")" horiz-adv-x="325" 
d="M31 712h13q59 0 100 -10t67 -44.5t37.5 -102.5t11.5 -183v-207q0 -77 -5 -132t-16 -93t-28 -60.5t-41 -34.5t-55.5 -16t-70.5 -4h-24l11 52h13q47 0 78 6.5t49 35t25.5 86.5t7.5 160v207q0 102 -7.5 160t-25.5 86.5t-49 35t-78 6.5h-24z" />
    <glyph glyph-name="asterisk" unicode="*" horiz-adv-x="412" 
d="M206 497l-81 -123l-40 28l83 115l-132 41l14 46l133 -46l-3 144h52l-3 -144l133 46l14 -46l-133 -41l84 -115l-40 -28z" />
    <glyph glyph-name="plus" unicode="+" horiz-adv-x="595" 
d="M326 366h180v-52h-180v-190h-57v190h-180v52h180v190h57v-190z" />
    <glyph glyph-name="comma" unicode="," horiz-adv-x="174" 
d="M53 -152h-44l58 153q-25 10 -25 42q0 22 11.5 34.5t34.5 12.5q20 0 32.5 -11.5t12.5 -35.5q0 -14 -4.5 -28.5t-15.5 -36.5z" />
    <glyph glyph-name="hyphen" unicode="-" horiz-adv-x="359" 
d="M35 267l11 53h278l-11 -53h-278z" />
    <glyph glyph-name="period" unicode="." horiz-adv-x="174" 
d="M132 42q0 -47 -45 -47t-45 47q0 48 45 48t45 -48z" />
    <glyph glyph-name="slash" unicode="/" horiz-adv-x="382" 
d="M348 712l-255 -712h-59l255 712h59z" />
    <glyph glyph-name="zero" unicode="0" horiz-adv-x="598" 
d="M299 36q49 0 83.5 10t55.5 37t30.5 73t9.5 118v131q0 72 -9.5 118.5t-30.5 73.5t-55.5 37t-83.5 10t-83 -10t-55 -37t-30 -73.5t-9 -118.5v-131q0 -72 9 -118t30 -73t55 -37t83 -10zM299 696q67 0 112.5 -16.5t73.5 -52t40.5 -90t12.5 -129.5v-136q0 -75 -12.5 -129.5
t-40.5 -90t-73.5 -52t-112.5 -16.5t-112.5 16.5t-73.5 52t-40 90t-12 129.5v136q0 75 12 129.5t40 90t73.5 52t112.5 16.5z" />
    <glyph glyph-name="one" unicode="1" horiz-adv-x="400" 
d="M369 0h-325l11 50h131v580h-138l11 50h185v-630h135z" />
    <glyph glyph-name="two" unicode="2" horiz-adv-x="526" 
d="M218 277q-32 -13 -52.5 -27t-32.5 -32t-17 -42t-5 -57v-67h349l-10 -52h-397v113q0 42 7 74.5t24 58t44 45t68 36.5l115 48q27 11 45 22.5t29 26.5t16 35t5 47q0 67 -30.5 95.5t-104.5 28.5h-99.5t-98.5 -2l10 52q50 2 96.5 2h90.5q103 0 149 -42t46 -127v-12
q0 -70 -32.5 -110t-98.5 -66z" />
    <glyph glyph-name="three" unicode="3" horiz-adv-x="505" 
d="M60 680q45 2 87.5 2h93.5q103 0 151.5 -39.5t48.5 -121.5v-12q0 -66 -24.5 -102t-69.5 -53q57 -14 82.5 -52t25.5 -104v-14q0 -94 -50.5 -140t-164.5 -46h-92.5t-118.5 2l11 52q51 -2 99 -2h107q82 0 116 31.5t34 103.5v12q0 65 -31.5 96.5t-112.5 31.5h-169l10 52h160
q70 0 99.5 32.5t29.5 93.5v12q0 62 -32 88.5t-110 26.5h-95.5t-95.5 -2z" />
    <glyph glyph-name="four" unicode="4" horiz-adv-x="529" 
d="M502 156h-76v-156h-57v156h-341v44l280 480h62l-278 -473h277v240l57 10v-250h87z" />
    <glyph glyph-name="five" unicode="5" horiz-adv-x="511" 
d="M458 196q0 -56 -12 -93.5t-39.5 -61t-72 -33.5t-109.5 -10h-81t-96 2l11 53q49 -2 93 -2.5t73 -0.5q51 0 84.5 6t53 22.5t27.5 45t8 73.5v27q0 40 -8 65t-27 39t-50.5 19.5t-77.5 5.5h-171v327h368l-11 -51h-301v-225h120q61 0 103 -9.5t67.5 -30.5t36.5 -55.5t11 -84.5
v-28z" />
    <glyph glyph-name="six" unicode="6" horiz-adv-x="540" 
d="M117 361q24 38 68 55t100 17q103 0 156 -49t53 -165v-18q0 -110 -55 -163.5t-161 -53.5q-56 0 -97 12.5t-68 40.5t-40.5 72.5t-13.5 108.5v207q0 72 13 121t42.5 79.5t76 43.5t113.5 13h34.5h32t35.5 -0.5t44 -1.5l-10 -52q-26 1 -44.5 1.5t-33.5 0.5h-29h-30
q-56 0 -92 -10.5t-57 -34t-29 -60.5t-8 -90v-74zM278 34q79 0 118 37.5t39 131.5v14q0 48 -9 79.5t-27.5 51t-47.5 27.5t-68 8q-32 0 -61.5 -5.5t-53 -22t-37.5 -46.5t-14 -79v-22q0 -50 9.5 -83.5t29.5 -53.5t50.5 -28.5t71.5 -8.5z" />
    <glyph glyph-name="seven" unicode="7" horiz-adv-x="474" 
d="M125 0l247 629h-363l11 51h413v-47l-245 -633h-63z" />
    <glyph glyph-name="eight" unicode="8" horiz-adv-x="549" 
d="M275 696q115 0 164.5 -44.5t49.5 -126.5v-17q0 -57 -28.5 -96t-79.5 -54q55 -14 88 -54.5t33 -107.5v-22q0 -99 -57 -144.5t-170 -45.5q-112 0 -169 45.5t-57 144.5v22q0 67 33 107.5t87 54.5q-51 15 -79 54t-28 96v17q0 82 49.5 126.5t163.5 44.5zM275 333q-48 0 -80 -9
t-51.5 -27t-27.5 -44t-8 -60v-15q0 -77 40 -110.5t127 -33.5q88 0 128 33.5t40 110.5v15q0 34 -8.5 60t-28 44t-51.5 27t-80 9zM276 647q-88 0 -122.5 -29.5t-34.5 -92.5v-17q0 -28 7 -51.5t25 -40t48 -25.5t76 -9t76.5 9t48.5 25.5t25 40t7 51.5v17q0 63 -34 92.5
t-122 29.5z" />
    <glyph glyph-name="nine" unicode="9" horiz-adv-x="540" 
d="M424 319q-24 -38 -69 -55t-99 -17q-103 0 -156 49t-53 165v18q0 111 55 164t161 53q56 0 97 -12.5t68 -40.5t40 -72.5t13 -108.5v-207q0 -72 -13 -121t-42.5 -79.5t-76 -43.5t-113.5 -13h-69.5t-76.5 2l11 52q25 -1 44 -1.5t34 -0.5h29h30q56 0 92 10.5t57 34t29 60.5
t8 90v74zM263 646q-80 0 -118.5 -37.5t-38.5 -131.5v-14q0 -48 9 -79.5t27.5 -51t47 -27.5t67.5 -8q32 0 62 5.5t53.5 22t37.5 46.5t14 80v21q0 50 -10 83.5t-30 53.5t-50 28.5t-71 8.5z" />
    <glyph glyph-name="colon" unicode=":" horiz-adv-x="174" 
d="M132 42q0 -47 -45 -47t-45 47q0 48 45 48t45 -48zM132 471q0 -47 -45 -47t-45 47q0 48 45 48t45 -48z" />
    <glyph glyph-name="semicolon" unicode=";" horiz-adv-x="174" 
d="M53 -152h-44l58 153q-25 10 -25 42q0 22 11.5 34.5t34.5 12.5q20 0 32.5 -11.5t12.5 -35.5q0 -14 -4.5 -28.5t-15.5 -36.5zM132 471q0 -47 -45 -47t-45 47q0 48 45 48t45 -48z" />
    <glyph glyph-name="less" unicode="&#x3c;" horiz-adv-x="595" 
d="M91 367l414 178v-55l-353 -150l353 -148v-57l-414 179v53z" />
    <glyph glyph-name="equal" unicode="=" horiz-adv-x="595" 
d="M89 470h417v-52h-417v52zM89 265h417v-52h-417v52z" />
    <glyph glyph-name="greater" unicode="&#x3e;" horiz-adv-x="595" 
d="M504 314l-414 -179v57l352 148l-352 150v55l414 -178v-53z" />
    <glyph glyph-name="question" unicode="?" horiz-adv-x="455" 
d="M273 405q22 10 36.5 21.5t23.5 26t12.5 34.5t3.5 47q0 34 -6.5 58.5t-23.5 40t-47 22.5t-77 7q-23 0 -60.5 -0.5t-110.5 -1.5l10 51q33 1 57 1.5t42 0.5h32.5h28.5q59 0 100 -10t66.5 -30.5t37 -52.5t11.5 -76v-18q0 -61 -24 -98.5t-81 -66.5l-56 -27
q-22 -11 -34.5 -21.5t-19 -24t-8.5 -32t-2 -43.5v-38h-58v38q0 33 4 58t14.5 44t28.5 34t47 29zM200 40q0 -47 -45 -47t-45 47t45 47t45 -47z" />
    <glyph glyph-name="at" unicode="@" horiz-adv-x="733" 
d="M663 73q0 -33 -12 -44.5t-49 -11.5h-146q-101 0 -148.5 36t-47.5 120v15q0 86 44.5 124.5t142.5 38.5q51 0 94 -12t66 -38v45q0 46 -11 78t-37.5 51.5t-69.5 28t-107 8.5q-70 0 -120 -11t-81.5 -38.5t-46 -75.5t-14.5 -122v-157q0 -79 14.5 -130.5t50 -82t96 -42.5
t152.5 -12q38 0 82 0.5t89 2.5l-11 -51q-43 -2 -83 -2.5t-77 -0.5q-104 0 -174.5 15t-114 51t-62 97.5t-18.5 154.5v157q0 84 18.5 141.5t57.5 92t99 49.5t143 15q72 0 125 -11.5t87.5 -37.5t51.5 -67t17 -101v-273zM607 68v124q0 34 -12.5 55.5t-33.5 33.5t-49 16.5
t-59 4.5q-35 0 -60.5 -4.5t-42.5 -16.5t-25.5 -34.5t-8.5 -58.5v-13q0 -29 6.5 -49t22.5 -33t43 -19t67 -6h152z" />
    <glyph glyph-name="A" unicode="A" horiz-adv-x="657" 
d="M486 228h-319l-85 -228h-60l276 712h62l275 -712h-63zM186 281h280l-140 369z" />
    <glyph glyph-name="B" unicode="B" horiz-adv-x="615" 
d="M81 712h260q113 0 162 -41t49 -130v-12q0 -66 -28.5 -103t-70.5 -52q54 -13 85.5 -53t31.5 -115v-14q0 -98 -56.5 -145t-172.5 -47h-260v712zM140 53h201q91 0 130 32t39 108v14q0 75 -37.5 106t-123.5 31h-209v-291zM493 541q0 64 -34 91t-118 27h-201v-262h207
q75 0 110.5 31t35.5 99v14z" />
    <glyph glyph-name="C" unicode="C" horiz-adv-x="565" 
d="M361 52q42 0 80 0.5t74 1.5l-12 -54q-31 -1 -67.5 -1.5t-74.5 -0.5q-86 0 -143.5 15.5t-92 51t-49.5 92t-15 139.5v121q0 83 15 139.5t50 91.5t92.5 50.5t143.5 15.5h33h33.5t38.5 -0.5t49 -1.5l-12 -54q-43 2 -76 2h-67q-74 0 -121 -12t-73 -40t-35.5 -74.5t-9.5 -116.5
v-121q0 -72 11 -119.5t38.5 -75t73.5 -38.5t116 -11z" />
    <glyph glyph-name="D" unicode="D" horiz-adv-x="676" 
d="M81 712h227q86 0 144.5 -18.5t94.5 -57.5t52 -98.5t16 -141.5v-79q0 -82 -16 -142t-52 -99t-94.5 -57.5t-144.5 -18.5h-227v712zM140 54h168q70 0 117.5 13.5t76 44.5t40.5 82t12 125v75q0 73 -12 123.5t-40.5 81.5t-76 45t-117.5 14h-168v-604z" />
    <glyph glyph-name="E" unicode="E" horiz-adv-x="593" 
d="M538 712l-12 -54h-386v-265h373l-12 -54h-361v-285h398l-12 -54h-445v712h457z" />
    <glyph glyph-name="F" unicode="F" horiz-adv-x="558" 
d="M523 712l-12 -54h-371v-270h345l-12 -54h-333v-334h-59v712h442z" />
    <glyph glyph-name="G" unicode="G" horiz-adv-x="635" 
d="M573 355v-296q0 -34 -11 -46.5t-42 -12.5h-156q-87 0 -145.5 15.5t-93.5 50.5t-49.5 90t-14.5 135v130q0 78 14.5 134t50 91t94.5 51.5t149 16.5h81.5t103.5 -2l-11 -54q-58 2 -102.5 2h-73.5q-74 0 -121 -10.5t-75 -37.5t-38.5 -73.5t-10.5 -118.5v-127q0 -72 11 -118.5
t39 -73t74 -37t117 -10.5h152v247h-153l12 54h199z" />
    <glyph glyph-name="H" unicode="H" horiz-adv-x="696" 
d="M615 712v-712h-59v338h-416v-338h-59v712h59v-320h416v320h59z" />
    <glyph glyph-name="I" unicode="I" horiz-adv-x="221" 
d="M140 712v-712h-59v712h59z" />
    <glyph glyph-name="J" unicode="J" horiz-adv-x="456" 
d="M38 55q41 -2 71 -2h64q48 0 77.5 9t45 31t21 60t5.5 97v462h59v-467q0 -68 -9 -115t-32.5 -76t-63.5 -42t-103 -13q-44 0 -76 0.5t-70 1.5z" />
    <glyph glyph-name="K" unicode="K" horiz-adv-x="620" 
d="M140 387l361 325h74l-377 -340l412 -372h-84l-386 349v-349h-59v712h59v-325z" />
    <glyph glyph-name="L" unicode="L" horiz-adv-x="541" 
d="M140 712v-658h374l-12 -54h-421v712h59z" />
    <glyph glyph-name="M" unicode="M" horiz-adv-x="807" 
d="M381 217l-241 400v-617h-59v712h65l261 -435l253 435h66v-712h-59v622l-239 -405h-47z" />
    <glyph glyph-name="N" unicode="N" horiz-adv-x="699" 
d="M135 712l424 -615v615h59v-712h-55l-423 613v-613h-59v712h54z" />
    <glyph glyph-name="O" unicode="O" horiz-adv-x="699" 
d="M349 35q64 0 107.5 12t70.5 41t38.5 77t11.5 119v145q0 71 -11.5 118.5t-38.5 76.5t-70.5 41.5t-107.5 12.5t-107.5 -12t-70 -41t-38 -77t-11.5 -119v-145q0 -71 11.5 -118.5t38.5 -76.5t70.5 -41.5t106.5 -12.5zM349 -18q-81 0 -136 17.5t-88.5 54.5t-48.5 94t-15 135
v147q0 76 14.5 133t48.5 94t89 55.5t136 18.5t136.5 -17.5t89 -54.5t48.5 -94t15 -135v-147q0 -77 -14.5 -133.5t-48.5 -93.5t-89.5 -55.5t-136.5 -18.5z" />
    <glyph glyph-name="P" unicode="P" horiz-adv-x="607" 
d="M140 298v-298h-59v712h237q66 0 113 -10.5t76 -34t42.5 -60.5t13.5 -90v-24q0 -53 -14 -90t-43.5 -60.5t-76 -34t-111.5 -10.5h-178zM504 512q0 43 -9.5 71.5t-31.5 45t-57.5 23t-87.5 6.5h-178v-306h178q53 0 88.5 6.5t57.5 23t31 45t9 71.5v14z" />
    <glyph glyph-name="Q" unicode="Q" horiz-adv-x="699" 
d="M349 -18q-81 0 -136 17.5t-88.5 54.5t-48.5 94t-15 135v147q0 76 14.5 133t48.5 94t89 55.5t136 18.5t136.5 -17.5t89 -54.5t48.5 -94t15 -135v-147q0 -125 -41 -197t-143 -94l153 -123h-91l-139 114q-8 -1 -14 -1h-14zM349 35q64 0 107.5 12t70.5 41t38.5 77t11.5 119
v145q0 71 -11.5 118.5t-38.5 76.5t-70.5 41.5t-107.5 12.5t-107.5 -12t-70 -41t-38 -77t-11.5 -119v-145q0 -71 11.5 -118.5t38.5 -76.5t70.5 -41.5t106.5 -12.5z" />
    <glyph glyph-name="R" unicode="R" horiz-adv-x="620" 
d="M140 299v-299h-59v712h237q65 0 111.5 -10.5t76 -33.5t43.5 -61t14 -92v-19q0 -86 -36.5 -131t-117.5 -59l187 -306h-68l-179 299h-209zM504 511q0 44 -9.5 72.5t-31 45t-57.5 23t-88 6.5h-178v-305h178q54 0 89.5 6.5t57 23t30.5 45t9 72.5v11z" />
    <glyph glyph-name="S" unicode="S" horiz-adv-x="566" 
d="M366 380q81 -14 119 -54.5t38 -124.5v-12q0 -50 -13.5 -86t-44.5 -59.5t-80 -34.5t-119 -11h-93.5t-129.5 2l11 54q69 -2 119 -2h93q58 0 96.5 7t61 24t31.5 44.5t9 68.5q0 30 -5.5 52t-19.5 37.5t-37.5 25t-59.5 15.5l-136 23q-45 7 -76 21t-49.5 35.5t-26.5 50.5t-8 68
v14q0 40 12.5 72.5t41.5 55.5t75.5 35.5t115.5 12.5h43.5h44.5t53.5 -0.5t70.5 -1.5l-12 -54q-38 1 -67.5 1.5t-53.5 0.5h-43.5h-37.5q-53 0 -88.5 -7t-56.5 -23t-30 -40.5t-9 -58.5q0 -29 5 -50.5t18.5 -37t36.5 -25t59 -15.5z" />
    <glyph glyph-name="T" unicode="T" horiz-adv-x="624" 
d="M597 712l-12 -54h-244v-658h-59v658h-255l12 54h558z" />
    <glyph glyph-name="U" unicode="U" horiz-adv-x="670" 
d="M335 -18q-78 0 -128.5 17t-79.5 52t-40.5 88.5t-11.5 125.5v447h59v-447q0 -68 10.5 -112.5t34 -70.5t62 -36.5t94.5 -10.5q59 0 98 11t62 38t32 71t9 110v447h59v-447q0 -76 -13 -129.5t-43.5 -87.5t-80.5 -50t-123 -16z" />
    <glyph glyph-name="V" unicode="V" horiz-adv-x="632" 
d="M86 712l231 -638l233 638h60l-262 -712h-63l-263 712h64z" />
    <glyph glyph-name="W" unicode="W" horiz-adv-x="868" 
d="M779 712h57l-172 -712h-65l-166 627l-167 -627h-65l-169 712h61l144 -632l169 632h58l167 -632z" />
    <glyph glyph-name="X" unicode="X" horiz-adv-x="642" 
d="M354 374l273 -374h-71l-237 329l-237 -329h-67l272 374l-245 338h69l212 -295l212 295h67z" />
    <glyph glyph-name="Y" unicode="Y" horiz-adv-x="618" 
d="M82 712l230 -353l227 353h63l-262 -404v-308h-59v308l-265 404h66z" />
    <glyph glyph-name="Z" unicode="Z" horiz-adv-x="587" 
d="M39 51l418 607h-398l11 54h455v-52l-417 -606h435l-11 -54h-493v51z" />
    <glyph glyph-name="bracketleft" unicode="[" horiz-adv-x="333" 
d="M318 712l-12 -53h-160v-781h172l-12 -53h-216v887h228z" />
    <glyph glyph-name="backslash" unicode="\" horiz-adv-x="382" 
d="M94 712l254 -712h-60l-254 712h60z" />
    <glyph glyph-name="bracketright" unicode="]" horiz-adv-x="333" 
d="M15 -175l12 53h160v781h-172l12 53h216v-887h-228z" />
    <glyph glyph-name="asciicircum" unicode="^" horiz-adv-x="595" 
d="M267 712h61l163 -303h-62l-133 249l-130 -249h-61z" />
    <glyph glyph-name="underscore" unicode="_" horiz-adv-x="500" 
d="M0 -124h500v-54h-500v54z" />
    <glyph glyph-name="grave" unicode="`" horiz-adv-x="500" 
d="M345 599h-61l-129 126h71z" />
    <glyph glyph-name="a" unicode="a" horiz-adv-x="538" 
d="M103 154q0 -27 6.5 -46t22 -32t42 -19t66.5 -6h170v120q0 32 -10.5 52.5t-30.5 32.5t-49.5 17t-67.5 5h-13q-74 0 -105 -24.5t-31 -86.5v-13zM466 57q0 -34 -12.5 -45.5t-49.5 -11.5h-164q-103 0 -148 36t-45 117v14q0 84 45.5 122t147.5 38q69 0 110 -13t60 -36v60
q0 36 -7 60.5t-25 39t-50 21t-81 6.5q-37 0 -78 -0.5t-74 -2.5l11 52q28 1 66 1.5t75 0.5q60 0 101.5 -9.5t67.5 -30t38 -53t12 -79.5v-287z" />
    <glyph glyph-name="b" unicode="b" horiz-adv-x="575" 
d="M301 479q-35 0 -66 -5.5t-54.5 -21.5t-37 -45.5t-13.5 -78.5v-111q0 -55 9 -90.5t29.5 -55.5t52.5 -28t78 -8q45 0 76 8t51 28t29 55.5t9 90.5v78q0 57 -10 93t-30.5 56.5t-51 27.5t-71.5 7zM305 530q56 0 97 -12t68 -39.5t40 -72t13 -109.5v-80q0 -66 -13.5 -110.5
t-41.5 -71.5t-70.5 -39t-100.5 -12q-59 0 -101.5 12t-70 39t-40.5 71.5t-13 109.5v527h58v-281q22 37 67 52.5t108 15.5z" />
    <glyph glyph-name="c" unicode="c" horiz-adv-x="464" 
d="M279 465q-48 0 -80.5 -7.5t-52 -27.5t-27.5 -55t-8 -90v-56q0 -51 8 -85.5t27 -55.5t51.5 -30t81.5 -9q42 0 75.5 0.5t61.5 1.5l-11 -51q-23 -1 -58.5 -1.5t-67.5 -0.5q-65 0 -108.5 13.5t-70 41.5t-37.5 71.5t-11 104.5v56q0 64 12.5 108t40 71.5t70.5 39.5t104 12h60
t76 -2l-11 -51q-38 2 -69 2h-56z" />
    <glyph glyph-name="d" unicode="d" horiz-adv-x="568" 
d="M438 51v271q0 51 -12.5 82t-35 47.5t-53 22t-65.5 5.5q-43 0 -73.5 -8t-50 -28t-28.5 -54.5t-9 -87.5v-65q0 -55 8 -91t27.5 -57t51.5 -29t80 -8h160zM276 0q-60 0 -102.5 12t-69.5 39.5t-39.5 73t-12.5 111.5v65q0 125 54.5 177t162.5 52q64 0 105 -16.5t64 -45.5v275
h58v-686q0 -34 -12 -45.5t-50 -11.5h-158z" />
    <glyph glyph-name="e" unicode="e" horiz-adv-x="531" 
d="M110 242q0 -57 7 -94t25 -59t49.5 -31t81.5 -9q43 0 83 0.5t86 1.5l-11 -51q-34 -1 -76.5 -1.5t-81.5 -0.5q-66 0 -109 15t-67.5 44.5t-34.5 73.5t-10 102v63q0 63 12.5 107.5t39 72.5t67.5 41t97 13q112 0 161.5 -48.5t49.5 -153.5v-24q0 -21 -2.5 -33t-8.5 -18.5
t-16.5 -8.5t-25.5 -2h-316zM267 481q-42 0 -72 -8t-49 -29t-27.5 -58t-8.5 -95h315v34q0 45 -9 75t-28 48t-49 25.5t-72 7.5z" />
    <glyph glyph-name="f" unicode="f" horiz-adv-x="329" 
d="M289 694q-46 0 -76.5 -6.5t-49 -26t-26 -55t-7.5 -92.5h203l-11 -50h-192v-464h-58v521q0 63 11.5 106t37 69.5t66 37.5t98.5 11h40t52 -2l-11 -51q-20 1 -42 1.5t-35 0.5z" />
    <glyph glyph-name="g" unicode="g" horiz-adv-x="573" 
d="M275 69q34 0 64.5 5.5t54 21.5t37 45t13.5 76v91q0 51 -9 84t-29 52.5t-52 27t-79 7.5t-78 -8t-50.5 -27.5t-27.5 -53.5t-8 -86v-59q0 -54 9.5 -88.5t29.5 -54t51 -26.5t74 -7zM444 86q-22 -36 -66 -52t-108 -16q-113 0 -165.5 51t-52.5 173v64q0 62 13 104.5t40.5 69
t69.5 38.5t101 12q63 0 106 -13t69.5 -40t38 -69t11.5 -99v-274q0 -59 -12.5 -99.5t-40 -65.5t-72 -36t-107.5 -11q-42 0 -78.5 0.5t-83.5 2.5l12 51q44 -2 77 -2.5t73 -0.5q49 0 82.5 7.5t54 26t29.5 49.5t9 78v51z" />
    <glyph glyph-name="h" unicode="h" horiz-adv-x="571" 
d="M72 0v743h58v-275q17 26 59 44t109 18q46 0 83.5 -8.5t63.5 -28.5t40 -53.5t14 -84.5v-355h-58v348q0 38 -8 63t-25.5 40t-46 21.5t-68.5 6.5q-35 0 -64.5 -5.5t-51.5 -19.5t-34.5 -37.5t-12.5 -60.5v-356h-58z" />
    <glyph glyph-name="i" unicode="i" horiz-adv-x="202" 
d="M72 514h58v-514h-58v514zM144 659q0 -24 -11 -34t-32 -10t-32 10t-11 34q0 22 10 33t33 11t33 -11t10 -33z" />
    <glyph glyph-name="j" unicode="j" horiz-adv-x="202" 
d="M144 659q0 -44 -43 -44t-43 44t43 44t43 -44zM-92 -126q19 -1 33.5 -1h28.5q30 0 50 5t31.5 18t16 35t4.5 56v527h58v-526q0 -48 -8.5 -80t-27.5 -50.5t-49.5 -26.5t-73.5 -8q-18 0 -39 0.5t-35 1.5z" />
    <glyph glyph-name="k" unicode="k" horiz-adv-x="512" 
d="M130 301l263 213h80l-285 -229l314 -285h-80l-292 264v-264h-58v743h58v-442z" />
    <glyph glyph-name="l" unicode="l" horiz-adv-x="202" 
d="M72 743h58v-743h-58v743z" />
    <glyph glyph-name="m" unicode="m" horiz-adv-x="842" 
d="M72 0v362q0 91 49.5 129.5t138.5 38.5q65 0 105 -21t56 -56q17 35 58 56t103 21q44 0 79 -8.5t59 -28t37 -51.5t13 -80v-362h-58v357q0 68 -30.5 95t-99.5 27q-68 0 -99.5 -26t-31.5 -92v-361h-59v357q0 68 -31.5 95t-100.5 27q-73 0 -101.5 -29.5t-28.5 -93.5v-356h-58z
" />
    <glyph glyph-name="n" unicode="n" horiz-adv-x="571" 
d="M72 0v343q0 43 9 78t33 59t65.5 37t106.5 13t106.5 -12.5t65 -36.5t32.5 -59t9 -79v-343h-58v337q0 35 -4.5 61.5t-20.5 44.5t-47 27t-83 9q-53 0 -84 -9.5t-47 -27.5t-20.5 -44.5t-4.5 -60.5v-337h-58z" />
    <glyph glyph-name="o" unicode="o" horiz-adv-x="556" 
d="M278 530q59 0 102 -11.5t70.5 -38.5t40.5 -72.5t13 -112.5v-76q0 -67 -13 -112t-40.5 -72.5t-70.5 -39t-102 -11.5t-102 11.5t-70.5 39t-40.5 72.5t-13 112v76q0 67 13 112t40.5 72.5t70.5 39t102 11.5zM445 295q0 55 -9 91t-29 56.5t-52 28.5t-77 8q-46 0 -77.5 -7.5
t-51.5 -28t-29 -56t-9 -92.5v-76q0 -56 9 -91.5t29 -56t51.5 -28.5t77.5 -8t77.5 7.5t51.5 28t29 56t9 92.5v76z" />
    <glyph glyph-name="p" unicode="p" horiz-adv-x="573" 
d="M299 35q49 0 81 9.5t50 31.5t25 57.5t7 87.5v74q0 58 -10 94.5t-30 56t-51.5 26.5t-73.5 7q-44 0 -75.5 -7t-51.5 -27t-30 -56t-10 -94v-95q0 -49 12 -81t34 -50.5t53.5 -26t69.5 -7.5zM298 530q53 0 94.5 -10t70 -36t43.5 -71.5t15 -117.5v-74q0 -68 -13 -113t-40.5 -73
t-69.5 -39.5t-99 -11.5q-59 0 -102.5 17.5t-66.5 52.5v-229h-58v470q0 69 15 114.5t43.5 72t70.5 37.5t97 11z" />
    <glyph glyph-name="q" unicode="q" horiz-adv-x="574" 
d="M273 35q34 0 65.5 5.5t54.5 22t37 46t14 78.5v110q0 55 -9.5 90.5t-29.5 55.5t-52.5 28t-77.5 8t-76 -7.5t-50.5 -28t-28.5 -56t-9 -90.5v-78q0 -57 10 -93t30 -56.5t50.5 -27.5t71.5 -7zM269 -16q-56 0 -97 12t-67.5 40t-39.5 72t-13 109v80q0 66 13.5 110.5t41 71.5
t70 39t100.5 12q59 0 101.5 -12t70 -39t40.5 -71.5t13 -109.5v-473h-58v227q-23 -37 -67.5 -52.5t-107.5 -15.5z" />
    <glyph glyph-name="r" unicode="r" horiz-adv-x="391" 
d="M72 0v339q0 52 11.5 86t34.5 54.5t57 28.5t79 8h63t47 -1l-11 -52q-13 1 -41.5 1.5t-54.5 0.5q-38 0 -62.5 -6.5t-38.5 -21.5t-20 -40.5t-6 -64.5v-332h-58z" />
    <glyph glyph-name="s" unicode="s" horiz-adv-x="495" 
d="M300 286q42 -4 69.5 -15.5t44.5 -28.5t24 -40t7 -50v-9q0 -35 -9.5 -62t-31.5 -45.5t-58.5 -28t-90.5 -9.5h-57.5h-52t-51 0.5t-53.5 1.5l11 51q45 -2 93.5 -2h111.5q39 0 64.5 4.5t40.5 16t20.5 30t5.5 46.5q0 42 -21 61.5t-77 24.5l-107 10q-74 8 -106.5 40.5
t-32.5 90.5v11q0 67 44.5 99.5t140.5 32.5h97t108 -2l-11 -51q-51 2 -102 2h-95q-70 0 -98 -18.5t-28 -63.5q0 -19 3.5 -33.5t13.5 -25.5t29 -18t49 -10z" />
    <glyph glyph-name="t" unicode="t" 
d="M72 644l58 11v-141h211l-11 -50h-200v-289q0 -37 5 -61t18.5 -38t37 -19.5t61.5 -5.5h77l-11 -51h-66q-51 0 -85.5 7.5t-55.5 27t-30 53t-9 86.5v470z" />
    <glyph glyph-name="u" unicode="u" horiz-adv-x="566" 
d="M283 -16q-62 0 -103 12t-65 35t-33.5 58t-9.5 82v343h58v-337q0 -35 5 -61.5t20.5 -44.5t46 -27t81.5 -9t81.5 8.5t46 26t20.5 44.5t5 63v337h58v-343q0 -45 -9.5 -79.5t-33 -58.5t-64.5 -36.5t-104 -12.5z" />
    <glyph glyph-name="v" unicode="v" horiz-adv-x="509" 
d="M83 514l173 -454l174 454h60l-202 -514h-67l-202 514h64z" />
    <glyph glyph-name="w" unicode="w" horiz-adv-x="739" 
d="M369 439l-127 -439h-62l-156 514h60l128 -449l129 449h60l128 -451l130 451h56l-156 -514h-62z" />
    <glyph glyph-name="x" unicode="x" horiz-adv-x="496" 
d="M107 514l143 -200l143 200h64l-176 -240l200 -274h-66l-168 234l-169 -234h-63l201 274l-175 240h66z" />
    <glyph glyph-name="y" unicode="y" horiz-adv-x="566" 
d="M114 -123q33 -2 69 -2.5t81 -0.5q48 0 80.5 7.5t53 26t29 49.5t8.5 78v40q-20 -29 -57.5 -43t-102.5 -14q-57 0 -96 11t-63 33.5t-34 57.5t-10 84v310h58v-303q0 -35 4.5 -61.5t20 -44.5t45 -27t79.5 -9q49 0 79.5 8.5t47.5 26t23.5 45t6.5 66.5v299h58v-479
q0 -59 -12.5 -99.5t-40 -65.5t-71 -36t-105.5 -11q-46 0 -84.5 0.5t-77.5 2.5z" />
    <glyph glyph-name="z" unicode="z" horiz-adv-x="484" 
d="M110 51h333l-11 -51h-393v45l325 419h-316l11 50h376v-45z" />
    <glyph glyph-name="braceleft" unicode="{" horiz-adv-x="367" 
d="M352 712l-12 -51h-42q-36 0 -58.5 -6t-35 -18.5t-17 -31.5t-4.5 -46v-175q0 -51 -14.5 -77t-44.5 -39q30 -13 44.5 -38.5t14.5 -76.5v-175q0 -27 4.5 -46t17 -31.5t35 -18.5t58.5 -6h54l-12 -51h-41q-51 0 -84 9.5t-53 28.5t-28 46.5t-8 62.5v178q0 51 -17.5 72t-67.5 21
h-21v50h21q50 0 67.5 21.5t17.5 72.5v178q0 35 8 62.5t28 46t53 28.5t84 10h53z" />
    <glyph glyph-name="bar" unicode="|" horiz-adv-x="207" 
d="M75 743h57v-918h-57v918z" />
    <glyph glyph-name="braceright" unicode="}" horiz-adv-x="367" 
d="M15 -175l12 51h42q36 0 58.5 6t35 18.5t17 31.5t4.5 46v176q0 51 14.5 77t44.5 39q-30 13 -44.5 38.5t-14.5 76.5v174q0 27 -4.5 46t-17 31.5t-35 18.5t-58.5 6h-54l12 51h41q51 0 84 -10t53 -28.5t28 -46t8 -62.5v-177q0 -51 17.5 -72t67.5 -21h21v-50h-21
q-50 0 -67.5 -21.5t-17.5 -72.5v-179q0 -35 -8 -62.5t-28 -46.5t-53 -28.5t-84 -9.5h-53z" />
    <glyph glyph-name="asciitilde" unicode="~" horiz-adv-x="595" 
d="M515 416v-27q0 -65 -25.5 -94t-69.5 -29q-31 0 -59 12.5t-59 31.5l-15 9q-36 22 -58.5 33t-47.5 11q-24 0 -36 -16.5t-12 -52.5v-27h-52v27q0 65 25.5 94t69.5 29q31 0 59 -12.5t59 -31.5l15 -9q36 -22 58.5 -33t47.5 -11q24 0 36 16.5t12 52.5v27h52z" />
    <glyph glyph-name="Euro" unicode="&#x20ac;" horiz-adv-x="595" 
d="M185 401v-120h297l-11 -48h-283q3 -53 16.5 -88t39.5 -56t67 -30t99 -9q28 0 58 0.5t61 1.5l-12 -52q-26 -1 -50 -1.5t-58 -0.5q-75 0 -126.5 13t-84 41t-48.5 73t-20 108h-86l10 48h75v120h-85l10 48h76q4 61 20.5 105t50 72.5t86 42t127.5 13.5q26 0 55.5 -0.5
t55.5 -1.5l-11 -52q-21 1 -48.5 1.5t-51.5 0.5q-62 0 -104 -9t-68 -30.5t-38 -56t-15 -85.5h293l-11 -48h-286z" />
    <glyph glyph-name="uni20BA" unicode="&#x20ba;" horiz-adv-x="595" 
d="M462 244l54 12v-35q0 -60 -13 -102t-43.5 -68.5t-81.5 -38.5t-126 -12h-112v219l-75 -34v50l75 34v138l-75 -34v51l75 33v223h55v-198l215 96v-51l-215 -96v-138l215 96v-50l-215 -96v-190h57q63 0 103.5 8t64 27t33 51t9.5 80v25z" />
    <glyph glyph-name="quotesinglbase" unicode="&#x201a;" horiz-adv-x="169" 
d="M53 -136h-41l56 140q-25 8 -25 39q0 45 44 45q42 0 42 -41q0 -14 -5 -28.5t-15 -35.5z" />
    <glyph glyph-name="florin" unicode="&#x192;" horiz-adv-x="329" 
d="M130 464v-476q0 -48 -8.5 -80t-27.5 -50.5t-49.5 -26.5t-73.5 -8q-18 0 -39 0.5t-35 1.5l11 49q19 -1 33.5 -1h28.5q30 0 50 5t31.5 18t16 35t4.5 56v534q0 63 11.5 106t37 69.5t66 37.5t98.5 11h40t52 -2l-11 -51q-20 1 -42 1.5t-35 0.5q-46 0 -76.5 -6.5t-49 -26
t-26 -55t-7.5 -92.5h203l-11 -50h-192z" />
    <glyph glyph-name="quotedblbase" unicode="&#x201e;" horiz-adv-x="331" 
d="M54 -135h-41l56 140q-25 8 -25 39q0 45 44 45q42 0 42 -41q0 -14 -5 -29t-15 -35zM215 -135h-41l56 140q-25 8 -25 39q0 45 44 45q42 0 42 -41q0 -14 -5 -29t-15 -35z" />
    <glyph glyph-name="ellipsis" unicode="&#x2026;" horiz-adv-x="1000" 
d="M210 42q0 -47 -45 -47t-45 47q0 48 45 48t45 -48zM549 42q0 -47 -45 -47t-45 47q0 48 45 48t45 -48zM879 42q0 -47 -45 -47t-45 47q0 48 45 48t45 -48z" />
    <glyph glyph-name="dagger" unicode="&#x2020;" horiz-adv-x="495" 
d="M28 412l11 52h179v248h56v-248h193l-11 -52h-182v-587h-56v587h-190z" />
    <glyph glyph-name="daggerdbl" unicode="&#x2021;" horiz-adv-x="495" 
d="M28 72l11 52h179v291h-190l11 52h179v245h56v-245h193l-11 -52h-182v-291h193l-11 -52h-182v-247h-56v247h-190z" />
    <glyph glyph-name="circumflex" unicode="&#x2c6;" horiz-adv-x="500" 
d="M281 723l112 -124h-59l-84 86l-83 -86h-59l112 124h61z" />
    <glyph glyph-name="perthousand" unicode="&#x2030;" horiz-adv-x="1212" 
d="M603 680h57l-425 -680h-57zM653 38q32 0 53 6t33.5 21t17.5 41.5t5 67.5v44q0 41 -5 67.5t-17.5 41.5t-33.5 21t-53 6t-53.5 -6t-34 -21t-17.5 -41.5t-5 -67.5v-44q0 -41 5 -67.5t17.5 -41.5t34 -21t53.5 -6zM653 -9q-89 0 -125.5 42t-36.5 137v52q0 95 36.5 137
t125.5 42t125 -42t36 -137v-52q0 -95 -36 -137t-125 -42zM1026 38q32 0 53 6t33.5 21t17.5 41.5t5 67.5v44q0 41 -5 67.5t-17.5 41.5t-33.5 21t-53 6t-53.5 -6t-34 -21t-17.5 -41.5t-5 -67.5v-44q0 -41 5 -67.5t17.5 -41.5t34 -21t53.5 -6zM1026 -9q-89 0 -125.5 42
t-36.5 137v52q0 95 36.5 137t125.5 42t125 -42t36 -137v-52q0 -95 -36 -137t-125 -42zM186 326q32 0 53 6t33.5 21t17.5 41.5t5 67.5v44q0 41 -5 67.5t-17.5 41.5t-33.5 21t-53 6t-53.5 -6t-34 -21t-17.5 -41.5t-5 -67.5v-44q0 -41 5 -67.5t17.5 -41.5t34 -21t53.5 -6z
M186 279q-89 0 -125.5 42t-36.5 137v52q0 95 36.5 137t125.5 42t125 -42t36 -137v-52q0 -95 -36 -137t-125 -42z" />
    <glyph glyph-name="Scaron" unicode="&#x160;" horiz-adv-x="566" 
d="M366 380q81 -14 119 -54.5t38 -124.5v-12q0 -50 -13.5 -86t-44.5 -59.5t-80 -34.5t-119 -11h-93.5t-129.5 2l11 54q69 -2 119 -2h93q58 0 96.5 7t61 24t31.5 44.5t9 68.5q0 30 -5.5 52t-19.5 37.5t-37.5 25t-59.5 15.5l-136 23q-45 7 -76 21t-49.5 35.5t-26.5 50.5t-8 68
v14q0 40 12.5 72.5t41.5 55.5t75.5 35.5t115.5 12.5h43.5h44.5t53.5 -0.5t70.5 -1.5l-12 -54q-38 1 -67.5 1.5t-53.5 0.5h-43.5h-37.5q-53 0 -88.5 -7t-56.5 -23t-30 -40.5t-9 -58.5q0 -29 5 -50.5t18.5 -37t36.5 -25t59 -15.5zM197 888l89 -80l89 80h64l-122 -115h-62
l-121 115h63z" />
    <glyph glyph-name="guilsinglleft" unicode="&#x2039;" horiz-adv-x="306" 
d="M33 294l226 170v-65l-176 -133l176 -132v-66l-226 170v56z" />
    <glyph glyph-name="OE" unicode="&#x152;" horiz-adv-x="989" 
d="M922 0h-575q-79 0 -133.5 17.5t-88.5 54t-49 92.5t-15 133v118q0 75 15 131t48.5 92.5t88 55t134.5 18.5h587l-12 -54h-386v-265h373l-12 -54h-361v-285h398zM477 53v606h-131q-62 0 -105 -12.5t-69.5 -41t-38 -75.5t-11.5 -116v-116q0 -69 12 -116t38.5 -75.5t69 -41
t104.5 -12.5h131z" />
    <glyph glyph-name="quoteleft" unicode="&#x2018;" horiz-adv-x="184" 
d="M121 716h41l-56 -141q25 -10 25 -39q0 -45 -44 -45q-42 0 -42 42q0 14 5 28.5t15 35.5z" />
    <glyph glyph-name="quoteright" unicode="&#x2019;" horiz-adv-x="184" 
d="M63 495h-41l56 140q-25 8 -25 39q0 45 44 45q42 0 42 -41q0 -14 -5 -29t-15 -35z" />
    <glyph glyph-name="quotedblleft" unicode="&#x201c;" horiz-adv-x="346" 
d="M121 716h41l-56 -141q25 -10 25 -39q0 -45 -44 -45q-42 0 -42 42q0 14 5 28.5t15 35.5zM283 716h41l-56 -141q25 -10 25 -39q0 -45 -44 -45q-42 0 -42 42q0 14 5 28.5t15 35.5z" />
    <glyph glyph-name="quotedblright" unicode="&#x201d;" horiz-adv-x="346" 
d="M63 495h-41l56 140q-25 8 -25 39q0 45 44 45q42 0 42 -41q0 -14 -5 -29t-15 -35zM225 495h-41l56 140q-25 8 -25 39q0 45 44 45q42 0 42 -41q0 -14 -5 -29t-15 -35z" />
    <glyph glyph-name="bullet" unicode="&#x2022;" horiz-adv-x="346" 
d="M271 280q0 -49 -22.5 -73.5t-75.5 -24.5t-75.5 24.5t-22.5 73.5t22.5 73.5t75.5 24.5t75.5 -24.5t22.5 -73.5z" />
    <glyph glyph-name="endash" unicode="&#x2013;" horiz-adv-x="500" 
d="M0 304h500v-53h-500v53z" />
    <glyph glyph-name="emdash" unicode="&#x2014;" horiz-adv-x="1000" 
d="M0 304h1000v-53h-1000v53z" />
    <glyph glyph-name="tilde" unicode="&#x2dc;" horiz-adv-x="500" 
d="M224 637q-16 10 -27 13.5t-23 3.5q-14 0 -23 -10t-9 -40v-7h-44v8q0 29 6.5 47.5t17 29t24 14.5t27.5 4t30.5 -4t40.5 -18l32 -18q16 -10 27 -13.5t24 -3.5q14 0 23 10.5t9 39.5v7h43v-8q0 -29 -6 -47.5t-16.5 -29t-24 -14.5t-27.5 -4t-31 4t-41 18z" />
    <glyph glyph-name="trademark" unicode="&#x2122;" horiz-adv-x="833" 
d="M449 712l134 -213l129 213h52v-372h-48v300l-117 -190h-36l-119 190v-300h-46v372h51zM330 712l-9 -44h-128v-328h-50v328h-137l9 44h315z" />
    <glyph glyph-name="scaron" unicode="&#x161;" horiz-adv-x="495" 
d="M300 286q42 -4 69.5 -15.5t44.5 -28.5t24 -40t7 -50v-9q0 -35 -9.5 -62t-31.5 -45.5t-58.5 -28t-90.5 -9.5h-57.5h-52t-51 0.5t-53.5 1.5l11 51q45 -2 93.5 -2h111.5q39 0 64.5 4.5t40.5 16t20.5 30t5.5 46.5q0 42 -21 61.5t-77 24.5l-107 10q-74 8 -106.5 40.5
t-32.5 90.5v11q0 67 44.5 99.5t140.5 32.5h97t108 -2l-11 -51q-51 2 -102 2h-95q-70 0 -98 -18.5t-28 -63.5q0 -19 3.5 -33.5t13.5 -25.5t29 -18t49 -10zM216 599l-112 124h59l83 -87l84 87h59l-112 -124h-61z" />
    <glyph glyph-name="guilsinglright" unicode="&#x203a;" horiz-adv-x="306" 
d="M273 238l-226 -170v65l176 133l-176 132v66l226 -170v-56z" />
    <glyph glyph-name="oe" unicode="&#x153;" horiz-adv-x="924" 
d="M278 35q47 0 79 8t51.5 28.5t28 56t8.5 91.5v75q0 55 -8.5 90.5t-28 56.5t-51.5 29.5t-79 8.5q-46 0 -77.5 -7.5t-51.5 -28t-29 -56t-9 -92.5v-76q0 -56 9 -91.5t29 -56t51.5 -28.5t77.5 -8zM675 -2q-84 0 -130 20t-69 69q-23 -59 -72.5 -81t-125.5 -22q-59 0 -102 11.5
t-70.5 39t-40.5 72.5t-13 112v76q0 67 13 112t40.5 72.5t70.5 39t102 11.5q81 0 127 -24t69 -75q22 51 67 75t123 24q109 0 158.5 -48t49.5 -154v-24q0 -21 -2.5 -33.5t-9 -18.5t-16.5 -8t-25 -2h-318q0 -58 7.5 -95.5t27 -59t53 -30t86.5 -8.5q42 0 84.5 0.5t75.5 1.5
l-11 -51q-31 -1 -71 -1.5t-78 -0.5zM664 481q-45 0 -76 -7.5t-50.5 -28.5t-28 -58t-8.5 -96h317v35q0 45 -9 75t-28 48t-48 25t-69 7z" />
    <glyph glyph-name="Ydieresis" unicode="&#x178;" horiz-adv-x="618" 
d="M82 712l230 -353l227 353h63l-262 -404v-308h-59v308l-265 404h66zM273 816q0 -43 -42 -43t-42 43t42 43t42 -43zM429 816q0 -43 -42 -43q-41 0 -41 43t41 43q42 0 42 -43z" />
    <glyph glyph-name="uni00A0" unicode="&#xa0;" horiz-adv-x="250" 
 />
    <glyph glyph-name="exclamdown" unicode="&#xa1;" horiz-adv-x="211" 
d="M128 336l6 -184v-35t0.5 -48.5t0.5 -49v-35.5v-184h-60v184v35.5t0.5 49t0.5 48.5v35l6 184h46zM60 472q0 47 45 47t45 -47t-45 -47t-45 47z" />
    <glyph glyph-name="cent" unicode="&#xa2;" horiz-adv-x="595" 
d="M350 516h5q36 0 70.5 -0.5t56.5 -1.5l-11 -51q-20 1 -53 1.5t-64 0.5h-4v-416h6h63t66 2l-11 -51q-23 -1 -56 -1.5t-68 -0.5v-94h-48v96q-53 3 -88.5 18.5t-56.5 43.5t-30 69.5t-9 97.5v58q0 57 10.5 98t33 68.5t57 42t83.5 18.5v99h48v-97zM177 229q0 -45 6 -77.5
t20.5 -54t38.5 -33t60 -14.5v414q-36 -3 -60 -13.5t-38.5 -31t-20.5 -53t-6 -79.5v-58z" />
    <glyph glyph-name="sterling" unicode="&#xa3;" horiz-adv-x="595" 
d="M501 0h-445l12 53h71v276h-83l11 51h72v51q0 70 14 118t45 77.5t80 42.5t119 13q56 0 109 -3l-10 -53q-22 2 -50 2.5t-51 0.5q-58 0 -96.5 -9t-61 -31.5t-32 -61.5t-9.5 -100v-47h240l-11 -51h-229v-276h316z" />
    <glyph glyph-name="currency" unicode="&#xa4;" horiz-adv-x="595" 
d="M137 354q0 -33 11 -62t32 -50t50.5 -33.5t66.5 -12.5t66.5 12.5t50.5 33.5t32 50t11 62t-11 62t-32 50t-50.5 33.5t-66.5 12.5t-66.5 -12.5t-50.5 -33.5t-32 -50t-11 -62zM506 354q0 -36 -11.5 -68.5t-32.5 -59.5l68 -67l-35 -35l-69 67q-26 -20 -58.5 -32t-70.5 -12
t-70.5 12t-58.5 32l-68 -67l-36 35l68 67q-21 27 -32.5 59.5t-11.5 68.5t11.5 68.5t32.5 59.5l-68 67l36 35l68 -67q26 21 58.5 32.5t70.5 11.5t70.5 -11.5t58.5 -32.5l69 67l35 -35l-68 -67q21 -27 32.5 -59.5t11.5 -68.5z" />
    <glyph glyph-name="yen" unicode="&#xa5;" horiz-adv-x="595" 
d="M93 352h151l-196 328h65l186 -318l187 318h62l-199 -328h154v-48h-176v-96h176v-49h-176v-159h-59v159h-175v49h175v96h-175v48z" />
    <glyph glyph-name="brokenbar" unicode="&#xa6;" horiz-adv-x="207" 
d="M75 437v306h57v-306h-57zM132 -175h-57v306h57v-306z" />
    <glyph glyph-name="section" unicode="&#xa7;" horiz-adv-x="554" 
d="M312 442q97 -9 140.5 -47t43.5 -118v-10q0 -57 -26 -92.5t-61 -52.5q42 -17 62 -52.5t20 -79.5v-8q0 -40 -11.5 -71t-37 -52t-66.5 -32t-100 -11h-110.5t-107.5 2l11 51q50 -2 99 -2h109q47 0 77.5 7.5t48 22t24.5 36t7 50.5q0 24 -5.5 43t-19 32.5t-37.5 22t-60 11.5
l-78 7q-51 4 -86 15.5t-57 31.5t-31.5 49t-9.5 67v10q0 58 25 95t64 51q-46 17 -65.5 50.5t-19.5 80.5v11q0 36 11 64.5t36 49t65 31t98 10.5q57 0 106 -0.5t106 -2.5l-9 -51q-43 2 -95 2.5t-109 0.5q-48 0 -77.5 -6.5t-46.5 -20t-23 -33.5t-6 -47q0 -25 4.5 -44t18 -32
t37.5 -21t63 -11zM253 394q-12 1 -18.5 1h-11.5q-54 0 -85.5 -29t-31.5 -95q0 -32 6.5 -53t22 -35t41.5 -21.5t64 -10.5l47 -4q13 -1 22 -1.5t15 -0.5q55 0 85.5 29t30.5 95q0 32 -6.5 53.5t-22 35t-41 21t-63.5 10.5z" />
    <glyph glyph-name="dieresis" unicode="&#xa8;" horiz-adv-x="500" 
d="M215 657q0 -23 -10.5 -32.5t-30.5 -9.5t-30.5 9.5t-10.5 32.5t10.5 32.5t30.5 9.5t30.5 -9.5t10.5 -32.5zM367 657q0 -23 -10 -32.5t-31 -9.5q-20 0 -30.5 9.5t-10.5 32.5t10 32.5t31 9.5q20 0 30.5 -9.5t10.5 -32.5z" />
    <glyph glyph-name="copyright" unicode="&#xa9;" horiz-adv-x="819" 
d="M517 527q-20 1 -38 1h-39q-36 0 -61 -6t-41 -22t-23 -45t-7 -75v-47q0 -44 6.5 -73t22.5 -46t44 -23.5t71 -6.5h38t37 1l-11 -47q-15 -1 -33.5 -1.5t-40.5 -0.5q-54 0 -90.5 12t-58 36t-30.5 61t-9 87v48q0 53 10 90t32 60.5t57 34.5t85 11q24 0 47.5 -0.5t41.5 -1.5z
M772 356q0 -96 -18 -163.5t-60 -110t-111.5 -62.5t-172.5 -20q-102 0 -171.5 19.5t-112 62t-61 110.5t-18.5 164t18 163.5t60.5 110t112 62.5t172.5 20q102 0 171.5 -19.5t112 -62t60.5 -110t18 -164.5zM723 356q0 86 -13.5 145.5t-48.5 96t-95.5 52.5t-155.5 16t-156 -16
t-96 -52t-48 -95.5t-13 -146.5t13 -146t48 -95.5t96 -52.5t156 -16t155.5 16t95.5 52.5t48.5 95.5t13.5 146z" />
    <glyph glyph-name="ordfeminine" unicode="&#xaa;" horiz-adv-x="439" 
d="M94 428q0 -46 23.5 -62.5t78.5 -16.5h130v89q0 49 -29.5 66t-86.5 17h-11q-62 0 -83.5 -19t-21.5 -63v-11zM376 352q0 -26 -9.5 -36.5t-35.5 -10.5h-136q-76 0 -113 27t-37 96v12q0 63 35 94t121 31q52 0 81.5 -12t43.5 -27v49q0 25 -4.5 43t-17.5 29t-36.5 16.5
t-60.5 5.5q-32 0 -65.5 -0.5t-60.5 -1.5l10 45q21 1 52.5 1.5t63.5 0.5q90 0 129.5 -30.5t39.5 -104.5v-227z" />
    <glyph glyph-name="guillemotleft" unicode="&#xab;" horiz-adv-x="498" 
d="M33 293l199 178v-65l-153 -140l153 -139v-66l-199 179v53zM252 293l199 178v-65l-153 -140l153 -139v-66l-199 179v53z" />
    <glyph glyph-name="logicalnot" unicode="&#xac;" horiz-adv-x="595" 
d="M65 407v52h417v-242h-57v190h-360z" />
    <glyph glyph-name="uni00AD" unicode="&#xad;" horiz-adv-x="359" 
d="M35 267l11 53h278l-11 -53h-278z" />
    <glyph glyph-name="registered" unicode="&#xae;" horiz-adv-x="584" 
d="M547 484q0 -70 -15 -118t-46 -77t-79 -42t-115 -13t-115 13t-79 42t-45.5 77t-14.5 118t14.5 118t45.5 77t79 42t115 13t115 -13t79 -42t46 -77t15 -118zM84 484q0 -60 10.5 -100t34.5 -64t64 -34t99 -10t99 10t64.5 34t35 64t10.5 100t-10.5 100t-35 64t-64.5 34t-99 10
t-99 -10t-64 -34t-34.5 -64t-10.5 -100zM394 530q0 -29 -11.5 -46.5t-34.5 -25.5l58 -101h-52l-51 94h-59v-94h-47v263h105q48 0 70 -19t22 -62v-9zM348 537q0 26 -11 35t-42 9h-52v-91h52q31 0 42 8t11 32v7z" />
    <glyph glyph-name="macron" unicode="&#xaf;" horiz-adv-x="500" 
d="M119 674h261v-48h-261v48z" />
    <glyph glyph-name="degree" unicode="&#xb0;" horiz-adv-x="352" 
d="M328 598q0 -70 -39 -107t-113 -37t-112.5 37t-38.5 107t38.5 107t112.5 37t113 -37t39 -107zM278 598q0 52 -24 76.5t-78 24.5t-78 -24.5t-24 -76.5t24 -76.5t78 -24.5t78 24.5t24 76.5z" />
    <glyph glyph-name="plusminus" unicode="&#xb1;" horiz-adv-x="595" 
d="M89 53h417v-52h-417v52zM326 372h180v-52h-180v-190h-57v190h-180v52h180v190h57v-190z" />
    <glyph glyph-name="acute" unicode="&#xb4;" horiz-adv-x="500" 
d="M274 725h71l-129 -126h-61z" />
    <glyph glyph-name="mu" unicode="&#xb5;" horiz-adv-x="567" 
d="M288 0q-64 0 -102 13t-57 41v-229h-57v689h58v-313q0 -39 5.5 -67.5t22.5 -46.5t48 -27t82 -9h149v463h58v-457q0 -34 -12 -45.5t-50 -11.5h-145z" />
    <glyph glyph-name="paragraph" unicode="&#xb6;" horiz-adv-x="642" 
d="M562 712v-887h-53v841h-138v-841h-53v465h-68q-113 0 -166 55.5t-53 150.5v8q0 105 56.5 156.5t162.5 51.5h312z" />
    <glyph glyph-name="periodcentered" unicode="&#xb7;" horiz-adv-x="174" 
d="M132 341q0 -47 -45 -47t-45 47q0 48 45 48t45 -48z" />
    <glyph glyph-name="cedilla" unicode="&#xb8;" horiz-adv-x="500" 
d="M293 -118q0 21 -11.5 29.5t-42.5 8.5h-26.5t-29.5 -1l11 41q20 1 31 1h21q52 0 75.5 -17.5t23.5 -57.5v-7q0 -41 -23.5 -59.5t-81.5 -18.5q-29 0 -53 1t-34 2l12 41q16 -1 38 -1.5t36 -0.5q31 0 42.5 8.5t11.5 30.5z" />
    <glyph glyph-name="ordmasculine" unicode="&#xba;" horiz-adv-x="458" 
d="M229 344q37 0 61.5 7t39.5 22.5t21 41t6 63.5v62q0 37 -6 63t-21 41.5t-39.5 22.5t-61.5 7t-61.5 -7t-39.5 -22.5t-21 -41.5t-6 -63v-62q0 -38 6 -63.5t21 -41t39.5 -22.5t61.5 -7zM229 299q-47 0 -81 9.5t-56.5 30.5t-33.5 55t-11 83v64q0 97 44.5 137.5t137.5 40.5
t137.5 -40.5t44.5 -137.5v-64q0 -49 -11 -83t-33.5 -55t-57 -30.5t-80.5 -9.5z" />
    <glyph glyph-name="guillemotright" unicode="&#xbb;" horiz-adv-x="498" 
d="M465 240l-199 -179v66l152 139l-152 140v65l199 -178v-53zM246 240l-199 -179v66l152 139l-152 140v65l199 -178v-53z" />
    <glyph glyph-name="onequarter" unicode="&#xbc;" horiz-adv-x="839" 
d="M613 680h57l-425 -680h-57zM551 134h154v116l49 8v-124h61l-10 -44h-51v-90h-49v90h-208v40l149 262h53zM316 334l-9 -46h-241l9 46h91v301h-100l10 45h140v-346h100z" />
    <glyph glyph-name="onehalf" unicode="&#xbd;" horiz-adv-x="839" 
d="M602 680h57l-425 -680h-57zM625 162q-17 -6 -27.5 -12.5t-16.5 -17t-8 -25t-2 -36.5v-25h214l-9 -46h-255v68q0 29 4 51t14 38t27.5 27.5t43.5 20.5l59 20q37 12 50 25t13 43q0 31 -17 43t-63 12q-32 0 -64.5 -0.5t-58.5 -1.5l9 45q29 2 53 2h59q69 0 100.5 -22.5
t31.5 -72.5v-8q0 -42 -20.5 -65.5t-69.5 -39.5zM316 334l-9 -46h-241l9 46h91v301h-100l10 45h140v-346h100z" />
    <glyph glyph-name="threequarters" unicode="&#xbe;" horiz-adv-x="839" 
d="M619 680h57l-425 -680h-57zM551 134h154v116l49 8v-124h61l-10 -44h-51v-90h-49v90h-208v40l149 262h53zM309 580q0 -33 -15.5 -54.5t-43.5 -28.5q31 -7 50.5 -30t19.5 -63v-6q0 -56 -36 -83.5t-120 -27.5h-29h-25.5t-26.5 0.5t-32 1.5l9 46q38 -2 60.5 -2h46.5
q57 0 79 14t22 52v5q0 38 -20 53t-76 15h-89l9 44h76q55 0 73 15t18 46v6q0 30 -18 41t-64 11h-53t-62 -1l9 46q30 1 60 1h48q69 0 99.5 -23t30.5 -72v-6z" />
    <glyph glyph-name="questiondown" unicode="&#xbf;" horiz-adv-x="455" 
d="M182 107q-22 -11 -36.5 -22t-23.5 -25.5t-12.5 -34.5t-3.5 -47q0 -34 6.5 -58.5t23.5 -40t47 -22.5t77 -7h26t34 0.5t47 1t64 0.5l-10 -51q-33 -1 -57 -1.5t-42 -0.5h-32.5h-28.5q-59 0 -100 10t-66.5 30.5t-37 52.5t-11.5 76v18q0 61 24 98.5t81 66.5l56 27
q22 11 34.5 21.5t19 24t8.5 31.5t2 44v38h58v-38q0 -33 -4 -58t-14.5 -44t-29 -34t-46.5 -29zM255 472q0 47 45 47t45 -47t-45 -47t-45 47z" />
    <glyph glyph-name="Agrave" unicode="&#xc0;" horiz-adv-x="657" 
d="M486 228h-319l-85 -228h-60l276 712h62l275 -712h-63zM186 281h280l-140 369zM265 892l117 -119h-63l-130 119h76z" />
    <glyph glyph-name="Aacute" unicode="&#xc1;" horiz-adv-x="657" 
d="M486 228h-319l-85 -228h-60l276 712h62l275 -712h-63zM186 281h280l-140 369zM473 892l-130 -119h-63l117 119h76z" />
    <glyph glyph-name="Acircumflex" unicode="&#xc2;" horiz-adv-x="657" 
d="M486 228h-319l-85 -228h-60l276 712h62l275 -712h-63zM186 281h280l-140 369zM328 852l-89 -79h-63l121 115h62l121 -115h-63z" />
    <glyph glyph-name="Atilde" unicode="&#xc3;" horiz-adv-x="657" 
d="M486 228h-319l-85 -228h-60l276 712h62l275 -712h-63zM186 281h280l-140 369zM306 808q-21 11 -31.5 15t-24.5 4q-32 0 -32 -48v-9h-45v9q0 28 6 46.5t16.5 29.5t23.5 15.5t27 4.5q15 0 33 -4.5t44 -18.5l27 -15q21 -11 31.5 -15t24.5 -4q32 0 32 48v9h45v-9
q0 -28 -6 -46.5t-16.5 -29.5t-23.5 -15.5t-27 -4.5q-15 0 -32.5 5t-43.5 18z" />
    <glyph glyph-name="Adieresis" unicode="&#xc4;" horiz-adv-x="657" 
d="M486 228h-319l-85 -228h-60l276 712h62l275 -712h-63zM186 281h280l-140 369zM292 816q0 -43 -42 -43t-42 43t42 43t42 -43zM448 816q0 -43 -42 -43q-41 0 -41 43t41 43q42 0 42 -43z" />
    <glyph glyph-name="Aring" unicode="&#xc5;" horiz-adv-x="657" 
d="M210 792q0 55 31 83.5t87 28.5t87 -28.5t31 -83.5q0 -44 -20 -70.5t-56 -36.5l265 -685h-63l-86 228h-319l-85 -228h-60l265 684q-37 10 -57 36.5t-20 71.5zM186 281h280l-140 369zM399 792q0 39 -16.5 55t-54.5 16t-54.5 -16t-16.5 -55t16.5 -55t54.5 -16t54.5 16
t16.5 55z" />
    <glyph glyph-name="AE" unicode="&#xc6;" horiz-adv-x="957" 
d="M445 286v361h-5l-209 -361h214zM201 233l-134 -233h-62l417 712h480l-12 -54h-386v-265h373l-12 -54h-361v-285h398l-12 -54h-445v233h-244z" />
    <glyph glyph-name="Ccedilla" unicode="&#xc7;" horiz-adv-x="565" 
d="M361 52q42 0 80 0.5t74 1.5l-12 -54q-31 -1 -67.5 -1.5t-74.5 -0.5q-86 0 -143.5 15.5t-92 51t-49.5 92t-15 139.5v121q0 83 15 139.5t50 91.5t92.5 50.5t143.5 15.5h33h33.5t38.5 -0.5t49 -1.5l-12 -54q-43 2 -76 2h-67q-74 0 -121 -12t-73 -40t-35.5 -74.5t-9.5 -116.5
v-121q0 -72 11 -119.5t38.5 -75t73.5 -38.5t116 -11zM309 -82h-29t-29 -1l11 43q11 1 26.5 1h29.5q53 0 76 -18t23 -58v-7q0 -40 -24.5 -58.5t-80.5 -18.5q-28 0 -52 0.5t-39 2.5l12 43q11 -1 33 -1.5t43 -0.5q31 0 42 7.5t11 29.5q0 21 -11 28.5t-42 7.5z" />
    <glyph glyph-name="Egrave" unicode="&#xc8;" horiz-adv-x="593" 
d="M538 712l-12 -54h-386v-265h373l-12 -54h-361v-285h398l-12 -54h-445v712h457zM268 892l117 -119h-63l-130 119h76z" />
    <glyph glyph-name="Eacute" unicode="&#xc9;" horiz-adv-x="593" 
d="M538 712l-12 -54h-386v-265h373l-12 -54h-361v-285h398l-12 -54h-445v712h457zM434 892l-130 -119h-63l117 119h76z" />
    <glyph glyph-name="Ecircumflex" unicode="&#xca;" horiz-adv-x="593" 
d="M538 712l-12 -54h-386v-265h373l-12 -54h-361v-285h398l-12 -54h-445v712h457zM307 852l-89 -79h-63l121 115h62l121 -115h-63z" />
    <glyph glyph-name="Edieresis" unicode="&#xcb;" horiz-adv-x="593" 
d="M538 712l-12 -54h-386v-265h373l-12 -54h-361v-285h398l-12 -54h-445v712h457zM268 816q0 -43 -42 -43t-42 43t42 43t42 -43zM424 816q0 -43 -42 -43q-41 0 -41 43t41 43q42 0 42 -43z" />
    <glyph glyph-name="Igrave" unicode="&#xcc;" horiz-adv-x="221" 
d="M140 712v-712h-59v712h59zM44 892l117 -119h-63l-130 119h76z" />
    <glyph glyph-name="Iacute" unicode="&#xcd;" horiz-adv-x="221" 
d="M140 712v-712h-59v712h59zM263 892l-130 -119h-63l117 119h76z" />
    <glyph glyph-name="Icircumflex" unicode="&#xce;" horiz-adv-x="221" 
d="M140 712v-712h-59v712h59zM111 852l-89 -79h-63l121 115h62l121 -115h-63z" />
    <glyph glyph-name="Idieresis" unicode="&#xcf;" horiz-adv-x="221" 
d="M140 712v-712h-59v712h59zM75 816q0 -43 -42 -43t-42 43t42 43t42 -43zM231 816q0 -43 -42 -43q-41 0 -41 43t41 43q42 0 42 -43z" />
    <glyph glyph-name="Eth" unicode="&#xd0;" horiz-adv-x="696" 
d="M101 334h-71v50h71v328h227q86 0 144.5 -18.5t94.5 -57.5t52 -98.5t16 -141.5v-79q0 -82 -16 -142t-52 -99t-94.5 -57.5t-144.5 -18.5h-227v334zM160 384h189v-50h-189v-280h168q70 0 117.5 13.5t76 44.5t40.5 82t12 125v75q0 73 -12 123.5t-40.5 81.5t-76 45t-117.5 14
h-168v-274z" />
    <glyph glyph-name="Ntilde" unicode="&#xd1;" horiz-adv-x="699" 
d="M135 712l424 -615v615h59v-712h-55l-423 613v-613h-59v712h54zM329 808q-21 11 -31.5 15t-24.5 4q-32 0 -32 -48v-9h-45v9q0 28 6 46.5t16.5 29.5t23.5 15.5t27 4.5q15 0 33 -4.5t44 -18.5l27 -15q21 -11 31.5 -15t24.5 -4q32 0 32 48v9h45v-9q0 -28 -6 -46.5
t-16.5 -29.5t-23.5 -15.5t-27 -4.5q-15 0 -32.5 5t-43.5 18z" />
    <glyph glyph-name="Ograve" unicode="&#xd2;" horiz-adv-x="699" 
d="M349 35q64 0 107.5 12t70.5 41t38.5 77t11.5 119v145q0 71 -11.5 118.5t-38.5 76.5t-70.5 41.5t-107.5 12.5t-107.5 -12t-70 -41t-38 -77t-11.5 -119v-145q0 -71 11.5 -118.5t38.5 -76.5t70.5 -41.5t106.5 -12.5zM349 -18q-81 0 -136 17.5t-88.5 54.5t-48.5 94t-15 135
v147q0 76 14.5 133t48.5 94t89 55.5t136 18.5t136.5 -17.5t89 -54.5t48.5 -94t15 -135v-147q0 -77 -14.5 -133.5t-48.5 -93.5t-89.5 -55.5t-136.5 -18.5zM310 892l117 -119h-63l-130 119h76z" />
    <glyph glyph-name="Oacute" unicode="&#xd3;" horiz-adv-x="699" 
d="M349 35q64 0 107.5 12t70.5 41t38.5 77t11.5 119v145q0 71 -11.5 118.5t-38.5 76.5t-70.5 41.5t-107.5 12.5t-107.5 -12t-70 -41t-38 -77t-11.5 -119v-145q0 -71 11.5 -118.5t38.5 -76.5t70.5 -41.5t106.5 -12.5zM349 -18q-81 0 -136 17.5t-88.5 54.5t-48.5 94t-15 135
v147q0 76 14.5 133t48.5 94t89 55.5t136 18.5t136.5 -17.5t89 -54.5t48.5 -94t15 -135v-147q0 -77 -14.5 -133.5t-48.5 -93.5t-89.5 -55.5t-136.5 -18.5zM462 892l-130 -119h-63l117 119h76z" />
    <glyph glyph-name="Ocircumflex" unicode="&#xd4;" horiz-adv-x="699" 
d="M349 35q64 0 107.5 12t70.5 41t38.5 77t11.5 119v145q0 71 -11.5 118.5t-38.5 76.5t-70.5 41.5t-107.5 12.5t-107.5 -12t-70 -41t-38 -77t-11.5 -119v-145q0 -71 11.5 -118.5t38.5 -76.5t70.5 -41.5t106.5 -12.5zM349 -18q-81 0 -136 17.5t-88.5 54.5t-48.5 94t-15 135
v147q0 76 14.5 133t48.5 94t89 55.5t136 18.5t136.5 -17.5t89 -54.5t48.5 -94t15 -135v-147q0 -77 -14.5 -133.5t-48.5 -93.5t-89.5 -55.5t-136.5 -18.5zM349 852l-89 -79h-63l121 115h62l121 -115h-63z" />
    <glyph glyph-name="Otilde" unicode="&#xd5;" horiz-adv-x="699" 
d="M349 35q64 0 107.5 12t70.5 41t38.5 77t11.5 119v145q0 71 -11.5 118.5t-38.5 76.5t-70.5 41.5t-107.5 12.5t-107.5 -12t-70 -41t-38 -77t-11.5 -119v-145q0 -71 11.5 -118.5t38.5 -76.5t70.5 -41.5t106.5 -12.5zM349 -18q-81 0 -136 17.5t-88.5 54.5t-48.5 94t-15 135
v147q0 76 14.5 133t48.5 94t89 55.5t136 18.5t136.5 -17.5t89 -54.5t48.5 -94t15 -135v-147q0 -77 -14.5 -133.5t-48.5 -93.5t-89.5 -55.5t-136.5 -18.5zM327 808q-21 11 -31.5 15t-24.5 4q-32 0 -32 -48v-9h-45v9q0 28 6 46.5t16.5 29.5t23.5 15.5t27 4.5q15 0 33 -4.5
t44 -18.5l27 -15q21 -11 31.5 -15t24.5 -4q32 0 32 48v9h45v-9q0 -28 -6 -46.5t-16.5 -29.5t-23.5 -15.5t-27 -4.5q-15 0 -32.5 5t-43.5 18z" />
    <glyph glyph-name="Odieresis" unicode="&#xd6;" horiz-adv-x="699" 
d="M349 35q64 0 107.5 12t70.5 41t38.5 77t11.5 119v145q0 71 -11.5 118.5t-38.5 76.5t-70.5 41.5t-107.5 12.5t-107.5 -12t-70 -41t-38 -77t-11.5 -119v-145q0 -71 11.5 -118.5t38.5 -76.5t70.5 -41.5t106.5 -12.5zM349 -18q-81 0 -136 17.5t-88.5 54.5t-48.5 94t-15 135
v147q0 76 14.5 133t48.5 94t89 55.5t136 18.5t136.5 -17.5t89 -54.5t48.5 -94t15 -135v-147q0 -77 -14.5 -133.5t-48.5 -93.5t-89.5 -55.5t-136.5 -18.5zM313 816q0 -43 -42 -43t-42 43t42 43t42 -43zM469 816q0 -43 -42 -43q-41 0 -41 43t41 43q42 0 42 -43z" />
    <glyph glyph-name="multiply" unicode="&#xd7;" horiz-adv-x="595" 
d="M336 341l147 -145l-40 -40l-146 146l-145 -146l-40 39l147 146l-145 146l40 38l144 -144l143 143l40 -38z" />
    <glyph glyph-name="Oslash" unicode="&#xd8;" horiz-adv-x="699" 
d="M349 -18q-95 0 -158 26l-51 -97h-56l64 121q-48 36 -67.5 97.5t-19.5 153.5v147q0 76 14.5 133t48.5 94t89 55.5t136 18.5q95 0 154 -25l51 96h56l-63 -119q49 -35 70 -97.5t21 -155.5v-147q0 -77 -14.5 -133.5t-48.5 -93.5t-89.5 -55.5t-136.5 -18.5zM349 35
q64 0 107.5 12t70.5 41t38.5 77t11.5 119v145q0 75 -13 124t-44 78l-303 -574q48 -22 132 -22zM122 284q0 -74 12 -122t41 -77l303 573q-47 20 -129 20q-64 0 -107.5 -12t-70 -41t-38 -77t-11.5 -119v-145z" />
    <glyph glyph-name="Ugrave" unicode="&#xd9;" horiz-adv-x="670" 
d="M335 -18q-78 0 -128.5 17t-79.5 52t-40.5 88.5t-11.5 125.5v447h59v-447q0 -68 10.5 -112.5t34 -70.5t62 -36.5t94.5 -10.5q59 0 98 11t62 38t32 71t9 110v447h59v-447q0 -76 -13 -129.5t-43.5 -87.5t-80.5 -50t-123 -16zM286 892l117 -119h-63l-130 119h76z" />
    <glyph glyph-name="Uacute" unicode="&#xda;" horiz-adv-x="670" 
d="M335 -18q-78 0 -128.5 17t-79.5 52t-40.5 88.5t-11.5 125.5v447h59v-447q0 -68 10.5 -112.5t34 -70.5t62 -36.5t94.5 -10.5q59 0 98 11t62 38t32 71t9 110v447h59v-447q0 -76 -13 -129.5t-43.5 -87.5t-80.5 -50t-123 -16zM454 892l-130 -119h-63l117 119h76z" />
    <glyph glyph-name="Ucircumflex" unicode="&#xdb;" horiz-adv-x="670" 
d="M335 -18q-78 0 -128.5 17t-79.5 52t-40.5 88.5t-11.5 125.5v447h59v-447q0 -68 10.5 -112.5t34 -70.5t62 -36.5t94.5 -10.5q59 0 98 11t62 38t32 71t9 110v447h59v-447q0 -76 -13 -129.5t-43.5 -87.5t-80.5 -50t-123 -16zM334 852l-89 -79h-63l121 115h62l121 -115h-63z
" />
    <glyph glyph-name="Udieresis" unicode="&#xdc;" horiz-adv-x="670" 
d="M335 -18q-78 0 -128.5 17t-79.5 52t-40.5 88.5t-11.5 125.5v447h59v-447q0 -68 10.5 -112.5t34 -70.5t62 -36.5t94.5 -10.5q59 0 98 11t62 38t32 71t9 110v447h59v-447q0 -76 -13 -129.5t-43.5 -87.5t-80.5 -50t-123 -16zM299 816q0 -43 -42 -43t-42 43t42 43t42 -43z
M455 816q0 -43 -42 -43q-41 0 -41 43t41 43q42 0 42 -43z" />
    <glyph glyph-name="Yacute" unicode="&#xdd;" horiz-adv-x="618" 
d="M82 712l230 -353l227 353h63l-262 -404v-308h-59v308l-265 404h66zM429 892l-130 -119h-63l117 119h76z" />
    <glyph glyph-name="Thorn" unicode="&#xde;" horiz-adv-x="602" 
d="M140 573h178q66 0 113 -10.5t76 -34t42.5 -60.5t13.5 -90v-24q0 -53 -14 -90t-43.5 -60.5t-76 -34t-111.5 -10.5h-178v-159h-59v712h59v-139zM504 373q0 43 -9.5 71.5t-31.5 45t-57.5 23t-87.5 6.5h-178v-306h178q53 0 88.5 6.5t57.5 23t31 45t9 71.5v14z" />
    <glyph glyph-name="germandbls" unicode="&#xdf;" horiz-adv-x="555" 
d="M484 564q0 -60 -27 -99.5t-70 -53.5q28 -6 51.5 -18.5t40.5 -34.5t26.5 -54.5t9.5 -76.5v-16q0 -112 -50.5 -162.5t-164.5 -50.5h-27t-41 2l11 51q11 -1 25.5 -1.5t34.5 -0.5q40 0 69.5 7.5t48 26.5t27.5 50t9 78v15q0 78 -34.5 116.5t-123.5 38.5h-62l10 52h48
q72 0 102.5 33.5t30.5 96.5v8q0 63 -33.5 96t-109.5 33q-77 0 -116 -39.5t-39 -138.5v-522h-58v522q0 121 57 174.5t156 53.5q104 0 151.5 -47.5t47.5 -130.5v-8z" />
    <glyph glyph-name="agrave" unicode="&#xe0;" horiz-adv-x="538" 
d="M103 154q0 -27 6.5 -46t22 -32t42 -19t66.5 -6h170v120q0 32 -10.5 52.5t-30.5 32.5t-49.5 17t-67.5 5h-13q-74 0 -105 -24.5t-31 -86.5v-13zM466 57q0 -34 -12.5 -45.5t-49.5 -11.5h-164q-103 0 -148 36t-45 117v14q0 84 45.5 122t147.5 38q69 0 110 -13t60 -36v60
q0 36 -7 60.5t-25 39t-50 21t-81 6.5q-37 0 -78 -0.5t-74 -2.5l11 52q28 1 66 1.5t75 0.5q60 0 101.5 -9.5t67.5 -30t38 -53t12 -79.5v-287zM343 599h-61l-129 126h71z" />
    <glyph glyph-name="aacute" unicode="&#xe1;" horiz-adv-x="538" 
d="M103 154q0 -27 6.5 -46t22 -32t42 -19t66.5 -6h170v120q0 32 -10.5 52.5t-30.5 32.5t-49.5 17t-67.5 5h-13q-74 0 -105 -24.5t-31 -86.5v-13zM466 57q0 -34 -12.5 -45.5t-49.5 -11.5h-164q-103 0 -148 36t-45 117v14q0 84 45.5 122t147.5 38q69 0 110 -13t60 -36v60
q0 36 -7 60.5t-25 39t-50 21t-81 6.5q-37 0 -78 -0.5t-74 -2.5l11 52q28 1 66 1.5t75 0.5q60 0 101.5 -9.5t67.5 -30t38 -53t12 -79.5v-287zM320 725h71l-129 -126h-61z" />
    <glyph glyph-name="acircumflex" unicode="&#xe2;" horiz-adv-x="538" 
d="M103 154q0 -27 6.5 -46t22 -32t42 -19t66.5 -6h170v120q0 32 -10.5 52.5t-30.5 32.5t-49.5 17t-67.5 5h-13q-74 0 -105 -24.5t-31 -86.5v-13zM466 57q0 -34 -12.5 -45.5t-49.5 -11.5h-164q-103 0 -148 36t-45 117v14q0 84 45.5 122t147.5 38q69 0 110 -13t60 -36v60
q0 36 -7 60.5t-25 39t-50 21t-81 6.5q-37 0 -78 -0.5t-74 -2.5l11 52q28 1 66 1.5t75 0.5q60 0 101.5 -9.5t67.5 -30t38 -53t12 -79.5v-287zM299 723l112 -124h-59l-84 86l-83 -86h-59l112 124h61z" />
    <glyph glyph-name="atilde" unicode="&#xe3;" horiz-adv-x="538" 
d="M103 154q0 -27 6.5 -46t22 -32t42 -19t66.5 -6h170v120q0 32 -10.5 52.5t-30.5 32.5t-49.5 17t-67.5 5h-13q-74 0 -105 -24.5t-31 -86.5v-13zM466 57q0 -34 -12.5 -45.5t-49.5 -11.5h-164q-103 0 -148 36t-45 117v14q0 84 45.5 122t147.5 38q69 0 110 -13t60 -36v60
q0 36 -7 60.5t-25 39t-50 21t-81 6.5q-37 0 -78 -0.5t-74 -2.5l11 52q28 1 66 1.5t75 0.5q60 0 101.5 -9.5t67.5 -30t38 -53t12 -79.5v-287zM237 637q-16 10 -27 13.5t-23 3.5q-14 0 -23 -10t-9 -40v-7h-44v8q0 29 6.5 47.5t17 29t24 14.5t27.5 4t30.5 -4t40.5 -18l32 -18
q16 -10 27 -13.5t24 -3.5q14 0 23 10.5t9 39.5v7h43v-8q0 -29 -6 -47.5t-16.5 -29t-24 -14.5t-27.5 -4t-31 4t-41 18z" />
    <glyph glyph-name="adieresis" unicode="&#xe4;" horiz-adv-x="538" 
d="M103 154q0 -27 6.5 -46t22 -32t42 -19t66.5 -6h170v120q0 32 -10.5 52.5t-30.5 32.5t-49.5 17t-67.5 5h-13q-74 0 -105 -24.5t-31 -86.5v-13zM466 57q0 -34 -12.5 -45.5t-49.5 -11.5h-164q-103 0 -148 36t-45 117v14q0 84 45.5 122t147.5 38q69 0 110 -13t60 -36v60
q0 36 -7 60.5t-25 39t-50 21t-81 6.5q-37 0 -78 -0.5t-74 -2.5l11 52q28 1 66 1.5t75 0.5q60 0 101.5 -9.5t67.5 -30t38 -53t12 -79.5v-287zM235 657q0 -23 -10.5 -32.5t-30.5 -9.5t-30.5 9.5t-10.5 32.5t10.5 32.5t30.5 9.5t30.5 -9.5t10.5 -32.5zM387 657q0 -23 -10 -32.5
t-31 -9.5q-20 0 -30.5 9.5t-10.5 32.5t10 32.5t31 9.5q20 0 30.5 -9.5t10.5 -32.5z" />
    <glyph glyph-name="aring" unicode="&#xe5;" horiz-adv-x="538" 
d="M103 154q0 -27 6.5 -46t22 -32t42 -19t66.5 -6h170v120q0 32 -10.5 52.5t-30.5 32.5t-49.5 17t-67.5 5h-13q-74 0 -105 -24.5t-31 -86.5v-13zM466 57q0 -34 -12.5 -45.5t-49.5 -11.5h-164q-103 0 -148 36t-45 117v14q0 84 45.5 122t147.5 38q69 0 110 -13t60 -36v60
q0 36 -7 60.5t-25 39t-50 21t-81 6.5q-37 0 -78 -0.5t-74 -2.5l11 52q28 1 66 1.5t75 0.5q60 0 101.5 -9.5t67.5 -30t38 -53t12 -79.5v-287zM150 680q0 55 31 83.5t87 28.5t87 -28.5t31 -83.5t-31 -83.5t-87 -28.5t-87 28.5t-31 83.5zM339 680q0 39 -16.5 55t-54.5 16
t-54.5 -16t-16.5 -55t16.5 -55t54.5 -16t54.5 16t16.5 55z" />
    <glyph glyph-name="ae" unicode="&#xe6;" horiz-adv-x="889" 
d="M627 530q51 0 90 -10.5t65.5 -34.5t40.5 -62t14 -93v-9q0 -21 -2.5 -33t-9 -18.5t-17 -8.5t-25.5 -2h-317q0 -65 7.5 -106t26.5 -64t52.5 -31.5t85.5 -8.5h38h32.5t37.5 0.5t54 1.5l-11 -51q-39 -1 -72.5 -1.5t-77.5 -0.5q-91 0 -139.5 25t-64.5 79q-18 -50 -66 -76
t-127 -26h-9q-91 0 -138.5 35t-47.5 116v8q0 80 46.5 115t146.5 35h170v27q0 43 -9.5 68.5t-30.5 39t-55 17.5t-84 4q-31 0 -67.5 -0.5t-68.5 -2.5l11 52q33 1 67.5 1.5t73.5 0.5q83 0 128.5 -17t66.5 -59q23 47 70 68.5t115 21.5zM241 51q43 0 75 7t53 26.5t31 54t10 88.5
v33h-169q-78 0 -108 -22t-30 -78v-8q0 -54 30.5 -77.5t97.5 -23.5h10zM627 481q-43 0 -73.5 -8t-50 -28t-28.5 -53t-9 -84h317v18q0 46 -9 76t-28.5 47.5t-49 24.5t-69.5 7z" />
    <glyph glyph-name="ccedilla" unicode="&#xe7;" horiz-adv-x="464" 
d="M279 465q-48 0 -80.5 -7.5t-52 -27.5t-27.5 -55t-8 -90v-56q0 -51 8 -85.5t27 -55.5t51.5 -30t81.5 -9q42 0 75.5 0.5t61.5 1.5l-11 -51q-23 -1 -58.5 -1.5t-67.5 -0.5q-65 0 -108.5 13.5t-70 41.5t-37.5 71.5t-11 104.5v56q0 64 12.5 108t40 71.5t70.5 39.5t104 12h60
t76 -2l-11 -51q-38 2 -69 2h-56zM287 -118q0 21 -11.5 29.5t-42.5 8.5h-26.5t-29.5 -1l11 41q20 1 31 1h21q52 0 75.5 -17.5t23.5 -57.5v-7q0 -41 -23.5 -59.5t-81.5 -18.5q-29 0 -53 1t-34 2l12 41q16 -1 38 -1.5t36 -0.5q31 0 42.5 8.5t11.5 30.5z" />
    <glyph glyph-name="egrave" unicode="&#xe8;" horiz-adv-x="531" 
d="M110 242q0 -57 7 -94t25 -59t49.5 -31t81.5 -9q43 0 83 0.5t86 1.5l-11 -51q-34 -1 -76.5 -1.5t-81.5 -0.5q-66 0 -109 15t-67.5 44.5t-34.5 73.5t-10 102v63q0 63 12.5 107.5t39 72.5t67.5 41t97 13q112 0 161.5 -48.5t49.5 -153.5v-24q0 -21 -2.5 -33t-8.5 -18.5
t-16.5 -8.5t-25.5 -2h-316zM267 481q-42 0 -72 -8t-49 -29t-27.5 -58t-8.5 -95h315v34q0 45 -9 75t-28 48t-49 25.5t-72 7.5zM351 599h-61l-129 126h71z" />
    <glyph glyph-name="eacute" unicode="&#xe9;" horiz-adv-x="531" 
d="M110 242q0 -57 7 -94t25 -59t49.5 -31t81.5 -9q43 0 83 0.5t86 1.5l-11 -51q-34 -1 -76.5 -1.5t-81.5 -0.5q-66 0 -109 15t-67.5 44.5t-34.5 73.5t-10 102v63q0 63 12.5 107.5t39 72.5t67.5 41t97 13q112 0 161.5 -48.5t49.5 -153.5v-24q0 -21 -2.5 -33t-8.5 -18.5
t-16.5 -8.5t-25.5 -2h-316zM267 481q-42 0 -72 -8t-49 -29t-27.5 -58t-8.5 -95h315v34q0 45 -9 75t-28 48t-49 25.5t-72 7.5zM322 725h71l-129 -126h-61z" />
    <glyph glyph-name="ecircumflex" unicode="&#xea;" horiz-adv-x="531" 
d="M110 242q0 -57 7 -94t25 -59t49.5 -31t81.5 -9q43 0 83 0.5t86 1.5l-11 -51q-34 -1 -76.5 -1.5t-81.5 -0.5q-66 0 -109 15t-67.5 44.5t-34.5 73.5t-10 102v63q0 63 12.5 107.5t39 72.5t67.5 41t97 13q112 0 161.5 -48.5t49.5 -153.5v-24q0 -21 -2.5 -33t-8.5 -18.5
t-16.5 -8.5t-25.5 -2h-316zM267 481q-42 0 -72 -8t-49 -29t-27.5 -58t-8.5 -95h315v34q0 45 -9 75t-28 48t-49 25.5t-72 7.5zM298 723l112 -124h-59l-84 86l-83 -86h-59l112 124h61z" />
    <glyph glyph-name="edieresis" unicode="&#xeb;" horiz-adv-x="531" 
d="M110 242q0 -57 7 -94t25 -59t49.5 -31t81.5 -9q43 0 83 0.5t86 1.5l-11 -51q-34 -1 -76.5 -1.5t-81.5 -0.5q-66 0 -109 15t-67.5 44.5t-34.5 73.5t-10 102v63q0 63 12.5 107.5t39 72.5t67.5 41t97 13q112 0 161.5 -48.5t49.5 -153.5v-24q0 -21 -2.5 -33t-8.5 -18.5
t-16.5 -8.5t-25.5 -2h-316zM267 481q-42 0 -72 -8t-49 -29t-27.5 -58t-8.5 -95h315v34q0 45 -9 75t-28 48t-49 25.5t-72 7.5zM233 657q0 -23 -10.5 -32.5t-30.5 -9.5t-30.5 9.5t-10.5 32.5t10.5 32.5t30.5 9.5t30.5 -9.5t10.5 -32.5zM385 657q0 -23 -10 -32.5t-31 -9.5
q-20 0 -30.5 9.5t-10.5 32.5t10 32.5t31 9.5q20 0 30.5 -9.5t10.5 -32.5z" />
    <glyph glyph-name="igrave" unicode="&#xec;" horiz-adv-x="202" 
d="M72 514h58v-514h-58v514zM144 599h-61l-129 126h71z" />
    <glyph glyph-name="iacute" unicode="&#xed;" horiz-adv-x="202" 
d="M72 514h58v-514h-58v514zM179 725h71l-129 -126h-61z" />
    <glyph glyph-name="icircumflex" unicode="&#xee;" horiz-adv-x="202" 
d="M72 514h58v-514h-58v514zM133 723l112 -124h-59l-84 86l-83 -86h-59l112 124h61z" />
    <glyph glyph-name="idieresis" unicode="&#xef;" horiz-adv-x="202" 
d="M72 514h58v-514h-58v514zM67 657q0 -23 -10.5 -32.5t-30.5 -9.5t-30.5 9.5t-10.5 32.5t10.5 32.5t30.5 9.5t30.5 -9.5t10.5 -32.5zM219 657q0 -23 -10 -32.5t-31 -9.5q-20 0 -30.5 9.5t-10.5 32.5t10 32.5t31 9.5q20 0 30.5 -9.5t10.5 -32.5z" />
    <glyph glyph-name="eth" unicode="&#xf0;" horiz-adv-x="570" 
d="M524 629l-77 -27q27 -44 42 -103.5t15 -142.5v-133q0 -68 -14 -114t-42.5 -74t-71.5 -40t-102 -12q-60 0 -102.5 14t-69 43t-38.5 73t-12 104v25q0 67 15 112t43.5 72t69.5 38.5t92 11.5q59 0 103.5 -17.5t70.5 -55.5q-2 59 -15 103t-37 78l-158 -57l-14 42l142 50
q-23 24 -53 42t-66 32l36 41q41 -17 76 -40t63 -55l90 33zM446 261q0 52 -12.5 84t-35 50t-53.5 24t-68 6q-44 0 -75.5 -8t-51.5 -29t-30 -57t-10 -91v-21q0 -53 8.5 -88.5t28 -57t51 -30.5t76.5 -9t77.5 7t53.5 28t31 58.5t10 97.5v36z" />
    <glyph glyph-name="ntilde" unicode="&#xf1;" horiz-adv-x="571" 
d="M72 0v343q0 43 9 78t33 59t65.5 37t106.5 13t106.5 -12.5t65 -36.5t32.5 -59t9 -79v-343h-58v337q0 35 -4.5 61.5t-20.5 44.5t-47 27t-83 9q-53 0 -84 -9.5t-47 -27.5t-20.5 -44.5t-4.5 -60.5v-337h-58zM260 637q-16 10 -27 13.5t-23 3.5q-14 0 -23 -10t-9 -40v-7h-44v8
q0 29 6.5 47.5t17 29t24 14.5t27.5 4t30.5 -4t40.5 -18l32 -18q16 -10 27 -13.5t24 -3.5q14 0 23 10.5t9 39.5v7h43v-8q0 -29 -6 -47.5t-16.5 -29t-24 -14.5t-27.5 -4t-31 4t-41 18z" />
    <glyph glyph-name="ograve" unicode="&#xf2;" horiz-adv-x="556" 
d="M278 530q59 0 102 -11.5t70.5 -38.5t40.5 -72.5t13 -112.5v-76q0 -67 -13 -112t-40.5 -72.5t-70.5 -39t-102 -11.5t-102 11.5t-70.5 39t-40.5 72.5t-13 112v76q0 67 13 112t40.5 72.5t70.5 39t102 11.5zM445 295q0 55 -9 91t-29 56.5t-52 28.5t-77 8q-46 0 -77.5 -7.5
t-51.5 -28t-29 -56t-9 -92.5v-76q0 -56 9 -91.5t29 -56t51.5 -28.5t77.5 -8t77.5 7.5t51.5 28t29 56t9 92.5v76zM343 599h-61l-129 126h71z" />
    <glyph glyph-name="oacute" unicode="&#xf3;" horiz-adv-x="556" 
d="M278 530q59 0 102 -11.5t70.5 -38.5t40.5 -72.5t13 -112.5v-76q0 -67 -13 -112t-40.5 -72.5t-70.5 -39t-102 -11.5t-102 11.5t-70.5 39t-40.5 72.5t-13 112v76q0 67 13 112t40.5 72.5t70.5 39t102 11.5zM445 295q0 55 -9 91t-29 56.5t-52 28.5t-77 8q-46 0 -77.5 -7.5
t-51.5 -28t-29 -56t-9 -92.5v-76q0 -56 9 -91.5t29 -56t51.5 -28.5t77.5 -8t77.5 7.5t51.5 28t29 56t9 92.5v76zM330 725h71l-129 -126h-61z" />
    <glyph glyph-name="ocircumflex" unicode="&#xf4;" horiz-adv-x="556" 
d="M278 530q59 0 102 -11.5t70.5 -38.5t40.5 -72.5t13 -112.5v-76q0 -67 -13 -112t-40.5 -72.5t-70.5 -39t-102 -11.5t-102 11.5t-70.5 39t-40.5 72.5t-13 112v76q0 67 13 112t40.5 72.5t70.5 39t102 11.5zM445 295q0 55 -9 91t-29 56.5t-52 28.5t-77 8q-46 0 -77.5 -7.5
t-51.5 -28t-29 -56t-9 -92.5v-76q0 -56 9 -91.5t29 -56t51.5 -28.5t77.5 -8t77.5 7.5t51.5 28t29 56t9 92.5v76zM309 723l112 -124h-59l-84 86l-83 -86h-59l112 124h61z" />
    <glyph glyph-name="otilde" unicode="&#xf5;" horiz-adv-x="556" 
d="M278 530q59 0 102 -11.5t70.5 -38.5t40.5 -72.5t13 -112.5v-76q0 -67 -13 -112t-40.5 -72.5t-70.5 -39t-102 -11.5t-102 11.5t-70.5 39t-40.5 72.5t-13 112v76q0 67 13 112t40.5 72.5t70.5 39t102 11.5zM445 295q0 55 -9 91t-29 56.5t-52 28.5t-77 8q-46 0 -77.5 -7.5
t-51.5 -28t-29 -56t-9 -92.5v-76q0 -56 9 -91.5t29 -56t51.5 -28.5t77.5 -8t77.5 7.5t51.5 28t29 56t9 92.5v76zM252 637q-16 10 -27 13.5t-23 3.5q-14 0 -23 -10t-9 -40v-7h-44v8q0 29 6.5 47.5t17 29t24 14.5t27.5 4t30.5 -4t40.5 -18l32 -18q16 -10 27 -13.5t24 -3.5
q14 0 23 10.5t9 39.5v7h43v-8q0 -29 -6 -47.5t-16.5 -29t-24 -14.5t-27.5 -4t-31 4t-41 18z" />
    <glyph glyph-name="odieresis" unicode="&#xf6;" horiz-adv-x="556" 
d="M278 530q59 0 102 -11.5t70.5 -38.5t40.5 -72.5t13 -112.5v-76q0 -67 -13 -112t-40.5 -72.5t-70.5 -39t-102 -11.5t-102 11.5t-70.5 39t-40.5 72.5t-13 112v76q0 67 13 112t40.5 72.5t70.5 39t102 11.5zM445 295q0 55 -9 91t-29 56.5t-52 28.5t-77 8q-46 0 -77.5 -7.5
t-51.5 -28t-29 -56t-9 -92.5v-76q0 -56 9 -91.5t29 -56t51.5 -28.5t77.5 -8t77.5 7.5t51.5 28t29 56t9 92.5v76zM243 657q0 -23 -10.5 -32.5t-30.5 -9.5t-30.5 9.5t-10.5 32.5t10.5 32.5t30.5 9.5t30.5 -9.5t10.5 -32.5zM395 657q0 -23 -10 -32.5t-31 -9.5q-20 0 -30.5 9.5
t-10.5 32.5t10 32.5t31 9.5q20 0 30.5 -9.5t10.5 -32.5z" />
    <glyph glyph-name="divide" unicode="&#xf7;" horiz-adv-x="595" 
d="M297 223q43 0 43 -46q0 -45 -43 -45t-43 45q0 46 43 46zM297 552q43 0 43 -46q0 -45 -43 -45t-43 45q0 46 43 46zM89 368h417v-52h-417v52z" />
    <glyph glyph-name="oslash" unicode="&#xf8;" horiz-adv-x="556" 
d="M278 530q70 0 115 -16l40 73h52l-51 -93q36 -26 53 -74t17 -125v-76q0 -67 -13 -112t-40.5 -72.5t-70.5 -39t-102 -11.5q-72 0 -117 16l-39 -70h-52l50 91q-35 26 -51.5 74t-16.5 124v76q0 67 13 112t40.5 72.5t70.5 39t102 11.5zM445 295q0 57 -9.5 92.5t-29.5 55.5
l-219 -396q18 -7 40 -9.5t51 -2.5q46 0 77.5 7.5t51.5 28t29 56t9 92.5v76zM111 219q0 -56 8.5 -91.5t28.5 -55.5l219 395q-18 7 -40 9.5t-49 2.5q-46 0 -77.5 -7.5t-51.5 -28t-29 -56t-9 -92.5v-76z" />
    <glyph glyph-name="ugrave" unicode="&#xf9;" horiz-adv-x="566" 
d="M283 -16q-62 0 -103 12t-65 35t-33.5 58t-9.5 82v343h58v-337q0 -35 5 -61.5t20.5 -44.5t46 -27t81.5 -9t81.5 8.5t46 26t20.5 44.5t5 63v337h58v-343q0 -45 -9.5 -79.5t-33 -58.5t-64.5 -36.5t-104 -12.5zM354 599h-61l-129 126h71z" />
    <glyph glyph-name="uacute" unicode="&#xfa;" horiz-adv-x="566" 
d="M283 -16q-62 0 -103 12t-65 35t-33.5 58t-9.5 82v343h58v-337q0 -35 5 -61.5t20.5 -44.5t46 -27t81.5 -9t81.5 8.5t46 26t20.5 44.5t5 63v337h58v-343q0 -45 -9.5 -79.5t-33 -58.5t-64.5 -36.5t-104 -12.5zM329 725h71l-129 -126h-61z" />
    <glyph glyph-name="ucircumflex" unicode="&#xfb;" horiz-adv-x="566" 
d="M283 -16q-62 0 -103 12t-65 35t-33.5 58t-9.5 82v343h58v-337q0 -35 5 -61.5t20.5 -44.5t46 -27t81.5 -9t81.5 8.5t46 26t20.5 44.5t5 63v337h58v-343q0 -45 -9.5 -79.5t-33 -58.5t-64.5 -36.5t-104 -12.5zM314 723l112 -124h-59l-84 86l-83 -86h-59l112 124h61z" />
    <glyph glyph-name="udieresis" unicode="&#xfc;" horiz-adv-x="566" 
d="M283 -16q-62 0 -103 12t-65 35t-33.5 58t-9.5 82v343h58v-337q0 -35 5 -61.5t20.5 -44.5t46 -27t81.5 -9t81.5 8.5t46 26t20.5 44.5t5 63v337h58v-343q0 -45 -9.5 -79.5t-33 -58.5t-64.5 -36.5t-104 -12.5zM248 657q0 -23 -10.5 -32.5t-30.5 -9.5t-30.5 9.5t-10.5 32.5
t10.5 32.5t30.5 9.5t30.5 -9.5t10.5 -32.5zM400 657q0 -23 -10 -32.5t-31 -9.5q-20 0 -30.5 9.5t-10.5 32.5t10 32.5t31 9.5q20 0 30.5 -9.5t10.5 -32.5z" />
    <glyph glyph-name="yacute" unicode="&#xfd;" horiz-adv-x="566" 
d="M114 -123q33 -2 69 -2.5t81 -0.5q48 0 80.5 7.5t53 26t29 49.5t8.5 78v40q-20 -29 -57.5 -43t-102.5 -14q-57 0 -96 11t-63 33.5t-34 57.5t-10 84v310h58v-303q0 -35 4.5 -61.5t20 -44.5t45 -27t79.5 -9q49 0 79.5 8.5t47.5 26t23.5 45t6.5 66.5v299h58v-479
q0 -59 -12.5 -99.5t-40 -65.5t-71 -36t-105.5 -11q-46 0 -84.5 0.5t-77.5 2.5zM329 725h71l-129 -126h-61z" />
    <glyph glyph-name="thorn" unicode="&#xfe;" horiz-adv-x="573" 
d="M462 295q0 57 -10 93t-30 56.5t-50.5 27.5t-71.5 7q-35 0 -66 -5.5t-54 -21.5t-36.5 -45.5t-13.5 -78.5v-128q0 -49 12 -81t34 -50.5t53.5 -26t69.5 -7.5q49 0 81 9.5t50 31.5t25 57.5t7 87.5v74zM521 221q0 -68 -13 -113t-40.5 -73t-69.5 -39.5t-99 -11.5
q-59 0 -102.5 17.5t-66.5 52.5v-229h-58v918h58v-281q22 37 66.5 52.5t107.5 15.5q56 0 97 -12t67.5 -39.5t39.5 -72t13 -109.5v-76z" />
    <glyph glyph-name="ydieresis" unicode="&#xff;" horiz-adv-x="566" 
d="M114 -123q33 -2 69 -2.5t81 -0.5q48 0 80.5 7.5t53 26t29 49.5t8.5 78v40q-20 -29 -57.5 -43t-102.5 -14q-57 0 -96 11t-63 33.5t-34 57.5t-10 84v310h58v-303q0 -35 4.5 -61.5t20 -44.5t45 -27t79.5 -9q49 0 79.5 8.5t47.5 26t23.5 45t6.5 66.5v299h58v-479
q0 -59 -12.5 -99.5t-40 -65.5t-71 -36t-105.5 -11q-46 0 -84.5 0.5t-77.5 2.5zM248 657q0 -23 -10.5 -32.5t-30.5 -9.5t-30.5 9.5t-10.5 32.5t10.5 32.5t30.5 9.5t30.5 -9.5t10.5 -32.5zM400 657q0 -23 -10 -32.5t-31 -9.5q-20 0 -30.5 9.5t-10.5 32.5t10 32.5t31 9.5
q20 0 30.5 -9.5t10.5 -32.5z" />
    <glyph glyph-name="Amacron" unicode="&#x100;" horiz-adv-x="657" 
d="M486 228h-319l-85 -228h-60l276 712h62l275 -712h-63zM186 281h280l-140 369zM198 840h261v-48h-261v48z" />
    <glyph glyph-name="amacron" unicode="&#x101;" horiz-adv-x="538" 
d="M103 154q0 -27 6.5 -46t22 -32t42 -19t66.5 -6h170v120q0 32 -10.5 52.5t-30.5 32.5t-49.5 17t-67.5 5h-13q-74 0 -105 -24.5t-31 -86.5v-13zM466 57q0 -34 -12.5 -45.5t-49.5 -11.5h-164q-103 0 -148 36t-45 117v14q0 84 45.5 122t147.5 38q69 0 110 -13t60 -36v60
q0 36 -7 60.5t-25 39t-50 21t-81 6.5q-37 0 -78 -0.5t-74 -2.5l11 52q28 1 66 1.5t75 0.5q60 0 101.5 -9.5t67.5 -30t38 -53t12 -79.5v-287zM141 674h261v-48h-261v48z" />
    <glyph glyph-name="Abreve" unicode="&#x102;" horiz-adv-x="657" 
d="M486 228h-319l-85 -228h-60l276 712h62l275 -712h-63zM186 281h280l-140 369zM328 771q-75 0 -109.5 30.5t-34.5 92.5h52q0 -40 20 -60t72 -20t72 20t20 60h52q0 -62 -34.5 -92.5t-109.5 -30.5z" />
    <glyph glyph-name="abreve" unicode="&#x103;" horiz-adv-x="538" 
d="M103 154q0 -27 6.5 -46t22 -32t42 -19t66.5 -6h170v120q0 32 -10.5 52.5t-30.5 32.5t-49.5 17t-67.5 5h-13q-74 0 -105 -24.5t-31 -86.5v-13zM466 57q0 -34 -12.5 -45.5t-49.5 -11.5h-164q-103 0 -148 36t-45 117v14q0 84 45.5 122t147.5 38q69 0 110 -13t60 -36v60
q0 36 -7 60.5t-25 39t-50 21t-81 6.5q-37 0 -78 -0.5t-74 -2.5l11 52q28 1 66 1.5t75 0.5q60 0 101.5 -9.5t67.5 -30t38 -53t12 -79.5v-287zM270 596q-75 0 -109 31t-34 92h51q0 -38 20 -58.5t72 -20.5t72 20.5t20 58.5h51q0 -61 -34 -92t-109 -31z" />
    <glyph glyph-name="Aogonek" unicode="&#x104;" horiz-adv-x="657" 
d="M624 -183h-43q-45 0 -66.5 15t-21.5 48q0 32 21 63t58 57l-86 228h-319l-85 -228h-60l276 712h62l275 -712q-48 -31 -68 -58t-20 -50q0 -14 9.5 -20.5t33.5 -6.5h45zM186 281h280l-140 369z" />
    <glyph glyph-name="aogonek" unicode="&#x105;" horiz-adv-x="538" 
d="M448 6q-35 -29 -53.5 -58t-18.5 -56q0 -14 9.5 -20.5t33.5 -6.5h45l-11 -48h-43q-45 0 -66 15t-21 48q0 31 18 63.5t44 56.5h-145q-103 0 -148 36t-45 117v14q0 84 45.5 122t147.5 38q69 0 110 -13t60 -36v60q0 36 -7 60.5t-25 39t-50 21t-81 6.5q-37 0 -78 -0.5
t-74 -2.5l11 52q28 1 66 1.5t75 0.5q60 0 101.5 -9.5t67.5 -30t38 -53t12 -79.5v-287q0 -17 -2.5 -28.5t-15.5 -22.5zM103 154q0 -27 6.5 -46t22 -32t42 -19t66.5 -6h170v120q0 32 -10.5 52.5t-30.5 32.5t-49.5 17t-67.5 5h-13q-74 0 -105 -24.5t-31 -86.5v-13z" />
    <glyph glyph-name="Cacute" unicode="&#x106;" horiz-adv-x="565" 
d="M361 52q42 0 80 0.5t74 1.5l-12 -54q-31 -1 -67.5 -1.5t-74.5 -0.5q-86 0 -143.5 15.5t-92 51t-49.5 92t-15 139.5v121q0 83 15 139.5t50 91.5t92.5 50.5t143.5 15.5h33h33.5t38.5 -0.5t49 -1.5l-12 -54q-43 2 -76 2h-67q-74 0 -121 -12t-73 -40t-35.5 -74.5t-9.5 -116.5
v-121q0 -72 11 -119.5t38.5 -75t73.5 -38.5t116 -11zM456 892l-130 -119h-63l117 119h76z" />
    <glyph glyph-name="cacute" unicode="&#x107;" horiz-adv-x="464" 
d="M279 465q-48 0 -80.5 -7.5t-52 -27.5t-27.5 -55t-8 -90v-56q0 -51 8 -85.5t27 -55.5t51.5 -30t81.5 -9q42 0 75.5 0.5t61.5 1.5l-11 -51q-23 -1 -58.5 -1.5t-67.5 -0.5q-65 0 -108.5 13.5t-70 41.5t-37.5 71.5t-11 104.5v56q0 64 12.5 108t40 71.5t70.5 39.5t104 12h60
t76 -2l-11 -51q-38 2 -69 2h-56zM321 725h71l-129 -126h-61z" />
    <glyph glyph-name="Ccircumflex" unicode="&#x108;" horiz-adv-x="565" 
d="M361 52q42 0 80 0.5t74 1.5l-12 -54q-31 -1 -67.5 -1.5t-74.5 -0.5q-86 0 -143.5 15.5t-92 51t-49.5 92t-15 139.5v121q0 83 15 139.5t50 91.5t92.5 50.5t143.5 15.5h33h33.5t38.5 -0.5t49 -1.5l-12 -54q-43 2 -76 2h-67q-74 0 -121 -12t-73 -40t-35.5 -74.5t-9.5 -116.5
v-121q0 -72 11 -119.5t38.5 -75t73.5 -38.5t116 -11zM328 852l-89 -79h-63l121 115h62l121 -115h-63z" />
    <glyph glyph-name="ccircumflex" unicode="&#x109;" horiz-adv-x="464" 
d="M279 465q-48 0 -80.5 -7.5t-52 -27.5t-27.5 -55t-8 -90v-56q0 -51 8 -85.5t27 -55.5t51.5 -30t81.5 -9q42 0 75.5 0.5t61.5 1.5l-11 -51q-23 -1 -58.5 -1.5t-67.5 -0.5q-65 0 -108.5 13.5t-70 41.5t-37.5 71.5t-11 104.5v56q0 64 12.5 108t40 71.5t70.5 39.5t104 12h60
t76 -2l-11 -51q-38 2 -69 2h-56zM293 723l112 -124h-59l-84 86l-83 -86h-59l112 124h61z" />
    <glyph glyph-name="Cdotaccent" unicode="&#x10a;" horiz-adv-x="565" 
d="M361 52q42 0 80 0.5t74 1.5l-12 -54q-31 -1 -67.5 -1.5t-74.5 -0.5q-86 0 -143.5 15.5t-92 51t-49.5 92t-15 139.5v121q0 83 15 139.5t50 91.5t92.5 50.5t143.5 15.5h33h33.5t38.5 -0.5t49 -1.5l-12 -54q-43 2 -76 2h-67q-74 0 -121 -12t-73 -40t-35.5 -74.5t-9.5 -116.5
v-121q0 -72 11 -119.5t38.5 -75t73.5 -38.5t116 -11zM377 816q0 -43 -42 -43q-41 0 -41 43t41 43q42 0 42 -43z" />
    <glyph glyph-name="cdotaccent" unicode="&#x10b;" horiz-adv-x="464" 
d="M279 465q-48 0 -80.5 -7.5t-52 -27.5t-27.5 -55t-8 -90v-56q0 -51 8 -85.5t27 -55.5t51.5 -30t81.5 -9q42 0 75.5 0.5t61.5 1.5l-11 -51q-23 -1 -58.5 -1.5t-67.5 -0.5q-65 0 -108.5 13.5t-70 41.5t-37.5 71.5t-11 104.5v56q0 64 12.5 108t40 71.5t70.5 39.5t104 12h60
t76 -2l-11 -51q-38 2 -69 2h-56zM311 659q0 -24 -11 -34t-32 -10t-32 10t-11 34q0 22 10 33t33 11t33 -11t10 -33z" />
    <glyph glyph-name="Ccaron" unicode="&#x10c;" horiz-adv-x="565" 
d="M361 52q42 0 80 0.5t74 1.5l-12 -54q-31 -1 -67.5 -1.5t-74.5 -0.5q-86 0 -143.5 15.5t-92 51t-49.5 92t-15 139.5v121q0 83 15 139.5t50 91.5t92.5 50.5t143.5 15.5h33h33.5t38.5 -0.5t49 -1.5l-12 -54q-43 2 -76 2h-67q-74 0 -121 -12t-73 -40t-35.5 -74.5t-9.5 -116.5
v-121q0 -72 11 -119.5t38.5 -75t73.5 -38.5t116 -11zM244 888l89 -80l89 80h64l-122 -115h-62l-121 115h63z" />
    <glyph glyph-name="ccaron" unicode="&#x10d;" horiz-adv-x="464" 
d="M279 465q-48 0 -80.5 -7.5t-52 -27.5t-27.5 -55t-8 -90v-56q0 -51 8 -85.5t27 -55.5t51.5 -30t81.5 -9q42 0 75.5 0.5t61.5 1.5l-11 -51q-23 -1 -58.5 -1.5t-67.5 -0.5q-65 0 -108.5 13.5t-70 41.5t-37.5 71.5t-11 104.5v56q0 64 12.5 108t40 71.5t70.5 39.5t104 12h60
t76 -2l-11 -51q-38 2 -69 2h-56zM233 599l-112 124h59l83 -87l84 87h59l-112 -124h-61z" />
    <glyph glyph-name="Dcaron" unicode="&#x10e;" horiz-adv-x="676" 
d="M81 712h227q86 0 144.5 -18.5t94.5 -57.5t52 -98.5t16 -141.5v-79q0 -82 -16 -142t-52 -99t-94.5 -57.5t-144.5 -18.5h-227v712zM140 54h168q70 0 117.5 13.5t76 44.5t40.5 82t12 125v75q0 73 -12 123.5t-40.5 81.5t-76 45t-117.5 14h-168v-604zM233 888l89 -80l89 80h64
l-122 -115h-62l-121 115h63z" />
    <glyph glyph-name="dcaron" unicode="&#x10f;" horiz-adv-x="611" 
d="M438 51v271q0 51 -12.5 82t-35 47.5t-53 22t-65.5 5.5q-43 0 -73.5 -8t-50 -28t-28.5 -54.5t-9 -87.5v-65q0 -55 8 -91t27.5 -57t51.5 -29t80 -8h160zM276 0q-60 0 -102.5 12t-69.5 39.5t-39.5 73t-12.5 111.5v65q0 125 54.5 177t162.5 52q64 0 105 -16.5t64 -45.5v275
h58v-686q0 -34 -12 -45.5t-50 -11.5h-158zM618 743l-21 -175h-41l7 175h55z" />
    <glyph glyph-name="Dcroat" unicode="&#x110;" horiz-adv-x="696" 
d="M101 334h-71v50h71v328h227q86 0 144.5 -18.5t94.5 -57.5t52 -98.5t16 -141.5v-79q0 -82 -16 -142t-52 -99t-94.5 -57.5t-144.5 -18.5h-227v334zM160 384h189v-50h-189v-280h168q70 0 117.5 13.5t76 44.5t40.5 82t12 125v75q0 73 -12 123.5t-40.5 81.5t-76 45t-117.5 14
h-168v-274z" />
    <glyph glyph-name="dcroat" unicode="&#x111;" horiz-adv-x="568" 
d="M276 0q-60 0 -102.5 12t-69.5 39.5t-39.5 73t-12.5 111.5v65q0 125 54.5 177t162.5 52q64 0 105 -16.5t64 -45.5v142h-207v47h207v86h58v-86h70v-47h-70v-553q0 -34 -12 -45.5t-50 -11.5h-158zM438 51v271q0 51 -12.5 82t-35 47.5t-53 22t-65.5 5.5q-43 0 -73.5 -8
t-50 -28t-28.5 -54.5t-9 -87.5v-65q0 -55 8 -91t27.5 -57t51.5 -29t80 -8h160z" />
    <glyph glyph-name="Emacron" unicode="&#x112;" horiz-adv-x="593" 
d="M538 712l-12 -54h-386v-265h373l-12 -54h-361v-285h398l-12 -54h-445v712h457zM175 840h261v-48h-261v48z" />
    <glyph glyph-name="emacron" unicode="&#x113;" horiz-adv-x="531" 
d="M110 242q0 -57 7 -94t25 -59t49.5 -31t81.5 -9q43 0 83 0.5t86 1.5l-11 -51q-34 -1 -76.5 -1.5t-81.5 -0.5q-66 0 -109 15t-67.5 44.5t-34.5 73.5t-10 102v63q0 63 12.5 107.5t39 72.5t67.5 41t97 13q112 0 161.5 -48.5t49.5 -153.5v-24q0 -21 -2.5 -33t-8.5 -18.5
t-16.5 -8.5t-25.5 -2h-316zM267 481q-42 0 -72 -8t-49 -29t-27.5 -58t-8.5 -95h315v34q0 45 -9 75t-28 48t-49 25.5t-72 7.5zM137 674h261v-48h-261v48z" />
    <glyph glyph-name="Ebreve" unicode="&#x114;" horiz-adv-x="593" 
d="M538 712l-12 -54h-386v-265h373l-12 -54h-361v-285h398l-12 -54h-445v712h457zM315 771q-75 0 -109.5 30.5t-34.5 92.5h52q0 -40 20 -60t72 -20t72 20t20 60h52q0 -62 -34.5 -92.5t-109.5 -30.5z" />
    <glyph glyph-name="ebreve" unicode="&#x115;" horiz-adv-x="531" 
d="M110 242q0 -57 7 -94t25 -59t49.5 -31t81.5 -9q43 0 83 0.5t86 1.5l-11 -51q-34 -1 -76.5 -1.5t-81.5 -0.5q-66 0 -109 15t-67.5 44.5t-34.5 73.5t-10 102v63q0 63 12.5 107.5t39 72.5t67.5 41t97 13q112 0 161.5 -48.5t49.5 -153.5v-24q0 -21 -2.5 -33t-8.5 -18.5
t-16.5 -8.5t-25.5 -2h-316zM267 481q-42 0 -72 -8t-49 -29t-27.5 -58t-8.5 -95h315v34q0 45 -9 75t-28 48t-49 25.5t-72 7.5zM268 596q-75 0 -109 31t-34 92h51q0 -38 20 -58.5t72 -20.5t72 20.5t20 58.5h51q0 -61 -34 -92t-109 -31z" />
    <glyph glyph-name="Edotaccent" unicode="&#x116;" horiz-adv-x="593" 
d="M538 712l-12 -54h-386v-265h373l-12 -54h-361v-285h398l-12 -54h-445v712h457zM347 816q0 -43 -42 -43q-41 0 -41 43t41 43q42 0 42 -43z" />
    <glyph glyph-name="edotaccent" unicode="&#x117;" horiz-adv-x="531" 
d="M110 242q0 -57 7 -94t25 -59t49.5 -31t81.5 -9q43 0 83 0.5t86 1.5l-11 -51q-34 -1 -76.5 -1.5t-81.5 -0.5q-66 0 -109 15t-67.5 44.5t-34.5 73.5t-10 102v63q0 63 12.5 107.5t39 72.5t67.5 41t97 13q112 0 161.5 -48.5t49.5 -153.5v-24q0 -21 -2.5 -33t-8.5 -18.5
t-16.5 -8.5t-25.5 -2h-316zM267 481q-42 0 -72 -8t-49 -29t-27.5 -58t-8.5 -95h315v34q0 45 -9 75t-28 48t-49 25.5t-72 7.5zM307 659q0 -24 -11 -34t-32 -10t-32 10t-11 34q0 22 10 33t33 11t33 -11t10 -33z" />
    <glyph glyph-name="Eogonek" unicode="&#x118;" horiz-adv-x="593" 
d="M515 -183h-43q-45 0 -66.5 15t-21.5 48q0 31 20 62t61 58h-384v712h457l-12 -54h-386v-265h373l-12 -54h-361v-285h398l-12 -54q-48 -31 -68 -58t-20 -50q0 -14 9.5 -20.5t33.5 -6.5h45z" />
    <glyph glyph-name="eogonek" unicode="&#x119;" horiz-adv-x="531" 
d="M431 0q-48 -31 -68 -58t-20 -50q0 -14 9.5 -20.5t33.5 -6.5h45l-11 -48h-43q-45 0 -66 15t-21 48q0 64 79 119q-24 -1 -48.5 -1h-47.5q-66 0 -109 15t-67.5 44.5t-34.5 73.5t-10 102v63q0 63 12.5 107.5t39 72.5t67.5 41t97 13q112 0 161.5 -48.5t49.5 -153.5v-24
q0 -21 -2.5 -33t-8.5 -18.5t-16.5 -8.5t-25.5 -2h-316q0 -57 7 -94t25 -59t49.5 -31t81.5 -9q43 0 83 0.5t86 1.5zM267 481q-42 0 -72 -8t-49 -29t-27.5 -58t-8.5 -95h315v34q0 45 -9 75t-28 48t-49 25.5t-72 7.5z" />
    <glyph glyph-name="Ecaron" unicode="&#x11a;" horiz-adv-x="593" 
d="M538 712l-12 -54h-386v-265h373l-12 -54h-361v-285h398l-12 -54h-445v712h457zM215 888l89 -80l89 80h64l-122 -115h-62l-121 115h63z" />
    <glyph glyph-name="ecaron" unicode="&#x11b;" horiz-adv-x="531" 
d="M110 242q0 -57 7 -94t25 -59t49.5 -31t81.5 -9q43 0 83 0.5t86 1.5l-11 -51q-34 -1 -76.5 -1.5t-81.5 -0.5q-66 0 -109 15t-67.5 44.5t-34.5 73.5t-10 102v63q0 63 12.5 107.5t39 72.5t67.5 41t97 13q112 0 161.5 -48.5t49.5 -153.5v-24q0 -21 -2.5 -33t-8.5 -18.5
t-16.5 -8.5t-25.5 -2h-316zM267 481q-42 0 -72 -8t-49 -29t-27.5 -58t-8.5 -95h315v34q0 45 -9 75t-28 48t-49 25.5t-72 7.5zM237 599l-112 124h59l83 -87l84 87h59l-112 -124h-61z" />
    <glyph glyph-name="Gcircumflex" unicode="&#x11c;" horiz-adv-x="635" 
d="M573 355v-296q0 -34 -11 -46.5t-42 -12.5h-156q-87 0 -145.5 15.5t-93.5 50.5t-49.5 90t-14.5 135v130q0 78 14.5 134t50 91t94.5 51.5t149 16.5h81.5t103.5 -2l-11 -54q-58 2 -102.5 2h-73.5q-74 0 -121 -10.5t-75 -37.5t-38.5 -73.5t-10.5 -118.5v-127q0 -72 11 -118.5
t39 -73t74 -37t117 -10.5h152v247h-153l12 54h199zM348 852l-89 -79h-63l121 115h62l121 -115h-63z" />
    <glyph glyph-name="gcircumflex" unicode="&#x11d;" horiz-adv-x="573" 
d="M275 69q34 0 64.5 5.5t54 21.5t37 45t13.5 76v91q0 51 -9 84t-29 52.5t-52 27t-79 7.5t-78 -8t-50.5 -27.5t-27.5 -53.5t-8 -86v-59q0 -54 9.5 -88.5t29.5 -54t51 -26.5t74 -7zM444 86q-22 -36 -66 -52t-108 -16q-113 0 -165.5 51t-52.5 173v64q0 62 13 104.5t40.5 69
t69.5 38.5t101 12q63 0 106 -13t69.5 -40t38 -69t11.5 -99v-274q0 -59 -12.5 -99.5t-40 -65.5t-72 -36t-107.5 -11q-42 0 -78.5 0.5t-83.5 2.5l12 51q44 -2 77 -2.5t73 -0.5q49 0 82.5 7.5t54 26t29.5 49.5t9 78v51zM305 723l112 -124h-59l-84 86l-83 -86h-59l112 124h61z
" />
    <glyph glyph-name="Gbreve" unicode="&#x11e;" horiz-adv-x="635" 
d="M573 355v-296q0 -34 -11 -46.5t-42 -12.5h-156q-87 0 -145.5 15.5t-93.5 50.5t-49.5 90t-14.5 135v130q0 78 14.5 134t50 91t94.5 51.5t149 16.5h81.5t103.5 -2l-11 -54q-58 2 -102.5 2h-73.5q-74 0 -121 -10.5t-75 -37.5t-38.5 -73.5t-10.5 -118.5v-127q0 -72 11 -118.5
t39 -73t74 -37t117 -10.5h152v247h-153l12 54h199zM340 771q-75 0 -109.5 30.5t-34.5 92.5h52q0 -40 20 -60t72 -20t72 20t20 60h52q0 -62 -34.5 -92.5t-109.5 -30.5z" />
    <glyph glyph-name="gbreve" unicode="&#x11f;" horiz-adv-x="573" 
d="M275 69q34 0 64.5 5.5t54 21.5t37 45t13.5 76v91q0 51 -9 84t-29 52.5t-52 27t-79 7.5t-78 -8t-50.5 -27.5t-27.5 -53.5t-8 -86v-59q0 -54 9.5 -88.5t29.5 -54t51 -26.5t74 -7zM444 86q-22 -36 -66 -52t-108 -16q-113 0 -165.5 51t-52.5 173v64q0 62 13 104.5t40.5 69
t69.5 38.5t101 12q63 0 106 -13t69.5 -40t38 -69t11.5 -99v-274q0 -59 -12.5 -99.5t-40 -65.5t-72 -36t-107.5 -11q-42 0 -78.5 0.5t-83.5 2.5l12 51q44 -2 77 -2.5t73 -0.5q49 0 82.5 7.5t54 26t29.5 49.5t9 78v51zM272 596q-75 0 -109 31t-34 92h51q0 -38 20 -58.5
t72 -20.5t72 20.5t20 58.5h51q0 -61 -34 -92t-109 -31z" />
    <glyph glyph-name="Gdotaccent" unicode="&#x120;" horiz-adv-x="635" 
d="M573 355v-296q0 -34 -11 -46.5t-42 -12.5h-156q-87 0 -145.5 15.5t-93.5 50.5t-49.5 90t-14.5 135v130q0 78 14.5 134t50 91t94.5 51.5t149 16.5h81.5t103.5 -2l-11 -54q-58 2 -102.5 2h-73.5q-74 0 -121 -10.5t-75 -37.5t-38.5 -73.5t-10.5 -118.5v-127q0 -72 11 -118.5
t39 -73t74 -37t117 -10.5h152v247h-153l12 54h199zM389 816q0 -43 -42 -43q-41 0 -41 43t41 43q42 0 42 -43z" />
    <glyph glyph-name="gdotaccent" unicode="&#x121;" horiz-adv-x="573" 
d="M275 69q34 0 64.5 5.5t54 21.5t37 45t13.5 76v91q0 51 -9 84t-29 52.5t-52 27t-79 7.5t-78 -8t-50.5 -27.5t-27.5 -53.5t-8 -86v-59q0 -54 9.5 -88.5t29.5 -54t51 -26.5t74 -7zM444 86q-22 -36 -66 -52t-108 -16q-113 0 -165.5 51t-52.5 173v64q0 62 13 104.5t40.5 69
t69.5 38.5t101 12q63 0 106 -13t69.5 -40t38 -69t11.5 -99v-274q0 -59 -12.5 -99.5t-40 -65.5t-72 -36t-107.5 -11q-42 0 -78.5 0.5t-83.5 2.5l12 51q44 -2 77 -2.5t73 -0.5q49 0 82.5 7.5t54 26t29.5 49.5t9 78v51zM320 659q0 -24 -11 -34t-32 -10t-32 10t-11 34
q0 22 10 33t33 11t33 -11t10 -33z" />
    <glyph glyph-name="Gcommaaccent" unicode="&#x122;" horiz-adv-x="635" 
d="M573 355v-296q0 -34 -11 -46.5t-42 -12.5h-156q-87 0 -145.5 15.5t-93.5 50.5t-49.5 90t-14.5 135v130q0 78 14.5 134t50 91t94.5 51.5t149 16.5h81.5t103.5 -2l-11 -54q-58 2 -102.5 2h-73.5q-74 0 -121 -10.5t-75 -37.5t-38.5 -73.5t-10.5 -118.5v-127q0 -72 11 -118.5
t39 -73t74 -37t117 -10.5h152v247h-153l12 54h199zM297 -232l35 91q-23 10 -23 39q0 43 43 43q42 0 42 -42q0 -11 -3.5 -22t-10.5 -27l-38 -82h-45z" />
    <glyph glyph-name="gcommaaccent" unicode="&#x123;" horiz-adv-x="573" 
d="M275 69q34 0 64.5 5.5t54 21.5t37 45t13.5 76v91q0 51 -9 84t-29 52.5t-52 27t-79 7.5t-78 -8t-50.5 -27.5t-27.5 -53.5t-8 -86v-59q0 -54 9.5 -88.5t29.5 -54t51 -26.5t74 -7zM444 86q-22 -36 -66 -52t-108 -16q-113 0 -165.5 51t-52.5 173v64q0 62 13 104.5t40.5 69
t69.5 38.5t101 12q63 0 106 -13t69.5 -40t38 -69t11.5 -99v-274q0 -59 -12.5 -99.5t-40 -65.5t-72 -36t-107.5 -11q-42 0 -78.5 0.5t-83.5 2.5l12 51q44 -2 77 -2.5t73 -0.5q49 0 82.5 7.5t54 26t29.5 49.5t9 78v51zM329 788l-35 -91q23 -10 23 -39q0 -43 -43 -43
q-20 0 -31 10.5t-11 31.5q0 11 3.5 22t11.5 27l36 82h46z" />
    <glyph glyph-name="Hcircumflex" unicode="&#x124;" horiz-adv-x="696" 
d="M615 712v-712h-59v338h-416v-338h-59v712h59v-320h416v320h59zM348 852l-89 -79h-63l121 115h62l121 -115h-63z" />
    <glyph glyph-name="hcircumflex" unicode="&#x125;" horiz-adv-x="571" 
d="M72 0v743h58v-275q17 26 59 44t109 18q46 0 83.5 -8.5t63.5 -28.5t40 -53.5t14 -84.5v-355h-58v348q0 38 -8 63t-25.5 40t-46 21.5t-68.5 6.5q-35 0 -64.5 -5.5t-51.5 -19.5t-34.5 -37.5t-12.5 -60.5v-356h-58zM225 851l-88 -79h-60l119 113h59l118 -113h-60z" />
    <glyph glyph-name="Hbar" unicode="&#x126;" horiz-adv-x="754" 
d="M644 712v-127h80v-49h-80v-536h-59v338h-416v-338h-59v536h-80v49h80v127h59v-127h416v127h59zM585 392v144h-416v-144h416z" />
    <glyph glyph-name="hbar" unicode="&#x127;" horiz-adv-x="571" 
d="M72 0v610h-70v47h70v86h58v-86h207v-47h-207v-142q17 26 59 44t109 18q46 0 83.5 -8.5t63.5 -28.5t40 -53.5t14 -84.5v-355h-58v348q0 38 -8 63t-25.5 40t-46 21.5t-68.5 6.5q-35 0 -64.5 -5.5t-51.5 -19.5t-34.5 -37.5t-12.5 -60.5v-356h-58z" />
    <glyph glyph-name="Itilde" unicode="&#x128;" horiz-adv-x="221" 
d="M140 712v-712h-59v712h59zM89 808q-21 11 -31.5 15t-24.5 4q-32 0 -32 -48v-9h-45v9q0 28 6 46.5t16.5 29.5t23.5 15.5t27 4.5q15 0 33 -4.5t44 -18.5l27 -15q21 -11 31.5 -15t24.5 -4q32 0 32 48v9h45v-9q0 -28 -6 -46.5t-16.5 -29.5t-23.5 -15.5t-27 -4.5
q-15 0 -32.5 5t-43.5 18z" />
    <glyph glyph-name="itilde" unicode="&#x129;" horiz-adv-x="202" 
d="M72 514h58v-514h-58v514zM76 637q-16 10 -27 13.5t-23 3.5q-14 0 -23 -10t-9 -40v-7h-44v8q0 29 6.5 47.5t17 29t24 14.5t27.5 4t30.5 -4t40.5 -18l32 -18q16 -10 27 -13.5t24 -3.5q14 0 23 10.5t9 39.5v7h43v-8q0 -29 -6 -47.5t-16.5 -29t-24 -14.5t-27.5 -4t-31 4
t-41 18z" />
    <glyph glyph-name="Imacron" unicode="&#x12a;" horiz-adv-x="221" 
d="M140 712v-712h-59v712h59zM-19 840h261v-48h-261v48z" />
    <glyph glyph-name="imacron" unicode="&#x12b;" horiz-adv-x="202" 
d="M72 514h58v-514h-58v514zM-28 674h261v-48h-261v48z" />
    <glyph glyph-name="Ibreve" unicode="&#x12c;" horiz-adv-x="221" 
d="M140 712v-712h-59v712h59zM111 771q-75 0 -109.5 30.5t-34.5 92.5h52q0 -40 20 -60t72 -20t72 20t20 60h52q0 -62 -34.5 -92.5t-109.5 -30.5z" />
    <glyph glyph-name="ibreve" unicode="&#x12d;" horiz-adv-x="202" 
d="M72 514h58v-514h-58v514zM102 596q-75 0 -109 31t-34 92h51q0 -38 20 -58.5t72 -20.5t72 20.5t20 58.5h51q0 -61 -34 -92t-109 -31z" />
    <glyph glyph-name="Iogonek" unicode="&#x12e;" horiz-adv-x="221" 
d="M129 -183h-43q-45 0 -66.5 15t-21.5 48q0 32 20.5 63t62.5 58v711h59v-712q-48 -31 -68 -58t-20 -50q0 -14 9.5 -20.5t33.5 -6.5h45z" />
    <glyph glyph-name="iogonek" unicode="&#x12f;" horiz-adv-x="202" 
d="M130 514v-514q-48 -31 -68 -58t-20 -50q0 -14 9.5 -20.5t33.5 -6.5h45l-11 -48h-43q-45 0 -66 15t-21 48q0 32 21 63t62 58v513h58zM144 659q0 -24 -11 -34t-32 -10t-32 10t-11 34q0 22 10 33t33 11t33 -11t10 -33z" />
    <glyph glyph-name="Idotaccent" unicode="&#x130;" horiz-adv-x="221" 
d="M140 712v-712h-59v712h59zM153 816q0 -43 -42 -43q-41 0 -41 43t41 43q42 0 42 -43z" />
    <glyph glyph-name="dotlessi" unicode="&#x131;" horiz-adv-x="202" 
d="M72 514h58v-514h-58v514z" />
    <glyph glyph-name="i.locl" horiz-adv-x="202" 
d="M72 514h58v-514h-58v514zM144 659q0 -24 -11 -34t-32 -10t-32 10t-11 34q0 22 10 33t33 11t33 -11t10 -33z" />
    <glyph glyph-name="IJ" unicode="&#x132;" horiz-adv-x="677" 
d="M140 712v-712h-59v712h59zM259 55q41 -2 71 -2h64q48 0 77.5 9t45 31t21 60t5.5 97v462h59v-467q0 -68 -9 -115t-32.5 -76t-63.5 -42t-103 -13q-44 0 -76 0.5t-70 1.5z" />
    <glyph glyph-name="ij" unicode="&#x133;" horiz-adv-x="404" 
d="M72 514h58v-514h-58v514zM144 659q0 -24 -11 -34t-32 -10t-32 10t-11 34q0 22 10 33t33 11t33 -11t10 -33zM346 659q0 -44 -43 -44t-43 44t43 44t43 -44zM110 -126q19 -1 33.5 -1h28.5q30 0 50 5t31.5 18t16 35t4.5 56v527h58v-526q0 -48 -8.5 -80t-27.5 -50.5
t-49.5 -26.5t-73.5 -8q-18 0 -39 0.5t-35 1.5z" />
    <glyph glyph-name="Jcircumflex" unicode="&#x134;" horiz-adv-x="456" 
d="M38 55q41 -2 71 -2h64q48 0 77.5 9t45 31t21 60t5.5 97v462h59v-467q0 -68 -9 -115t-32.5 -76t-63.5 -42t-103 -13q-44 0 -76 0.5t-70 1.5zM345 852l-89 -79h-63l121 115h62l121 -115h-63z" />
    <glyph glyph-name="jcircumflex" unicode="&#x135;" horiz-adv-x="202" 
d="M-92 -125q18 -2 33 -2h29q30 0 50 5t31.5 18t16 35t4.5 56v527h58v-526q0 -48 -8.5 -80t-27.5 -50.5t-49.5 -26.5t-73.5 -8q-18 0 -39 0.5t-35 1.5zM135 723l112 -124h-59l-84 86l-83 -86h-59l112 124h61z" />
    <glyph glyph-name="Kcommaaccent" unicode="&#x136;" horiz-adv-x="620" 
d="M140 387l361 325h74l-377 -340l412 -372h-84l-386 349v-349h-59v712h59v-325zM247 -232l35 91q-23 10 -23 39q0 43 43 43q42 0 42 -42q0 -11 -3.5 -22t-10.5 -27l-38 -82h-45z" />
    <glyph glyph-name="kcommaaccent" unicode="&#x137;" horiz-adv-x="512" 
d="M130 301l263 213h80l-285 -229l314 -285h-80l-292 264v-264h-58v743h58v-442zM210 -102q0 21 11 32t31 11t31 -11t11 -31q0 -12 -3.5 -22.5t-11.5 -26.5l-37 -82h-44l34 92q-22 9 -22 38z" />
    <glyph glyph-name="kgreenlandic" unicode="&#x138;" horiz-adv-x="511" 
d="M130 280l265 234h78l-285 -249l313 -265h-80l-291 243v-243h-58v514h58v-234z" />
    <glyph glyph-name="Lacute" unicode="&#x139;" horiz-adv-x="541" 
d="M140 712v-658h374l-12 -54h-421v712h59zM300 892l-130 -119h-63l117 119h76z" />
    <glyph glyph-name="lacute" unicode="&#x13a;" horiz-adv-x="202" 
d="M72 743h58v-743h-58v743zM257 876l-128 -104h-63l115 104h76z" />
    <glyph glyph-name="Lcommaaccent" unicode="&#x13b;" horiz-adv-x="541" 
d="M140 712v-658h374l-12 -54h-421v712h59zM236 -232l35 91q-23 10 -23 39q0 43 43 43q42 0 42 -42q0 -11 -3.5 -22t-10.5 -27l-38 -82h-45z" />
    <glyph glyph-name="lcommaaccent" unicode="&#x13c;" horiz-adv-x="202" 
d="M72 743h58v-743h-58v743zM61 -102q0 21 11 32t31 11t31 -11t11 -31q0 -12 -3.5 -22.5t-11.5 -26.5l-37 -82h-44l34 92q-22 9 -22 38z" />
    <glyph glyph-name="Lcaron" unicode="&#x13d;" horiz-adv-x="541" 
d="M140 712v-658h374l-12 -54h-421v712h59zM311 763l-21 -175h-41l7 175h55z" />
    <glyph glyph-name="lcaron" unicode="&#x13e;" horiz-adv-x="245" 
d="M72 743h58v-743h-58v743zM253 743l-21 -175h-41l7 175h55z" />
    <glyph glyph-name="Ldot" unicode="&#x13f;" horiz-adv-x="541" 
d="M140 712v-658h374l-12 -54h-421v712h59zM403 399q0 -47 -45 -47t-45 47q0 48 45 48t45 -48z" />
    <glyph glyph-name="ldot" unicode="&#x140;" horiz-adv-x="302" 
d="M72 743h58v-743h-58v743zM297 384q0 -47 -45 -47t-45 47q0 48 45 48t45 -48z" />
    <glyph glyph-name="Lslash" unicode="&#x141;" horiz-adv-x="571" 
d="M170 712v-326l213 136v-58l-213 -136v-274h374l-12 -54h-421v290l-81 -51v58l81 51v364h59z" />
    <glyph glyph-name="lslash" unicode="&#x142;" horiz-adv-x="231" 
d="M86 345l-81 -72v62l81 71v337h58v-286l82 73v-61l-82 -73v-396h-58v345z" />
    <glyph glyph-name="Nacute" unicode="&#x143;" horiz-adv-x="699" 
d="M135 712l424 -615v615h59v-712h-55l-423 613v-613h-59v712h54zM476 892l-130 -119h-63l117 119h76z" />
    <glyph glyph-name="nacute" unicode="&#x144;" horiz-adv-x="571" 
d="M72 0v343q0 43 9 78t33 59t65.5 37t106.5 13t106.5 -12.5t65 -36.5t32.5 -59t9 -79v-343h-58v337q0 35 -4.5 61.5t-20.5 44.5t-47 27t-83 9q-53 0 -84 -9.5t-47 -27.5t-20.5 -44.5t-4.5 -60.5v-337h-58zM341 725h71l-129 -126h-61z" />
    <glyph glyph-name="Ncommaaccent" unicode="&#x145;" horiz-adv-x="699" 
d="M135 712l424 -615v615h59v-712h-55l-423 613v-613h-59v712h54zM293 -232l35 91q-23 10 -23 39q0 43 43 43q42 0 42 -42q0 -11 -3.5 -22t-10.5 -27l-38 -82h-45z" />
    <glyph glyph-name="ncommaaccent" unicode="&#x146;" horiz-adv-x="571" 
d="M72 0v343q0 43 9 78t33 59t65.5 37t106.5 13t106.5 -12.5t65 -36.5t32.5 -59t9 -79v-343h-58v337q0 35 -4.5 61.5t-20.5 44.5t-47 27t-83 9q-53 0 -84 -9.5t-47 -27.5t-20.5 -44.5t-4.5 -60.5v-337h-58zM247 -102q0 21 11 32t31 11t31 -11t11 -31q0 -12 -3.5 -22.5
t-11.5 -26.5l-37 -82h-44l34 92q-22 9 -22 38z" />
    <glyph glyph-name="Ncaron" unicode="&#x147;" horiz-adv-x="699" 
d="M135 712l424 -615v615h59v-712h-55l-423 613v-613h-59v712h54zM257 888l89 -80l89 80h64l-122 -115h-62l-121 115h63z" />
    <glyph glyph-name="ncaron" unicode="&#x148;" horiz-adv-x="571" 
d="M72 0v343q0 43 9 78t33 59t65.5 37t106.5 13t106.5 -12.5t65 -36.5t32.5 -59t9 -79v-343h-58v337q0 35 -4.5 61.5t-20.5 44.5t-47 27t-83 9q-53 0 -84 -9.5t-47 -27.5t-20.5 -44.5t-4.5 -60.5v-337h-58zM256 599l-112 124h59l83 -87l84 87h59l-112 -124h-61z" />
    <glyph glyph-name="napostrophe" unicode="&#x149;" horiz-adv-x="588" 
d="M89 0v343q0 43 9 78t33 59t65.5 37t106.5 13t106.5 -12.5t65 -36.5t32.5 -59t9 -79v-343h-58v337q0 35 -4.5 61.5t-20.5 44.5t-47 27t-83 9q-53 0 -84 -9.5t-47 -27.5t-20.5 -44.5t-4.5 -60.5v-337h-58zM84 736q44 0 44 -45q0 -12 -4.5 -25t-12.5 -28l-55 -117h-45
l51 130q-9 5 -15 13.5t-6 25.5q0 23 10 34.5t33 11.5z" />
    <glyph glyph-name="Eng" unicode="&#x14a;" horiz-adv-x="699" 
d="M140 613v-613h-59v712h54l424 -615v615h59v-642q0 -68 -9 -115t-32.5 -76t-63.5 -42t-103 -13q-44 0 -74 0.5t-42 1.5l11 54q16 -1 28.5 -1.5t23.5 -0.5h23.5h29.5q40 0 67 6.5t43.5 21.5t25 40t11.5 63z" />
    <glyph glyph-name="eng" unicode="&#x14b;" horiz-adv-x="571" 
d="M441 337q0 35 -4.5 61.5t-20.5 44.5t-47 27t-83 9q-53 0 -84 -9.5t-47 -27.5t-20.5 -44.5t-4.5 -60.5v-337h-58v343q0 43 9 78t33 59t65.5 37t106.5 13t106.5 -12.5t65 -36.5t32.5 -59t9 -79v-355q0 -48 -8.5 -80t-27.5 -50.5t-49.5 -26.5t-73.5 -8q-18 0 -39 0.5
t-35 1.5l11 50q18 -2 33 -2h29q30 0 50 5t31.5 18t16 35t4.5 56v350z" />
    <glyph glyph-name="Omacron" unicode="&#x14c;" horiz-adv-x="699" 
d="M349 35q64 0 107.5 12t70.5 41t38.5 77t11.5 119v145q0 71 -11.5 118.5t-38.5 76.5t-70.5 41.5t-107.5 12.5t-107.5 -12t-70 -41t-38 -77t-11.5 -119v-145q0 -71 11.5 -118.5t38.5 -76.5t70.5 -41.5t106.5 -12.5zM349 -18q-81 0 -136 17.5t-88.5 54.5t-48.5 94t-15 135
v147q0 76 14.5 133t48.5 94t89 55.5t136 18.5t136.5 -17.5t89 -54.5t48.5 -94t15 -135v-147q0 -77 -14.5 -133.5t-48.5 -93.5t-89.5 -55.5t-136.5 -18.5zM219 840h261v-48h-261v48z" />
    <glyph glyph-name="omacron" unicode="&#x14d;" horiz-adv-x="556" 
d="M278 530q59 0 102 -11.5t70.5 -38.5t40.5 -72.5t13 -112.5v-76q0 -67 -13 -112t-40.5 -72.5t-70.5 -39t-102 -11.5t-102 11.5t-70.5 39t-40.5 72.5t-13 112v76q0 67 13 112t40.5 72.5t70.5 39t102 11.5zM445 295q0 55 -9 91t-29 56.5t-52 28.5t-77 8q-46 0 -77.5 -7.5
t-51.5 -28t-29 -56t-9 -92.5v-76q0 -56 9 -91.5t29 -56t51.5 -28.5t77.5 -8t77.5 7.5t51.5 28t29 56t9 92.5v76zM148 674h261v-48h-261v48z" />
    <glyph glyph-name="Obreve" unicode="&#x14e;" horiz-adv-x="699" 
d="M349 35q64 0 107.5 12t70.5 41t38.5 77t11.5 119v145q0 71 -11.5 118.5t-38.5 76.5t-70.5 41.5t-107.5 12.5t-107.5 -12t-70 -41t-38 -77t-11.5 -119v-145q0 -71 11.5 -118.5t38.5 -76.5t70.5 -41.5t106.5 -12.5zM349 -18q-81 0 -136 17.5t-88.5 54.5t-48.5 94t-15 135
v147q0 76 14.5 133t48.5 94t89 55.5t136 18.5t136.5 -17.5t89 -54.5t48.5 -94t15 -135v-147q0 -77 -14.5 -133.5t-48.5 -93.5t-89.5 -55.5t-136.5 -18.5zM349 771q-75 0 -109.5 30.5t-34.5 92.5h52q0 -40 20 -60t72 -20t72 20t20 60h52q0 -62 -34.5 -92.5t-109.5 -30.5z" />
    <glyph glyph-name="obreve" unicode="&#x14f;" horiz-adv-x="556" 
d="M278 530q59 0 102 -11.5t70.5 -38.5t40.5 -72.5t13 -112.5v-76q0 -67 -13 -112t-40.5 -72.5t-70.5 -39t-102 -11.5t-102 11.5t-70.5 39t-40.5 72.5t-13 112v76q0 67 13 112t40.5 72.5t70.5 39t102 11.5zM445 295q0 55 -9 91t-29 56.5t-52 28.5t-77 8q-46 0 -77.5 -7.5
t-51.5 -28t-29 -56t-9 -92.5v-76q0 -56 9 -91.5t29 -56t51.5 -28.5t77.5 -8t77.5 7.5t51.5 28t29 56t9 92.5v76zM278 596q-75 0 -109 31t-34 92h51q0 -38 20 -58.5t72 -20.5t72 20.5t20 58.5h51q0 -61 -34 -92t-109 -31z" />
    <glyph glyph-name="Ohungarumlaut" unicode="&#x150;" horiz-adv-x="699" 
d="M349 35q64 0 107.5 12t70.5 41t38.5 77t11.5 119v145q0 71 -11.5 118.5t-38.5 76.5t-70.5 41.5t-107.5 12.5t-107.5 -12t-70 -41t-38 -77t-11.5 -119v-145q0 -71 11.5 -118.5t38.5 -76.5t70.5 -41.5t106.5 -12.5zM349 -18q-81 0 -136 17.5t-88.5 54.5t-48.5 94t-15 135
v147q0 76 14.5 133t48.5 94t89 55.5t136 18.5t136.5 -17.5t89 -54.5t48.5 -94t15 -135v-147q0 -77 -14.5 -133.5t-48.5 -93.5t-89.5 -55.5t-136.5 -18.5zM390 892l-105 -119h-62l94 119h73zM544 892l-106 -119h-62l94 119h74z" />
    <glyph glyph-name="ohungarumlaut" unicode="&#x151;" horiz-adv-x="556" 
d="M278 530q59 0 102 -11.5t70.5 -38.5t40.5 -72.5t13 -112.5v-76q0 -67 -13 -112t-40.5 -72.5t-70.5 -39t-102 -11.5t-102 11.5t-70.5 39t-40.5 72.5t-13 112v76q0 67 13 112t40.5 72.5t70.5 39t102 11.5zM445 295q0 55 -9 91t-29 56.5t-52 28.5t-77 8q-46 0 -77.5 -7.5
t-51.5 -28t-29 -56t-9 -92.5v-76q0 -56 9 -91.5t29 -56t51.5 -28.5t77.5 -8t77.5 7.5t51.5 28t29 56t9 92.5v76zM247 725h64l-99 -126h-55zM392 725h64l-99 -126h-55z" />
    <glyph glyph-name="Racute" unicode="&#x154;" horiz-adv-x="620" 
d="M140 299v-299h-59v712h237q65 0 111.5 -10.5t76 -33.5t43.5 -61t14 -92v-19q0 -86 -36.5 -131t-117.5 -59l187 -306h-68l-179 299h-209zM504 511q0 44 -9.5 72.5t-31 45t-57.5 23t-88 6.5h-178v-305h178q54 0 89.5 6.5t57 23t30.5 45t9 72.5v11zM423 892l-130 -119h-63
l117 119h76z" />
    <glyph glyph-name="racute" unicode="&#x155;" horiz-adv-x="391" 
d="M72 0v339q0 52 11.5 86t34.5 54.5t57 28.5t79 8h63t47 -1l-11 -52q-13 1 -41.5 1.5t-54.5 0.5q-38 0 -62.5 -6.5t-38.5 -21.5t-20 -40.5t-6 -64.5v-332h-58zM283 725h71l-129 -126h-61z" />
    <glyph glyph-name="Rcommaaccent" unicode="&#x156;" horiz-adv-x="620" 
d="M140 299v-299h-59v712h237q65 0 111.5 -10.5t76 -33.5t43.5 -61t14 -92v-19q0 -86 -36.5 -131t-117.5 -59l187 -306h-68l-179 299h-209zM504 511q0 44 -9.5 72.5t-31 45t-57.5 23t-88 6.5h-178v-305h178q54 0 89.5 6.5t57 23t30.5 45t9 72.5v11zM265 -232l35 91
q-23 10 -23 39q0 43 43 43q42 0 42 -42q0 -11 -3.5 -22t-10.5 -27l-38 -82h-45z" />
    <glyph glyph-name="rcommaaccent" unicode="&#x157;" horiz-adv-x="391" 
d="M72 0v339q0 52 11.5 86t34.5 54.5t57 28.5t79 8h63t47 -1l-11 -52q-13 1 -41.5 1.5t-54.5 0.5q-38 0 -62.5 -6.5t-38.5 -21.5t-20 -40.5t-6 -64.5v-332h-58zM61 -102q0 21 11 32t31 11t31 -11t11 -31q0 -12 -3.5 -22.5t-11.5 -26.5l-37 -82h-44l34 92q-22 9 -22 38z" />
    <glyph glyph-name="Rcaron" unicode="&#x158;" horiz-adv-x="620" 
d="M140 299v-299h-59v712h237q65 0 111.5 -10.5t76 -33.5t43.5 -61t14 -92v-19q0 -86 -36.5 -131t-117.5 -59l187 -306h-68l-179 299h-209zM504 511q0 44 -9.5 72.5t-31 45t-57.5 23t-88 6.5h-178v-305h178q54 0 89.5 6.5t57 23t30.5 45t9 72.5v11zM216 888l89 -80l89 80h64
l-122 -115h-62l-121 115h63z" />
    <glyph glyph-name="rcaron" unicode="&#x159;" horiz-adv-x="391" 
d="M72 0v339q0 52 11.5 86t34.5 54.5t57 28.5t79 8h63t47 -1l-11 -52q-13 1 -41.5 1.5t-54.5 0.5q-38 0 -62.5 -6.5t-38.5 -21.5t-20 -40.5t-6 -64.5v-332h-58zM190 599l-112 124h59l83 -87l84 87h59l-112 -124h-61z" />
    <glyph glyph-name="Sacute" unicode="&#x15a;" horiz-adv-x="566" 
d="M366 380q81 -14 119 -54.5t38 -124.5v-12q0 -50 -13.5 -86t-44.5 -59.5t-80 -34.5t-119 -11h-93.5t-129.5 2l11 54q69 -2 119 -2h93q58 0 96.5 7t61 24t31.5 44.5t9 68.5q0 30 -5.5 52t-19.5 37.5t-37.5 25t-59.5 15.5l-136 23q-45 7 -76 21t-49.5 35.5t-26.5 50.5t-8 68
v14q0 40 12.5 72.5t41.5 55.5t75.5 35.5t115.5 12.5h43.5h44.5t53.5 -0.5t70.5 -1.5l-12 -54q-38 1 -67.5 1.5t-53.5 0.5h-43.5h-37.5q-53 0 -88.5 -7t-56.5 -23t-30 -40.5t-9 -58.5q0 -29 5 -50.5t18.5 -37t36.5 -25t59 -15.5zM405 892l-130 -119h-63l117 119h76z" />
    <glyph glyph-name="sacute" unicode="&#x15b;" horiz-adv-x="495" 
d="M300 286q42 -4 69.5 -15.5t44.5 -28.5t24 -40t7 -50v-9q0 -35 -9.5 -62t-31.5 -45.5t-58.5 -28t-90.5 -9.5h-57.5h-52t-51 0.5t-53.5 1.5l11 51q45 -2 93.5 -2h111.5q39 0 64.5 4.5t40.5 16t20.5 30t5.5 46.5q0 42 -21 61.5t-77 24.5l-107 10q-74 8 -106.5 40.5
t-32.5 90.5v11q0 67 44.5 99.5t140.5 32.5h97t108 -2l-11 -51q-51 2 -102 2h-95q-70 0 -98 -18.5t-28 -63.5q0 -19 3.5 -33.5t13.5 -25.5t29 -18t49 -10zM303 725h71l-129 -126h-61z" />
    <glyph glyph-name="Scircumflex" unicode="&#x15c;" horiz-adv-x="566" 
d="M366 380q81 -14 119 -54.5t38 -124.5v-12q0 -50 -13.5 -86t-44.5 -59.5t-80 -34.5t-119 -11h-93.5t-129.5 2l11 54q69 -2 119 -2h93q58 0 96.5 7t61 24t31.5 44.5t9 68.5q0 30 -5.5 52t-19.5 37.5t-37.5 25t-59.5 15.5l-136 23q-45 7 -76 21t-49.5 35.5t-26.5 50.5t-8 68
v14q0 40 12.5 72.5t41.5 55.5t75.5 35.5t115.5 12.5h43.5h44.5t53.5 -0.5t70.5 -1.5l-12 -54q-38 1 -67.5 1.5t-53.5 0.5h-43.5h-37.5q-53 0 -88.5 -7t-56.5 -23t-30 -40.5t-9 -58.5q0 -29 5 -50.5t18.5 -37t36.5 -25t59 -15.5zM287 852l-89 -79h-63l121 115h62l121 -115
h-63z" />
    <glyph glyph-name="scircumflex" unicode="&#x15d;" horiz-adv-x="495" 
d="M300 286q42 -4 69.5 -15.5t44.5 -28.5t24 -40t7 -50v-9q0 -35 -9.5 -62t-31.5 -45.5t-58.5 -28t-90.5 -9.5h-57.5h-52t-51 0.5t-53.5 1.5l11 51q45 -2 93.5 -2h111.5q39 0 64.5 4.5t40.5 16t20.5 30t5.5 46.5q0 42 -21 61.5t-77 24.5l-107 10q-74 8 -106.5 40.5
t-32.5 90.5v11q0 67 44.5 99.5t140.5 32.5h97t108 -2l-11 -51q-51 2 -102 2h-95q-70 0 -98 -18.5t-28 -63.5q0 -19 3.5 -33.5t13.5 -25.5t29 -18t49 -10zM278 723l112 -124h-59l-84 86l-83 -86h-59l112 124h61z" />
    <glyph glyph-name="Scedilla" unicode="&#x15e;" horiz-adv-x="566" 
d="M366 380q81 -14 119 -54.5t38 -124.5v-12q0 -50 -13.5 -86t-44.5 -59.5t-80 -34.5t-119 -11h-93.5t-129.5 2l11 54q69 -2 119 -2h93q58 0 96.5 7t61 24t31.5 44.5t9 68.5q0 30 -5.5 52t-19.5 37.5t-37.5 25t-59.5 15.5l-136 23q-45 7 -76 21t-49.5 35.5t-26.5 50.5t-8 68
v14q0 40 12.5 72.5t41.5 55.5t75.5 35.5t115.5 12.5h43.5h44.5t53.5 -0.5t70.5 -1.5l-12 -54q-38 1 -67.5 1.5t-53.5 0.5h-43.5h-37.5q-53 0 -88.5 -7t-56.5 -23t-30 -40.5t-9 -58.5q0 -29 5 -50.5t18.5 -37t36.5 -25t59 -15.5zM254 -82h-29t-29 -1l11 43q11 1 26.5 1h29.5
q53 0 76 -18t23 -58v-7q0 -40 -24.5 -58.5t-80.5 -18.5q-28 0 -52 0.5t-39 2.5l12 43q11 -1 33 -1.5t43 -0.5q31 0 42 7.5t11 29.5q0 21 -11 28.5t-42 7.5z" />
    <glyph glyph-name="scedilla" unicode="&#x15f;" horiz-adv-x="495" 
d="M300 286q42 -4 69.5 -15.5t44.5 -28.5t24 -40t7 -50v-9q0 -35 -9.5 -62t-31.5 -45.5t-58.5 -28t-90.5 -9.5h-57.5h-52t-51 0.5t-53.5 1.5l11 51q45 -2 93.5 -2h111.5q39 0 64.5 4.5t40.5 16t20.5 30t5.5 46.5q0 42 -21 61.5t-77 24.5l-107 10q-74 8 -106.5 40.5
t-32.5 90.5v11q0 67 44.5 99.5t140.5 32.5h97t108 -2l-11 -51q-51 2 -102 2h-95q-70 0 -98 -18.5t-28 -63.5q0 -19 3.5 -33.5t13.5 -25.5t29 -18t49 -10zM282 -118q0 21 -11.5 29.5t-42.5 8.5h-26.5t-29.5 -1l11 41q20 1 31 1h21q52 0 75.5 -17.5t23.5 -57.5v-7
q0 -41 -23.5 -59.5t-81.5 -18.5q-29 0 -53 1t-34 2l12 41q16 -1 38 -1.5t36 -0.5q31 0 42.5 8.5t11.5 30.5z" />
    <glyph glyph-name="uni0162" unicode="&#x162;" horiz-adv-x="624" 
d="M597 712l-12 -54h-244v-658h-59v658h-255l12 54h558zM296 -82h-29t-29 -1l11 43q11 1 26.5 1h29.5q53 0 76 -18t23 -58v-7q0 -40 -24.5 -58.5t-80.5 -18.5q-28 0 -52 0.5t-39 2.5l12 43q11 -1 33 -1.5t43 -0.5q31 0 42 7.5t11 29.5q0 21 -11 28.5t-42 7.5z" />
    <glyph glyph-name="uni0163" unicode="&#x163;" 
d="M72 644l58 11v-141h211l-11 -50h-200v-289q0 -37 5 -61t18.5 -38t37 -19.5t61.5 -5.5h77l-11 -51h-66q-51 0 -85.5 7.5t-55.5 27t-30 53t-9 86.5v470zM235 -118q0 21 -11.5 29.5t-42.5 8.5h-26.5t-29.5 -1l11 41q20 1 31 1h21q52 0 75.5 -17.5t23.5 -57.5v-7
q0 -41 -23.5 -59.5t-81.5 -18.5q-29 0 -53 1t-34 2l12 41q16 -1 38 -1.5t36 -0.5q31 0 42.5 8.5t11.5 30.5z" />
    <glyph glyph-name="Tcaron" unicode="&#x164;" horiz-adv-x="624" 
d="M597 712l-12 -54h-244v-658h-59v658h-255l12 54h558zM223 888l89 -80l89 80h64l-122 -115h-62l-121 115h63z" />
    <glyph glyph-name="tcaron" unicode="&#x165;" 
d="M72 644l58 11v-141h211l-11 -50h-200v-289q0 -37 5 -61t18.5 -38t37 -19.5t61.5 -5.5h77l-11 -51h-66q-51 0 -85.5 7.5t-55.5 27t-30 53t-9 86.5v470zM257 743l-20 -168h-42l7 168h55z" />
    <glyph glyph-name="Tbar" unicode="&#x166;" horiz-adv-x="624" 
d="M597 712l-12 -54h-244v-286h180v-50h-180v-322h-59v322h-181v50h181v286h-255l12 54h558z" />
    <glyph glyph-name="tbar" unicode="&#x167;" horiz-adv-x="383" 
d="M79 254h-62v48h62v342l58 11v-141h211l-11 -50h-200v-162h193v-48h-193v-79q0 -37 5 -61t18.5 -38t37 -19.5t61.5 -5.5h77l-11 -51h-66q-51 0 -85.5 7.5t-55.5 27t-30 53t-9 86.5v80z" />
    <glyph glyph-name="Utilde" unicode="&#x168;" horiz-adv-x="670" 
d="M335 -18q-78 0 -128.5 17t-79.5 52t-40.5 88.5t-11.5 125.5v447h59v-447q0 -68 10.5 -112.5t34 -70.5t62 -36.5t94.5 -10.5q59 0 98 11t62 38t32 71t9 110v447h59v-447q0 -76 -13 -129.5t-43.5 -87.5t-80.5 -50t-123 -16zM313 808q-21 11 -31.5 15t-24.5 4q-32 0 -32 -48
v-9h-45v9q0 28 6 46.5t16.5 29.5t23.5 15.5t27 4.5q15 0 33 -4.5t44 -18.5l27 -15q21 -11 31.5 -15t24.5 -4q32 0 32 48v9h45v-9q0 -28 -6 -46.5t-16.5 -29.5t-23.5 -15.5t-27 -4.5q-15 0 -32.5 5t-43.5 18z" />
    <glyph glyph-name="utilde" unicode="&#x169;" horiz-adv-x="566" 
d="M283 -16q-62 0 -103 12t-65 35t-33.5 58t-9.5 82v343h58v-337q0 -35 5 -61.5t20.5 -44.5t46 -27t81.5 -9t81.5 8.5t46 26t20.5 44.5t5 63v337h58v-343q0 -45 -9.5 -79.5t-33 -58.5t-64.5 -36.5t-104 -12.5zM257 637q-16 10 -27 13.5t-23 3.5q-14 0 -23 -10t-9 -40v-7h-44
v8q0 29 6.5 47.5t17 29t24 14.5t27.5 4t30.5 -4t40.5 -18l32 -18q16 -10 27 -13.5t24 -3.5q14 0 23 10.5t9 39.5v7h43v-8q0 -29 -6 -47.5t-16.5 -29t-24 -14.5t-27.5 -4t-31 4t-41 18z" />
    <glyph glyph-name="Umacron" unicode="&#x16a;" horiz-adv-x="670" 
d="M335 -18q-78 0 -128.5 17t-79.5 52t-40.5 88.5t-11.5 125.5v447h59v-447q0 -68 10.5 -112.5t34 -70.5t62 -36.5t94.5 -10.5q59 0 98 11t62 38t32 71t9 110v447h59v-447q0 -76 -13 -129.5t-43.5 -87.5t-80.5 -50t-123 -16zM205 840h261v-48h-261v48z" />
    <glyph glyph-name="umacron" unicode="&#x16b;" horiz-adv-x="566" 
d="M283 -16q-62 0 -103 12t-65 35t-33.5 58t-9.5 82v343h58v-337q0 -35 5 -61.5t20.5 -44.5t46 -27t81.5 -9t81.5 8.5t46 26t20.5 44.5t5 63v337h58v-343q0 -45 -9.5 -79.5t-33 -58.5t-64.5 -36.5t-104 -12.5zM153 674h261v-48h-261v48z" />
    <glyph glyph-name="Ubreve" unicode="&#x16c;" horiz-adv-x="670" 
d="M335 -18q-78 0 -128.5 17t-79.5 52t-40.5 88.5t-11.5 125.5v447h59v-447q0 -68 10.5 -112.5t34 -70.5t62 -36.5t94.5 -10.5q59 0 98 11t62 38t32 71t9 110v447h59v-447q0 -76 -13 -129.5t-43.5 -87.5t-80.5 -50t-123 -16zM335 771q-75 0 -109.5 30.5t-34.5 92.5h52
q0 -40 20 -60t72 -20t72 20t20 60h52q0 -62 -34.5 -92.5t-109.5 -30.5z" />
    <glyph glyph-name="ubreve" unicode="&#x16d;" horiz-adv-x="566" 
d="M283 -16q-62 0 -103 12t-65 35t-33.5 58t-9.5 82v343h58v-337q0 -35 5 -61.5t20.5 -44.5t46 -27t81.5 -9t81.5 8.5t46 26t20.5 44.5t5 63v337h58v-343q0 -45 -9.5 -79.5t-33 -58.5t-64.5 -36.5t-104 -12.5zM283 596q-75 0 -109 31t-34 92h51q0 -38 20 -58.5t72 -20.5
t72 20.5t20 58.5h51q0 -61 -34 -92t-109 -31z" />
    <glyph glyph-name="Uring" unicode="&#x16e;" horiz-adv-x="670" 
d="M335 -18q-78 0 -128.5 17t-79.5 52t-40.5 88.5t-11.5 125.5v447h59v-447q0 -68 10.5 -112.5t34 -70.5t62 -36.5t94.5 -10.5q59 0 98 11t62 38t32 71t9 110v447h59v-447q0 -76 -13 -129.5t-43.5 -87.5t-80.5 -50t-123 -16zM217 844q0 55 31 83.5t87 28.5t87 -28.5
t31 -83.5t-31 -83.5t-87 -28.5t-87 28.5t-31 83.5zM406 844q0 39 -16.5 55t-54.5 16t-54.5 -16t-16.5 -55t16.5 -55t54.5 -16t54.5 16t16.5 55z" />
    <glyph glyph-name="uring" unicode="&#x16f;" horiz-adv-x="566" 
d="M283 -16q-62 0 -103 12t-65 35t-33.5 58t-9.5 82v343h58v-337q0 -35 5 -61.5t20.5 -44.5t46 -27t81.5 -9t81.5 8.5t46 26t20.5 44.5t5 63v337h58v-343q0 -45 -9.5 -79.5t-33 -58.5t-64.5 -36.5t-104 -12.5zM165 680q0 55 31 83.5t87 28.5t87 -28.5t31 -83.5t-31 -83.5
t-87 -28.5t-87 28.5t-31 83.5zM354 680q0 39 -16.5 55t-54.5 16t-54.5 -16t-16.5 -55t16.5 -55t54.5 -16t54.5 16t16.5 55z" />
    <glyph glyph-name="Uhungarumlaut" unicode="&#x170;" horiz-adv-x="670" 
d="M335 -18q-78 0 -128.5 17t-79.5 52t-40.5 88.5t-11.5 125.5v447h59v-447q0 -68 10.5 -112.5t34 -70.5t62 -36.5t94.5 -10.5q59 0 98 11t62 38t32 71t9 110v447h59v-447q0 -76 -13 -129.5t-43.5 -87.5t-80.5 -50t-123 -16zM365 892l-105 -119h-62l94 119h73zM519 892
l-106 -119h-62l94 119h74z" />
    <glyph glyph-name="uhungarumlaut" unicode="&#x171;" horiz-adv-x="566" 
d="M283 -16q-62 0 -103 12t-65 35t-33.5 58t-9.5 82v343h58v-337q0 -35 5 -61.5t20.5 -44.5t46 -27t81.5 -9t81.5 8.5t46 26t20.5 44.5t5 63v337h58v-343q0 -45 -9.5 -79.5t-33 -58.5t-64.5 -36.5t-104 -12.5zM251 725h64l-99 -126h-55zM396 725h64l-99 -126h-55z" />
    <glyph glyph-name="Uogonek" unicode="&#x172;" horiz-adv-x="670" 
d="M335 -18q-78 0 -128.5 17t-79.5 52t-40.5 88.5t-11.5 125.5v447h59v-447q0 -68 10.5 -112.5t34 -70.5t62 -36.5t94.5 -10.5q59 0 98 11t62 38t32 71t9 110v447h59v-447q0 -57 -6.5 -99t-20.5 -72.5t-35 -51.5t-51 -36q-53 -27 -76.5 -59t-23.5 -55q0 -14 9.5 -20.5
t33.5 -6.5h45l-11 -48h-43q-45 0 -66.5 15t-21.5 48q0 53 59 105q-24 -3 -52 -3z" />
    <glyph glyph-name="uogonek" unicode="&#x173;" horiz-adv-x="566" 
d="M283 -16q-62 0 -103 12t-65 35t-33.5 58t-9.5 82v343h58v-337q0 -35 5 -61.5t20.5 -44.5t46 -27t81.5 -9t81.5 8.5t46 26t20.5 44.5t5 63v337h58v-343q0 -55 -14 -94t-52 -63q-32 -21 -52.5 -38t-32.5 -32t-17 -28t-5 -24q0 -14 9.5 -20.5t33.5 -6.5h45l-11 -48h-43
q-45 0 -66 15t-21 48q0 52 61 106q-11 -1 -22 -1.5t-24 -0.5z" />
    <glyph glyph-name="Wcircumflex" unicode="&#x174;" horiz-adv-x="868" 
d="M779 712h57l-172 -712h-65l-166 627l-167 -627h-65l-169 712h61l144 -632l169 632h58l167 -632zM434 852l-89 -79h-63l121 115h62l121 -115h-63z" />
    <glyph glyph-name="wcircumflex" unicode="&#x175;" horiz-adv-x="739" 
d="M369 439l-127 -439h-62l-156 514h60l128 -449l129 449h60l128 -451l130 451h56l-156 -514h-62zM401 723l112 -124h-59l-84 86l-83 -86h-59l112 124h61z" />
    <glyph glyph-name="Ycircumflex" unicode="&#x176;" horiz-adv-x="618" 
d="M82 712l230 -353l227 353h63l-262 -404v-308h-59v308l-265 404h66zM309 852l-89 -79h-63l121 115h62l121 -115h-63z" />
    <glyph glyph-name="ycircumflex" unicode="&#x177;" horiz-adv-x="566" 
d="M114 -123q33 -2 69 -2.5t81 -0.5q48 0 80.5 7.5t53 26t29 49.5t8.5 78v40q-20 -29 -57.5 -43t-102.5 -14q-57 0 -96 11t-63 33.5t-34 57.5t-10 84v310h58v-303q0 -35 4.5 -61.5t20 -44.5t45 -27t79.5 -9q49 0 79.5 8.5t47.5 26t23.5 45t6.5 66.5v299h58v-479
q0 -59 -12.5 -99.5t-40 -65.5t-71 -36t-105.5 -11q-46 0 -84.5 0.5t-77.5 2.5zM314 723l112 -124h-59l-84 86l-83 -86h-59l112 124h61z" />
    <glyph glyph-name="Zacute" unicode="&#x179;" horiz-adv-x="587" 
d="M39 51l418 607h-398l11 54h455v-52l-417 -606h435l-11 -54h-493v51zM428 892l-130 -119h-63l117 119h76z" />
    <glyph glyph-name="zacute" unicode="&#x17a;" horiz-adv-x="484" 
d="M110 51h333l-11 -51h-393v45l325 419h-316l11 50h376v-45zM289 725h71l-129 -126h-61z" />
    <glyph glyph-name="Zdotaccent" unicode="&#x17b;" horiz-adv-x="587" 
d="M39 51l418 607h-398l11 54h455v-52l-417 -606h435l-11 -54h-493v51zM332 816q0 -43 -42 -43q-41 0 -41 43t41 43q42 0 42 -43z" />
    <glyph glyph-name="zdotaccent" unicode="&#x17c;" horiz-adv-x="484" 
d="M110 51h333l-11 -51h-393v45l325 419h-316l11 50h376v-45zM288 659q0 -24 -11 -34t-32 -10t-32 10t-11 34q0 22 10 33t33 11t33 -11t10 -33z" />
    <glyph glyph-name="Zcaron" unicode="&#x17d;" horiz-adv-x="587" 
d="M39 51l418 607h-398l11 54h455v-52l-417 -606h435l-11 -54h-493v51zM205 888l89 -80l89 80h64l-122 -115h-62l-121 115h63z" />
    <glyph glyph-name="zcaron" unicode="&#x17e;" horiz-adv-x="484" 
d="M110 51h333l-11 -51h-393v45l325 419h-316l11 50h376v-45zM212 599l-112 124h59l83 -87l84 87h59l-112 -124h-61z" />
    <glyph glyph-name="longs" unicode="&#x17f;" horiz-adv-x="202" 
d="M130 0h-58v521q0 63 11.5 106t37 69.5t66.5 37.5t100 11q17 0 36 -0.5t35 -1.5l-11 -51q-12 1 -28.5 1.5t-30.5 0.5q-45 0 -75.5 -7t-48.5 -25.5t-26 -52t-8 -86.5v-523z" />
    <glyph glyph-name="Scommaaccent" unicode="&#x218;" horiz-adv-x="566" 
d="M366 380q81 -14 119 -54.5t38 -124.5v-12q0 -50 -13.5 -86t-44.5 -59.5t-80 -34.5t-119 -11h-93.5t-129.5 2l11 54q69 -2 119 -2h93q58 0 96.5 7t61 24t31.5 44.5t9 68.5q0 30 -5.5 52t-19.5 37.5t-37.5 25t-59.5 15.5l-136 23q-45 7 -76 21t-49.5 35.5t-26.5 50.5t-8 68
v14q0 40 12.5 72.5t41.5 55.5t75.5 35.5t115.5 12.5h43.5h44.5t53.5 -0.5t70.5 -1.5l-12 -54q-38 1 -67.5 1.5t-53.5 0.5h-43.5h-37.5q-53 0 -88.5 -7t-56.5 -23t-30 -40.5t-9 -58.5q0 -29 5 -50.5t18.5 -37t36.5 -25t59 -15.5zM233 -232l35 91q-23 10 -23 39q0 43 43 43
q42 0 42 -42q0 -11 -3.5 -22t-10.5 -27l-38 -82h-45z" />
    <glyph glyph-name="scommaaccent" unicode="&#x219;" horiz-adv-x="495" 
d="M300 286q42 -4 69.5 -15.5t44.5 -28.5t24 -40t7 -50v-9q0 -35 -9.5 -62t-31.5 -45.5t-58.5 -28t-90.5 -9.5h-57.5h-52t-51 0.5t-53.5 1.5l11 51q45 -2 93.5 -2h111.5q39 0 64.5 4.5t40.5 16t20.5 30t5.5 46.5q0 42 -21 61.5t-77 24.5l-107 10q-74 8 -106.5 40.5
t-32.5 90.5v11q0 67 44.5 99.5t140.5 32.5h97t108 -2l-11 -51q-51 2 -102 2h-95q-70 0 -98 -18.5t-28 -63.5q0 -19 3.5 -33.5t13.5 -25.5t29 -18t49 -10zM198 -102q0 21 11 32t31 11t31 -11t11 -31q0 -12 -3.5 -22.5t-11.5 -26.5l-37 -82h-44l34 92q-22 9 -22 38z" />
    <glyph glyph-name="uni021A" unicode="&#x21a;" horiz-adv-x="624" 
d="M597 712l-12 -54h-244v-658h-59v658h-255l12 54h558zM258 -232l35 91q-23 10 -23 39q0 43 43 43q42 0 42 -42q0 -11 -3.5 -22t-10.5 -27l-38 -82h-45z" />
    <glyph glyph-name="uni021B" unicode="&#x21b;" 
d="M72 644l58 11v-141h211l-11 -50h-200v-289q0 -37 5 -61t18.5 -38t37 -19.5t61.5 -5.5h77l-11 -51h-66q-51 0 -85.5 7.5t-55.5 27t-30 53t-9 86.5v470zM155 -102q0 21 11 32t31 11t31 -11t11 -31q0 -12 -3.5 -22.5t-11.5 -26.5l-37 -82h-44l34 92q-22 9 -22 38z" />
    <glyph glyph-name="dotlessj" unicode="&#x237;" horiz-adv-x="202" 
d="M-92 -125q18 -2 33 -2h29q30 0 50 5t31.5 18t16 35t4.5 56v527h58v-526q0 -48 -8.5 -80t-27.5 -50.5t-49.5 -26.5t-73.5 -8q-18 0 -39 0.5t-35 1.5z" />
    <glyph glyph-name="apostrophe" unicode="&#x2bc;" horiz-adv-x="243" 
d="M131 736q44 0 44 -45q0 -12 -4.5 -25t-12.5 -28l-55 -117h-45l51 130q-9 5 -15 13.5t-6 25.5q0 23 10 34.5t33 11.5z" />
    <glyph glyph-name="caron" unicode="&#x2c7;" horiz-adv-x="500" 
d="M220 599l-112 124h59l83 -87l84 87h59l-112 -124h-61z" />
    <glyph glyph-name="uni02C9" unicode="&#x2c9;" horiz-adv-x="500" 
d="M119 674h261v-48h-261v48z" />
    <glyph glyph-name="breve" unicode="&#x2d8;" horiz-adv-x="500" 
d="M250 596q-75 0 -109 31t-34 92h51q0 -38 20 -58.5t72 -20.5t72 20.5t20 58.5h51q0 -61 -34 -92t-109 -31z" />
    <glyph glyph-name="dotaccent" unicode="&#x2d9;" horiz-adv-x="500" 
d="M293 659q0 -24 -11 -34t-32 -10t-32 10t-11 34q0 22 10 33t33 11t33 -11t10 -33z" />
    <glyph glyph-name="ring" unicode="&#x2da;" horiz-adv-x="500" 
d="M132 680q0 55 31 83.5t87 28.5t87 -28.5t31 -83.5t-31 -83.5t-87 -28.5t-87 28.5t-31 83.5zM321 680q0 39 -16.5 55t-54.5 16t-54.5 -16t-16.5 -55t16.5 -55t54.5 -16t54.5 16t16.5 55z" />
    <glyph glyph-name="ogonek" unicode="&#x2db;" horiz-adv-x="500" 
d="M308 -183h-43q-45 0 -66 15t-21 48t24 66t70 62l47 -8q-48 -31 -68 -58t-20 -50q0 -14 9.5 -20.5t33.5 -6.5h45z" />
    <glyph glyph-name="hungarumlaut" unicode="&#x2dd;" horiz-adv-x="500" 
d="M192 725h64l-99 -126h-55zM337 725h64l-99 -126h-55z" />
    <glyph glyph-name="uni20B9" unicode="&#x20b9;" horiz-adv-x="595" 
d="M82 501h293q-2 37 -12 61.5t-31 39.5t-54.5 21t-83.5 6h-112v51h445l-10 -50h-148q25 -15 43 -45.5t21 -83.5h94l-10 -52h-84q-5 -88 -57.5 -130t-163.5 -42h-45l315 -277h-82l-318 283v44h124q46 0 77.5 7t51 22t29 38t11.5 55h-293v52z" />
    <glyph glyph-name="Wgrave" unicode="&#x1e80;" horiz-adv-x="868" 
d="M779 712h57l-172 -712h-65l-166 627l-167 -627h-65l-169 712h61l144 -632l169 632h58l167 -632zM384 892l117 -119h-63l-130 119h76z" />
    <glyph glyph-name="wgrave" unicode="&#x1e81;" horiz-adv-x="739" 
d="M369 439l-127 -439h-62l-156 514h60l128 -449l129 449h60l128 -451l130 451h56l-156 -514h-62zM432 599h-61l-129 126h71z" />
    <glyph glyph-name="Wacute" unicode="&#x1e82;" horiz-adv-x="868" 
d="M779 712h57l-172 -712h-65l-166 627l-167 -627h-65l-169 712h61l144 -632l169 632h58l167 -632zM568 892l-130 -119h-63l117 119h76z" />
    <glyph glyph-name="wacute" unicode="&#x1e83;" horiz-adv-x="739" 
d="M369 439l-127 -439h-62l-156 514h60l128 -449l129 449h60l128 -451l130 451h56l-156 -514h-62zM414 725h71l-129 -126h-61z" />
    <glyph glyph-name="Wdieresis" unicode="&#x1e84;" horiz-adv-x="868" 
d="M779 712h57l-172 -712h-65l-166 627l-167 -627h-65l-169 712h61l144 -632l169 632h58l167 -632zM398 816q0 -43 -42 -43t-42 43t42 43t42 -43zM554 816q0 -43 -42 -43q-41 0 -41 43t41 43q42 0 42 -43z" />
    <glyph glyph-name="wdieresis" unicode="&#x1e85;" horiz-adv-x="739" 
d="M369 439l-127 -439h-62l-156 514h60l128 -449l129 449h60l128 -451l130 451h56l-156 -514h-62zM335 657q0 -23 -10.5 -32.5t-30.5 -9.5t-30.5 9.5t-10.5 32.5t10.5 32.5t30.5 9.5t30.5 -9.5t10.5 -32.5zM487 657q0 -23 -10 -32.5t-31 -9.5q-20 0 -30.5 9.5t-10.5 32.5
t10 32.5t31 9.5q20 0 30.5 -9.5t10.5 -32.5z" />
    <glyph glyph-name="Ygrave" unicode="&#x1ef2;" horiz-adv-x="618" 
d="M82 712l230 -353l227 353h63l-262 -404v-308h-59v308l-265 404h66zM261 892l117 -119h-63l-130 119h76z" />
    <glyph glyph-name="ygrave" unicode="&#x1ef3;" horiz-adv-x="566" 
d="M114 -123q33 -2 69 -2.5t81 -0.5q48 0 80.5 7.5t53 26t29 49.5t8.5 78v40q-20 -29 -57.5 -43t-102.5 -14q-57 0 -96 11t-63 33.5t-34 57.5t-10 84v310h58v-303q0 -35 4.5 -61.5t20 -44.5t45 -27t79.5 -9q49 0 79.5 8.5t47.5 26t23.5 45t6.5 66.5v299h58v-479
q0 -59 -12.5 -99.5t-40 -65.5t-71 -36t-105.5 -11q-46 0 -84.5 0.5t-77.5 2.5zM353 599h-61l-129 126h71z" />
    <glyph glyph-name="fraction" unicode="&#x2044;" horiz-adv-x="85" 
d="M226 680h57l-425 -680h-57z" />
    <glyph glyph-name="zerosuperior" unicode="&#x2070;" 
d="M186 326q32 0 53 6t33.5 21t17.5 41.5t5 67.5v44q0 41 -5 67.5t-17.5 41.5t-33.5 21t-53 6t-53.5 -6t-34 -21t-17.5 -41.5t-5 -67.5v-44q0 -41 5 -67.5t17.5 -41.5t34 -21t53.5 -6zM186 279q-89 0 -125.5 42t-36.5 137v52q0 95 36.5 137t125.5 42t125 -42t36 -137v-52
q0 -95 -36 -137t-125 -42z" />
    <glyph glyph-name="onesuperior" unicode="&#xb9;" 
d="M316 334l-9 -46h-241l9 46h91v301h-100l10 45h140v-346h100z" />
    <glyph glyph-name="twosuperior" unicode="&#xb2;" 
d="M158 450q-17 -6 -27.5 -12.5t-16.5 -17t-8 -25t-2 -36.5v-25h214l-9 -46h-255v68q0 29 4 51t14 38t27.5 27.5t43.5 20.5l59 20q37 12 50 25t13 43q0 31 -17 43t-63 12q-32 0 -64.5 -0.5t-58.5 -1.5l9 45q29 2 53 2h59q69 0 100.5 -22.5t31.5 -72.5v-8q0 -42 -20.5 -65.5
t-69.5 -39.5z" />
    <glyph glyph-name="threesuperior" unicode="&#xb3;" 
d="M309 580q0 -33 -15.5 -54.5t-43.5 -28.5q31 -7 50.5 -30t19.5 -63v-6q0 -56 -36 -83.5t-120 -27.5h-29h-25.5t-26.5 0.5t-32 1.5l9 46q38 -2 60.5 -2h46.5q57 0 79 14t22 52v5q0 38 -20 53t-76 15h-89l9 44h76q55 0 73 15t18 46v6q0 30 -18 41t-64 11h-53t-62 -1l9 46
q30 1 60 1h48q69 0 99.5 -23t30.5 -72v-6z" />
    <glyph glyph-name="foursuperior" unicode="&#x2074;" 
d="M84 422h154v116l49 8v-124h61l-10 -44h-51v-90h-49v90h-208v40l149 262h53z" />
    <glyph glyph-name="fivesuperior" unicode="&#x2075;" 
d="M62 478v202h239l-10 -46h-181v-112h71q40 0 67 -6t43 -19.5t22.5 -34.5t6.5 -52v-9q0 -59 -34.5 -86.5t-116.5 -27.5h-61t-57 2l10 45q17 0 30 -0.5t25.5 -1t25.5 -0.5h30q54 0 75.5 14.5t21.5 56.5v6q0 21 -3.5 34t-13.5 21t-27.5 11t-45.5 3h-117z" />
    <glyph glyph-name="sixsuperior" unicode="&#x2076;" 
d="M292 634q-20 1 -41 1h-45q-35 0 -57 -5.5t-34.5 -18t-17.5 -31.5t-5 -46v-30q13 17 39.5 27t62.5 10q66 0 101 -29t35 -98v-8q0 -66 -37.5 -96.5t-106.5 -30.5q-70 0 -107 31t-37 105v115q0 81 38 116t126 35h49.5t45.5 -1zM186 497q-48 0 -71 -17.5t-23 -67.5v-4
q0 -49 22.5 -66.5t70.5 -17.5t71 17.5t23 66.5v5q0 49 -22.5 66.5t-70.5 17.5z" />
    <glyph glyph-name="sevensuperior" unicode="&#x2077;" 
d="M106 288l159 346h-216l10 46h259v-41l-157 -351h-55z" />
    <glyph glyph-name="eightsuperior" unicode="&#x2078;" 
d="M186 279q-41 0 -69 8t-45 23t-24.5 36t-7.5 47v7q0 36 18 61t53 35q-29 8 -45.5 30.5t-16.5 54.5v7q0 46 32.5 73.5t104.5 27.5t104 -27t32 -74v-7q0 -32 -16.5 -54.5t-46.5 -30.5q35 -10 54 -34.5t19 -61.5v-7q0 -52 -33 -83t-113 -31zM186 322q46 0 70.5 16t24.5 57v7
q-2 38 -22.5 55t-72.5 17q-53 0 -74 -17.5t-21 -54.5v-7q0 -41 24 -57t71 -16zM186 516q49 0 67.5 16t18.5 48v6q0 32 -19 46.5t-67 14.5t-67 -14.5t-19 -46.5v-6q0 -32 18 -48t68 -16z" />
    <glyph glyph-name="ninesuperior" unicode="&#x2079;" 
d="M78 334q20 -1 40.5 -1h46.5q34 0 56 5.5t34.5 18t17.5 31.5t5 46v29q-13 -17 -39.5 -26.5t-62.5 -9.5q-66 0 -100.5 29t-34.5 98v8q0 67 37.5 97t105.5 30q70 0 107 -31t37 -105v-115q0 -80 -38 -115.5t-125 -35.5h-49.5t-46.5 1zM184 471q48 0 71 17.5t23 67.5v5
q0 48 -22.5 65.5t-70.5 17.5t-71 -17.5t-23 -65.5v-5q0 -50 22.5 -67.5t70.5 -17.5z" />
    <glyph glyph-name="zeroinferior" unicode="&#x2080;" 
d="M186 38q32 0 53 6t33.5 21t17.5 41.5t5 67.5v44q0 41 -5 67.5t-17.5 41.5t-33.5 21t-53 6t-53.5 -6t-34 -21t-17.5 -41.5t-5 -67.5v-44q0 -41 5 -67.5t17.5 -41.5t34 -21t53.5 -6zM186 -9q-89 0 -125.5 42t-36.5 137v52q0 95 36.5 137t125.5 42t125 -42t36 -137v-52
q0 -95 -36 -137t-125 -42z" />
    <glyph glyph-name="oneinferior" unicode="&#x2081;" 
d="M316 46l-9 -46h-241l9 46h91v301h-100l10 45h140v-346h100z" />
    <glyph glyph-name="twoinferior" unicode="&#x2082;" 
d="M158 162q-17 -6 -27.5 -12.5t-16.5 -17t-8 -25t-2 -36.5v-25h214l-9 -46h-255v68q0 29 4 51t14 38t27.5 27.5t43.5 20.5l59 20q37 12 50 25t13 43q0 31 -17 43t-63 12q-32 0 -64.5 -0.5t-58.5 -1.5l9 45q29 2 53 2h59q69 0 100.5 -22.5t31.5 -72.5v-8q0 -42 -20.5 -65.5
t-69.5 -39.5z" />
    <glyph glyph-name="threeinferior" unicode="&#x2083;" 
d="M309 292q0 -33 -15.5 -54.5t-43.5 -28.5q31 -7 50.5 -30t19.5 -63v-6q0 -56 -36 -83.5t-120 -27.5h-29h-25.5t-26.5 0.5t-32 1.5l9 46q38 -2 60.5 -2h46.5q57 0 79 14t22 52v5q0 38 -20 53t-76 15h-89l9 44h76q55 0 73 15t18 46v6q0 30 -18 41t-64 11h-53t-62 -1l9 46
q30 1 60 1h48q69 0 99.5 -23t30.5 -72v-6z" />
    <glyph glyph-name="fourinferior" unicode="&#x2084;" 
d="M84 134h154v116l49 8v-124h61l-10 -44h-51v-90h-49v90h-208v40l149 262h53z" />
    <glyph glyph-name="fiveinferior" unicode="&#x2085;" 
d="M62 190v202h239l-10 -46h-181v-112h71q40 0 67 -6t43 -19.5t22.5 -34.5t6.5 -52v-9q0 -59 -34.5 -86.5t-116.5 -27.5h-61t-57 2l10 45q17 0 30 -0.5t25.5 -1t25.5 -0.5h30q54 0 75.5 14.5t21.5 56.5v6q0 21 -3.5 34t-13.5 21t-27.5 11t-45.5 3h-117z" />
    <glyph glyph-name="sixinferior" unicode="&#x2086;" 
d="M292 346q-20 1 -41 1h-45q-35 0 -57 -5.5t-34.5 -18t-17.5 -31.5t-5 -46v-30q13 17 39.5 27t62.5 10q66 0 101 -29t35 -98v-8q0 -66 -37.5 -96.5t-106.5 -30.5q-70 0 -107 31t-37 105v115q0 81 38 116t126 35h49.5t45.5 -1zM186 209q-48 0 -71 -17.5t-23 -67.5v-4
q0 -49 22.5 -66.5t70.5 -17.5t71 17.5t23 66.5v5q0 49 -22.5 66.5t-70.5 17.5z" />
    <glyph glyph-name="seveninferior" unicode="&#x2087;" 
d="M106 0l159 346h-216l10 46h259v-41l-157 -351h-55z" />
    <glyph glyph-name="eightinferior" unicode="&#x2088;" 
d="M186 -9q-41 0 -69 8t-45 23t-24.5 36t-7.5 47v7q0 36 18 61t53 35q-29 8 -45.5 30.5t-16.5 54.5v7q0 46 32.5 73.5t104.5 27.5t104 -27t32 -74v-7q0 -32 -16.5 -54.5t-46.5 -30.5q35 -10 54 -34.5t19 -61.5v-7q0 -52 -33 -83t-113 -31zM186 34q46 0 70.5 16t24.5 57v7
q-2 38 -22.5 55t-72.5 17q-53 0 -74 -17.5t-21 -54.5v-7q0 -41 24 -57t71 -16zM186 228q49 0 67.5 16t18.5 48v6q0 32 -19 46.5t-67 14.5t-67 -14.5t-19 -46.5v-6q0 -32 18 -48t68 -16z" />
    <glyph glyph-name="nineinferior" unicode="&#x2089;" 
d="M78 46q20 -1 40.5 -1h46.5q34 0 56 5.5t34.5 18t17.5 31.5t5 46v29q-13 -17 -39.5 -26.5t-62.5 -9.5q-66 0 -100.5 29t-34.5 98v8q0 67 37.5 97t105.5 30q70 0 107 -31t37 -105v-115q0 -80 -38 -115.5t-125 -35.5h-49.5t-46.5 1zM184 183q48 0 71 17.5t23 67.5v5
q0 48 -22.5 65.5t-70.5 17.5t-71 -17.5t-23 -65.5v-5q0 -50 22.5 -67.5t70.5 -17.5z" />
    <glyph glyph-name="afii61289" unicode="&#x2113;" horiz-adv-x="370" 
d="M102 210q-5 -6 -12 -14t-15 -16.5t-15.5 -17t-12.5 -14.5l-29 33l84 89v276q0 51 8.5 85t24.5 54.5t38 29.5t48 9q51 0 79.5 -32t28.5 -103q0 -45 -10.5 -82.5t-32 -75.5t-55 -79.5t-78.5 -92.5v-108q0 -68 18 -94.5t57 -26.5q26 0 48 7.5t43 21.5l19 -38
q-50 -38 -116 -38q-62 0 -91 40t-29 118v69zM153 323q33 39 57 72t39 64t22 61.5t7 65.5q0 50 -14.5 70t-45.5 20t-48 -26.5t-17 -96.5v-230z" />
    <glyph glyph-name="estimated" unicode="&#x212e;" horiz-adv-x="785" 
d="M389 656q-70 0 -123 -16.5t-89 -52.5v-211h431v211q-39 33 -93.5 51t-125.5 18zM691 149q-29 -45 -61 -75.5t-68 -49t-78 -26.5t-91 -8q-83 0 -148 27.5t-109.5 74.5t-68 111t-23.5 137t23 136.5t67.5 109.5t108.5 72.5t146 26.5t147 -25t110 -71t69.5 -109.5
t25.5 -139.5h-564v-245q38 -38 89.5 -58t127.5 -20q93 0 159 33.5t116 113.5z" />
    <glyph glyph-name="onethird" unicode="&#x2153;" horiz-adv-x="839" 
d="M602 680h57l-425 -680h-57zM776 292q0 -33 -15.5 -54.5t-43.5 -28.5q31 -7 50.5 -30t19.5 -63v-6q0 -56 -36 -83.5t-120 -27.5h-29h-25.5t-26.5 0.5t-32 1.5l9 46q38 -2 60.5 -2h46.5q57 0 79 14t22 52v5q0 38 -20 53t-76 15h-89l9 44h76q55 0 73 15t18 46v6q0 30 -18 41
t-64 11h-53t-62 -1l9 46q30 1 60 1h48q69 0 99.5 -23t30.5 -72v-6zM316 334l-9 -46h-241l9 46h91v301h-100l10 45h140v-346h100z" />
    <glyph glyph-name="twothirds" unicode="&#x2154;" horiz-adv-x="839" 
d="M603 680h57l-425 -680h-57zM776 292q0 -33 -15.5 -54.5t-43.5 -28.5q31 -7 50.5 -30t19.5 -63v-6q0 -56 -36 -83.5t-120 -27.5h-29h-25.5t-26.5 0.5t-32 1.5l9 46q38 -2 60.5 -2h46.5q57 0 79 14t22 52v5q0 38 -20 53t-76 15h-89l9 44h76q55 0 73 15t18 46v6q0 30 -18 41
t-64 11h-53t-62 -1l9 46q30 1 60 1h48q69 0 99.5 -23t30.5 -72v-6zM158 450q-17 -6 -27.5 -12.5t-16.5 -17t-8 -25t-2 -36.5v-25h214l-9 -46h-255v68q0 29 4 51t14 38t27.5 27.5t43.5 20.5l59 20q37 12 50 25t13 43q0 31 -17 43t-63 12q-32 0 -64.5 -0.5t-58.5 -1.5l9 45
q29 2 53 2h59q69 0 100.5 -22.5t31.5 -72.5v-8q0 -42 -20.5 -65.5t-69.5 -39.5z" />
    <glyph glyph-name="oneeighth" unicode="&#x215b;" horiz-adv-x="839" 
d="M607 680h57l-425 -680h-57zM653 -9q-41 0 -69 8t-45 23t-24.5 36t-7.5 47v7q0 36 18 61t53 35q-29 8 -45.5 30.5t-16.5 54.5v7q0 46 32.5 73.5t104.5 27.5t104 -27t32 -74v-7q0 -32 -16.5 -54.5t-46.5 -30.5q35 -10 54 -34.5t19 -61.5v-7q0 -52 -33 -83t-113 -31zM653 34
q46 0 70.5 16t24.5 57v7q-2 38 -22.5 55t-72.5 17q-53 0 -74 -17.5t-21 -54.5v-7q0 -41 24 -57t71 -16zM653 228q49 0 67.5 16t18.5 48v6q0 32 -19 46.5t-67 14.5t-67 -14.5t-19 -46.5v-6q0 -32 18 -48t68 -16zM316 334l-9 -46h-241l9 46h91v301h-100l10 45h140v-346h100z
" />
    <glyph glyph-name="threeeighths" unicode="&#x215c;" horiz-adv-x="839" 
d="M598 680h57l-425 -680h-57zM653 -9q-41 0 -69 8t-45 23t-24.5 36t-7.5 47v7q0 36 18 61t53 35q-29 8 -45.5 30.5t-16.5 54.5v7q0 46 32.5 73.5t104.5 27.5t104 -27t32 -74v-7q0 -32 -16.5 -54.5t-46.5 -30.5q35 -10 54 -34.5t19 -61.5v-7q0 -52 -33 -83t-113 -31zM653 34
q46 0 70.5 16t24.5 57v7q-2 38 -22.5 55t-72.5 17q-53 0 -74 -17.5t-21 -54.5v-7q0 -41 24 -57t71 -16zM653 228q49 0 67.5 16t18.5 48v6q0 32 -19 46.5t-67 14.5t-67 -14.5t-19 -46.5v-6q0 -32 18 -48t68 -16zM309 580q0 -33 -15.5 -54.5t-43.5 -28.5q31 -7 50.5 -30
t19.5 -63v-6q0 -56 -36 -83.5t-120 -27.5h-29h-25.5t-26.5 0.5t-32 1.5l9 46q38 -2 60.5 -2h46.5q57 0 79 14t22 52v5q0 38 -20 53t-76 15h-89l9 44h76q55 0 73 15t18 46v6q0 30 -18 41t-64 11h-53t-62 -1l9 46q30 1 60 1h48q69 0 99.5 -23t30.5 -72v-6z" />
    <glyph glyph-name="fiveeighths" unicode="&#x215d;" horiz-adv-x="839" 
d="M600 680h57l-425 -680h-57zM653 -9q-41 0 -69 8t-45 23t-24.5 36t-7.5 47v7q0 36 18 61t53 35q-29 8 -45.5 30.5t-16.5 54.5v7q0 46 32.5 73.5t104.5 27.5t104 -27t32 -74v-7q0 -32 -16.5 -54.5t-46.5 -30.5q35 -10 54 -34.5t19 -61.5v-7q0 -52 -33 -83t-113 -31zM653 34
q46 0 70.5 16t24.5 57v7q-2 38 -22.5 55t-72.5 17q-53 0 -74 -17.5t-21 -54.5v-7q0 -41 24 -57t71 -16zM653 228q49 0 67.5 16t18.5 48v6q0 32 -19 46.5t-67 14.5t-67 -14.5t-19 -46.5v-6q0 -32 18 -48t68 -16zM62 478v202h239l-10 -46h-181v-112h71q40 0 67 -6t43 -19.5
t22.5 -34.5t6.5 -52v-9q0 -59 -34.5 -86.5t-116.5 -27.5h-61t-57 2l10 45q17 0 30 -0.5t25.5 -1t25.5 -0.5h30q54 0 75.5 14.5t21.5 56.5v6q0 21 -3.5 34t-13.5 21t-27.5 11t-45.5 3h-117z" />
    <glyph glyph-name="seveneighths" unicode="&#x215e;" horiz-adv-x="839" 
d="M564 680h57l-425 -680h-57zM653 -9q-41 0 -69 8t-45 23t-24.5 36t-7.5 47v7q0 36 18 61t53 35q-29 8 -45.5 30.5t-16.5 54.5v7q0 46 32.5 73.5t104.5 27.5t104 -27t32 -74v-7q0 -32 -16.5 -54.5t-46.5 -30.5q35 -10 54 -34.5t19 -61.5v-7q0 -52 -33 -83t-113 -31zM653 34
q46 0 70.5 16t24.5 57v7q-2 38 -22.5 55t-72.5 17q-53 0 -74 -17.5t-21 -54.5v-7q0 -41 24 -57t71 -16zM653 228q49 0 67.5 16t18.5 48v6q0 32 -19 46.5t-67 14.5t-67 -14.5t-19 -46.5v-6q0 -32 18 -48t68 -16zM106 288l159 346h-216l10 46h259v-41l-157 -351h-55z" />
    <glyph glyph-name="onefifth" unicode="&#x2155;" horiz-adv-x="839" 
d="M603 680h57l-425 -680h-57zM529 190v202h239l-10 -46h-181v-112h71q40 0 67 -6t43 -19.5t22.5 -34.5t6.5 -52v-9q0 -59 -34.5 -86.5t-116.5 -27.5h-61t-57 2l10 45q17 0 30 -0.5t25.5 -1t25.5 -0.5h30q54 0 75.5 14.5t21.5 56.5v6q0 21 -3.5 34t-13.5 21t-27.5 11
t-45.5 3h-117zM316 334l-9 -46h-241l9 46h91v301h-100l10 45h140v-346h100z" />
    <glyph glyph-name="twofifths" unicode="&#x2156;" horiz-adv-x="839" 
d="M602 680h57l-425 -680h-57zM529 190v202h239l-10 -46h-181v-112h71q40 0 67 -6t43 -19.5t22.5 -34.5t6.5 -52v-9q0 -59 -34.5 -86.5t-116.5 -27.5h-61t-57 2l10 45q17 0 30 -0.5t25.5 -1t25.5 -0.5h30q54 0 75.5 14.5t21.5 56.5v6q0 21 -3.5 34t-13.5 21t-27.5 11
t-45.5 3h-117zM158 450q-17 -6 -27.5 -12.5t-16.5 -17t-8 -25t-2 -36.5v-25h214l-9 -46h-255v68q0 29 4 51t14 38t27.5 27.5t43.5 20.5l59 20q37 12 50 25t13 43q0 31 -17 43t-63 12q-32 0 -64.5 -0.5t-58.5 -1.5l9 45q29 2 53 2h59q69 0 100.5 -22.5t31.5 -72.5v-8
q0 -42 -20.5 -65.5t-69.5 -39.5z" />
    <glyph glyph-name="threefifths" unicode="&#x2157;" horiz-adv-x="839" 
d="M592 680h57l-425 -680h-57zM529 190v202h239l-10 -46h-181v-112h71q40 0 67 -6t43 -19.5t22.5 -34.5t6.5 -52v-9q0 -59 -34.5 -86.5t-116.5 -27.5h-61t-57 2l10 45q17 0 30 -0.5t25.5 -1t25.5 -0.5h30q54 0 75.5 14.5t21.5 56.5v6q0 21 -3.5 34t-13.5 21t-27.5 11
t-45.5 3h-117zM309 580q0 -33 -15.5 -54.5t-43.5 -28.5q31 -7 50.5 -30t19.5 -63v-6q0 -56 -36 -83.5t-120 -27.5h-29h-25.5t-26.5 0.5t-32 1.5l9 46q38 -2 60.5 -2h46.5q57 0 79 14t22 52v5q0 38 -20 53t-76 15h-89l9 44h76q55 0 73 15t18 46v6q0 30 -18 41t-64 11h-53
t-62 -1l9 46q30 1 60 1h48q69 0 99.5 -23t30.5 -72v-6z" />
    <glyph glyph-name="fourfifths" unicode="&#x2158;" horiz-adv-x="839" 
d="M602 680h57l-425 -680h-57zM529 190v202h239l-10 -46h-181v-112h71q40 0 67 -6t43 -19.5t22.5 -34.5t6.5 -52v-9q0 -59 -34.5 -86.5t-116.5 -27.5h-61t-57 2l10 45q17 0 30 -0.5t25.5 -1t25.5 -0.5h30q54 0 75.5 14.5t21.5 56.5v6q0 21 -3.5 34t-13.5 21t-27.5 11
t-45.5 3h-117zM84 422h154v116l49 8v-124h61l-10 -44h-51v-90h-49v90h-208v40l149 262h53z" />
    <glyph glyph-name="onesixth" unicode="&#x2159;" horiz-adv-x="839" 
d="M615 680h57l-425 -680h-57zM759 346q-20 1 -41 1h-45q-35 0 -57 -5.5t-34.5 -18t-17.5 -31.5t-5 -46v-30q13 17 39.5 27t62.5 10q66 0 101 -29t35 -98v-8q0 -66 -37.5 -96.5t-106.5 -30.5q-70 0 -107 31t-37 105v115q0 81 38 116t126 35h49.5t45.5 -1zM653 209
q-48 0 -71 -17.5t-23 -67.5v-4q0 -49 22.5 -66.5t70.5 -17.5t71 17.5t23 66.5v5q0 49 -22.5 66.5t-70.5 17.5zM316 334l-9 -46h-241l9 46h91v301h-100l10 45h140v-346h100z" />
    <glyph glyph-name="fivesixths" unicode="&#x215a;" horiz-adv-x="839" 
d="M604 680h57l-425 -680h-57zM759 346q-20 1 -41 1h-45q-35 0 -57 -5.5t-34.5 -18t-17.5 -31.5t-5 -46v-30q13 17 39.5 27t62.5 10q66 0 101 -29t35 -98v-8q0 -66 -37.5 -96.5t-106.5 -30.5q-70 0 -107 31t-37 105v115q0 81 38 116t126 35h49.5t45.5 -1zM653 209
q-48 0 -71 -17.5t-23 -67.5v-4q0 -49 22.5 -66.5t70.5 -17.5t71 17.5t23 66.5v5q0 49 -22.5 66.5t-70.5 17.5zM62 478v202h239l-10 -46h-181v-112h71q40 0 67 -6t43 -19.5t22.5 -34.5t6.5 -52v-9q0 -59 -34.5 -86.5t-116.5 -27.5h-61t-57 2l10 45q17 0 30 -0.5t25.5 -1
t25.5 -0.5h30q54 0 75.5 14.5t21.5 56.5v6q0 21 -3.5 34t-13.5 21t-27.5 11t-45.5 3h-117z" />
    <glyph glyph-name="oneseventh" unicode="&#x2150;" horiz-adv-x="839" 
d="M604 680h57l-425 -680h-57zM573 0l159 346h-216l10 46h259v-41l-157 -351h-55zM316 334l-9 -46h-241l9 46h91v301h-100l10 45h140v-346h100z" />
    <glyph glyph-name="twosevenths" unicode="&#xf507;" horiz-adv-x="839" 
d="M603 680h57l-425 -680h-57zM573 0l159 346h-216l10 46h259v-41l-157 -351h-55zM158 450q-17 -6 -27.5 -12.5t-16.5 -17t-8 -25t-2 -36.5v-25h214l-9 -46h-255v68q0 29 4 51t14 38t27.5 27.5t43.5 20.5l59 20q37 12 50 25t13 43q0 31 -17 43t-63 12q-32 0 -64.5 -0.5
t-58.5 -1.5l9 45q29 2 53 2h59q69 0 100.5 -22.5t31.5 -72.5v-8q0 -42 -20.5 -65.5t-69.5 -39.5z" />
    <glyph glyph-name="threesevenths" unicode="&#xf508;" horiz-adv-x="839" 
d="M590 680h57l-425 -680h-57zM573 0l159 346h-216l10 46h259v-41l-157 -351h-55zM309 580q0 -33 -15.5 -54.5t-43.5 -28.5q31 -7 50.5 -30t19.5 -63v-6q0 -56 -36 -83.5t-120 -27.5h-29h-25.5t-26.5 0.5t-32 1.5l9 46q38 -2 60.5 -2h46.5q57 0 79 14t22 52v5q0 38 -20 53
t-76 15h-89l9 44h76q55 0 73 15t18 46v6q0 30 -18 41t-64 11h-53t-62 -1l9 46q30 1 60 1h48q69 0 99.5 -23t30.5 -72v-6z" />
    <glyph glyph-name="foursevenths" unicode="&#xf509;" horiz-adv-x="839" 
d="M602 680h57l-425 -680h-57zM573 0l159 346h-216l10 46h259v-41l-157 -351h-55zM84 422h154v116l49 8v-124h61l-10 -44h-51v-90h-49v90h-208v40l149 262h53z" />
    <glyph glyph-name="fivesevenths" unicode="&#xf50a;" horiz-adv-x="839" 
d="M590 680h57l-425 -680h-57zM573 0l159 346h-216l10 46h259v-41l-157 -351h-55zM62 478v202h239l-10 -46h-181v-112h71q40 0 67 -6t43 -19.5t22.5 -34.5t6.5 -52v-9q0 -59 -34.5 -86.5t-116.5 -27.5h-61t-57 2l10 45q17 0 30 -0.5t25.5 -1t25.5 -0.5h30q54 0 75.5 14.5
t21.5 56.5v6q0 21 -3.5 34t-13.5 21t-27.5 11t-45.5 3h-117z" />
    <glyph glyph-name="sixsevenths" unicode="&#xf50b;" horiz-adv-x="839" 
d="M598 680h57l-425 -680h-57zM573 0l159 346h-216l10 46h259v-41l-157 -351h-55zM292 634q-20 1 -41 1h-45q-35 0 -57 -5.5t-34.5 -18t-17.5 -31.5t-5 -46v-30q13 17 39.5 27t62.5 10q66 0 101 -29t35 -98v-8q0 -66 -37.5 -96.5t-106.5 -30.5q-70 0 -107 31t-37 105v115
q0 81 38 116t126 35h49.5t45.5 -1zM186 497q-48 0 -71 -17.5t-23 -67.5v-4q0 -49 22.5 -66.5t70.5 -17.5t71 17.5t23 66.5v5q0 49 -22.5 66.5t-70.5 17.5z" />
    <glyph glyph-name="oneninth" unicode="&#x2151;" horiz-adv-x="839" 
d="M606 680h57l-425 -680h-57zM545 46q20 -1 40.5 -1h46.5q34 0 56 5.5t34.5 18t17.5 31.5t5 46v29q-13 -17 -39.5 -26.5t-62.5 -9.5q-66 0 -100.5 29t-34.5 98v8q0 67 37.5 97t105.5 30q70 0 107 -31t37 -105v-115q0 -80 -38 -115.5t-125 -35.5h-49.5t-46.5 1zM651 183
q48 0 71 17.5t23 67.5v5q0 48 -22.5 65.5t-70.5 17.5t-71 -17.5t-23 -65.5v-5q0 -50 22.5 -67.5t70.5 -17.5zM316 334l-9 -46h-241l9 46h91v301h-100l10 45h140v-346h100z" />
    <glyph glyph-name="twoninths" unicode="&#xf50d;" horiz-adv-x="839" 
d="M606 680h57l-425 -680h-57zM545 46q20 -1 40.5 -1h46.5q34 0 56 5.5t34.5 18t17.5 31.5t5 46v29q-13 -17 -39.5 -26.5t-62.5 -9.5q-66 0 -100.5 29t-34.5 98v8q0 67 37.5 97t105.5 30q70 0 107 -31t37 -105v-115q0 -80 -38 -115.5t-125 -35.5h-49.5t-46.5 1zM651 183
q48 0 71 17.5t23 67.5v5q0 48 -22.5 65.5t-70.5 17.5t-71 -17.5t-23 -65.5v-5q0 -50 22.5 -67.5t70.5 -17.5zM158 450q-17 -6 -27.5 -12.5t-16.5 -17t-8 -25t-2 -36.5v-25h214l-9 -46h-255v68q0 29 4 51t14 38t27.5 27.5t43.5 20.5l59 20q37 12 50 25t13 43q0 31 -17 43
t-63 12q-32 0 -64.5 -0.5t-58.5 -1.5l9 45q29 2 53 2h59q69 0 100.5 -22.5t31.5 -72.5v-8q0 -42 -20.5 -65.5t-69.5 -39.5z" />
    <glyph glyph-name="fourninths" unicode="&#xf50e;" horiz-adv-x="839" 
d="M605 680h57l-425 -680h-57zM545 46q20 -1 40.5 -1h46.5q34 0 56 5.5t34.5 18t17.5 31.5t5 46v29q-13 -17 -39.5 -26.5t-62.5 -9.5q-66 0 -100.5 29t-34.5 98v8q0 67 37.5 97t105.5 30q70 0 107 -31t37 -105v-115q0 -80 -38 -115.5t-125 -35.5h-49.5t-46.5 1zM651 183
q48 0 71 17.5t23 67.5v5q0 48 -22.5 65.5t-70.5 17.5t-71 -17.5t-23 -65.5v-5q0 -50 22.5 -67.5t70.5 -17.5zM84 422h154v116l49 8v-124h61l-10 -44h-51v-90h-49v90h-208v40l149 262h53z" />
    <glyph glyph-name="fiveninths" unicode="&#xf50f;" horiz-adv-x="839" 
d="M601 680h57l-425 -680h-57zM545 46q20 -1 40.5 -1h46.5q34 0 56 5.5t34.5 18t17.5 31.5t5 46v29q-13 -17 -39.5 -26.5t-62.5 -9.5q-66 0 -100.5 29t-34.5 98v8q0 67 37.5 97t105.5 30q70 0 107 -31t37 -105v-115q0 -80 -38 -115.5t-125 -35.5h-49.5t-46.5 1zM651 183
q48 0 71 17.5t23 67.5v5q0 48 -22.5 65.5t-70.5 17.5t-71 -17.5t-23 -65.5v-5q0 -50 22.5 -67.5t70.5 -17.5zM62 478v202h239l-10 -46h-181v-112h71q40 0 67 -6t43 -19.5t22.5 -34.5t6.5 -52v-9q0 -59 -34.5 -86.5t-116.5 -27.5h-61t-57 2l10 45q17 0 30 -0.5t25.5 -1
t25.5 -0.5h30q54 0 75.5 14.5t21.5 56.5v6q0 21 -3.5 34t-13.5 21t-27.5 11t-45.5 3h-117z" />
    <glyph glyph-name="sevenninths" unicode="&#xf510;" horiz-adv-x="839" 
d="M564 680h57l-425 -680h-57zM545 46q20 -1 40.5 -1h46.5q34 0 56 5.5t34.5 18t17.5 31.5t5 46v29q-13 -17 -39.5 -26.5t-62.5 -9.5q-66 0 -100.5 29t-34.5 98v8q0 67 37.5 97t105.5 30q70 0 107 -31t37 -105v-115q0 -80 -38 -115.5t-125 -35.5h-49.5t-46.5 1zM651 183
q48 0 71 17.5t23 67.5v5q0 48 -22.5 65.5t-70.5 17.5t-71 -17.5t-23 -65.5v-5q0 -50 22.5 -67.5t70.5 -17.5zM106 288l159 346h-216l10 46h259v-41l-157 -351h-55z" />
    <glyph glyph-name="eightninths" unicode="&#xf511;" horiz-adv-x="839" 
d="M603 680h57l-425 -680h-57zM545 46q20 -1 40.5 -1h46.5q34 0 56 5.5t34.5 18t17.5 31.5t5 46v29q-13 -17 -39.5 -26.5t-62.5 -9.5q-66 0 -100.5 29t-34.5 98v8q0 67 37.5 97t105.5 30q70 0 107 -31t37 -105v-115q0 -80 -38 -115.5t-125 -35.5h-49.5t-46.5 1zM651 183
q48 0 71 17.5t23 67.5v5q0 48 -22.5 65.5t-70.5 17.5t-71 -17.5t-23 -65.5v-5q0 -50 22.5 -67.5t70.5 -17.5zM186 279q-41 0 -69 8t-45 23t-24.5 36t-7.5 47v7q0 36 18 61t53 35q-29 8 -45.5 30.5t-16.5 54.5v7q0 46 32.5 73.5t104.5 27.5t104 -27t32 -74v-7
q0 -32 -16.5 -54.5t-46.5 -30.5q35 -10 54 -34.5t19 -61.5v-7q0 -52 -33 -83t-113 -31zM186 322q46 0 70.5 16t24.5 57v7q-2 38 -22.5 55t-72.5 17q-53 0 -74 -17.5t-21 -54.5v-7q0 -41 24 -57t71 -16zM186 516q49 0 67.5 16t18.5 48v6q0 32 -19 46.5t-67 14.5t-67 -14.5
t-19 -46.5v-6q0 -32 18 -48t68 -16z" />
    <glyph glyph-name="partialdiff" unicode="&#x2202;" horiz-adv-x="596" 
d="M286 463q73 0 116 -28.5t57 -65.5q8 46 12 80t4 63q0 50 -11.5 83t-37 53t-65.5 28.5t-96 8.5q-23 0 -53.5 -1t-72.5 -3l17 51q33 2 61.5 3t48.5 1q70 0 120.5 -12t82.5 -39t47 -70.5t15 -105.5q0 -20 -1.5 -40t-5 -45.5t-9 -60t-13.5 -82.5q-14 -82 -34.5 -138.5
t-51 -92t-72.5 -51t-99 -15.5q-93 0 -147.5 46t-54.5 141q0 14 1.5 28.5t3.5 31.5q10 64 31.5 108.5t52.5 72t70 39.5t84 12zM104 223q-2 -14 -3 -26.5t-1 -23.5q0 -139 150 -139q82 0 125 46t58 144q3 14 4 27t1 24q0 68 -37 103t-114 35q-82 0 -124.5 -46t-58.5 -144z" />
    <glyph glyph-name="Delta" unicode="&#x2206;" horiz-adv-x="651" 
d="M22 0l273 712h62l272 -712h-607zM102 53h445l-223 599z" />
    <glyph glyph-name="product" unicode="&#x220f;" horiz-adv-x="738" 
d="M705 661h-88v-749h-59v749h-378v-749h-59v749h-99l11 51h683z" />
    <glyph glyph-name="summation" unicode="&#x2211;" horiz-adv-x="526" 
d="M87 -33h425l-11 -54h-481v51l238 365l-218 332v51h469l-11 -54h-388l216 -326z" />
    <glyph glyph-name="uni2126" unicode="&#x2126;" horiz-adv-x="713" 
d="M67 412q0 90 18.5 151t55 98.5t90.5 53.5t124 16q71 0 125 -16t90.5 -53.5t55 -98.5t18.5 -151v-44q0 -64 -9.5 -113t-27 -87t-42.5 -66t-56 -50h157l-11 -52h-226v45q39 27 68 55.5t48 65t28.5 86t9.5 118.5v42q0 77 -13.5 128.5t-41 82t-70.5 43t-103 12.5
q-59 0 -102 -12.5t-71 -43t-41 -82t-13 -128.5v-42q0 -69 9.5 -118.5t28.5 -86t48 -65t68 -55.5v-45h-235l11 52h143q-31 22 -55.5 50t-42 66t-27 87t-9.5 113v44z" />
    <glyph glyph-name="minus" unicode="&#x2212;" horiz-adv-x="595" 
d="M89 368h417v-52h-417v52z" />
    <glyph glyph-name="uni2215" unicode="&#x2215;" horiz-adv-x="85" 
d="M226 680h57l-425 -680h-57z" />
    <glyph glyph-name="uni2219" unicode="&#x2219;" horiz-adv-x="174" 
d="M132 357q0 -47 -45 -47t-45 47q0 48 45 48t45 -48z" />
    <glyph glyph-name="radical" unicode="&#x221a;" horiz-adv-x="614" 
d="M5 372v56l151 81l171 -450l238 820h59l-263 -884h-67l-172 440z" />
    <glyph glyph-name="infinity" unicode="&#x221e;" horiz-adv-x="692" 
d="M85 344q0 -59 27 -86t75 -27q19 0 36.5 4.5t34 17.5t31.5 36t29 59q-14 36 -29 59t-31.5 35.5t-34 17.5t-36.5 5q-48 0 -75 -27.5t-27 -85.5v-8zM346 298q-28 -67 -69.5 -92t-92.5 -25q-69 0 -110.5 41t-41.5 120v12q0 78 41.5 119t110.5 41q51 0 92.5 -24.5t69.5 -91.5
q27 67 68.5 91.5t93.5 24.5q69 0 110.5 -41t41.5 -120v-11q0 -79 -41.5 -120t-110.5 -41q-26 0 -49.5 5.5t-44 19t-38 36t-30.5 56.5zM606 351q0 59 -27 86.5t-74 27.5q-19 0 -36.5 -5t-34 -17.5t-32 -35.5t-28.5 -59q13 -36 28.5 -59t32 -35.5t34 -17.5t36.5 -5q47 0 74 27
t27 86v7z" />
    <glyph glyph-name="integral" unicode="&#x222b;" horiz-adv-x="310" 
d="M26 -136q13 -1 31.5 -1.5t35.5 -0.5q57 0 77 19.5t20 66.5q0 16 -2.5 40.5t-7.5 53.5l-108 594q-6 32 -9 60.5t-3 46.5q0 70 39 103t117 33q18 0 39 -0.5t38 -1.5l-9 -52q-15 1 -34 1.5t-33 0.5q-57 0 -77 -19.5t-20 -66.5q0 -16 2.5 -40.5t7.5 -52.5l108 -595
q6 -32 9 -60t3 -47q0 -70 -39 -103t-116 -33q-20 0 -43 0.5t-34 1.5z" />
    <glyph glyph-name="approxequal" unicode="&#x2248;" horiz-adv-x="595" 
d="M515 287v-27q0 -65 -25.5 -94t-69.5 -29q-31 0 -59 12.5t-59 31.5l-15 9q-36 22 -58.5 33t-47.5 11q-24 0 -36 -16.5t-12 -52.5v-27h-52v27q0 65 25.5 94t69.5 29q31 0 59 -12.5t59 -31.5l15 -9q36 -22 58.5 -33t47.5 -11q24 0 36 16.5t12 52.5v27h52zM515 511v-27
q0 -65 -25.5 -94t-69.5 -29q-31 0 -59 12.5t-59 31.5l-15 9q-36 22 -58.5 33t-47.5 11q-24 0 -36 -16.5t-12 -52.5v-27h-52v27q0 65 25.5 94t69.5 29q31 0 59 -12.5t59 -31.5l15 -9q36 -22 58.5 -33t47.5 -11q24 0 36 16.5t12 52.5v27h52z" />
    <glyph glyph-name="notequal" unicode="&#x2260;" horiz-adv-x="595" 
d="M89 470h259l66 108h55l-66 -108h103v-52h-135l-93 -153h228v-52h-260l-66 -109h-55l66 109h-102v52h134l93 153h-227v52z" />
    <glyph glyph-name="lessequal" unicode="&#x2264;" horiz-adv-x="595" 
d="M89 53h417v-52h-417v52zM91 369l414 178v-55l-353 -150l353 -148v-57l-414 179v53z" />
    <glyph glyph-name="greaterequal" unicode="&#x2265;" horiz-adv-x="595" 
d="M89 53h417v-52h-417v52zM504 316l-414 -179v57l352 148l-352 150v55l414 -178v-53z" />
    <glyph glyph-name="lozenge" unicode="&#x25ca;" horiz-adv-x="583" 
d="M318 0h-52l-238 356l237 356h52l238 -356zM292 58l198 298l-199 297l-198 -297z" />
    <glyph glyph-name="fi" unicode="&#xf001;" horiz-adv-x="513" 
d="M307 694q-54 0 -88.5 -10t-54 -31.5t-27 -55.5t-7.5 -83h191l-11 -50h-180v-464h-58v502q0 64 11.5 110.5t39 75.5t72.5 43t112 14q28 0 57.5 -0.5t65.5 -1.5l-11 -51q-23 1 -54.5 1.5t-57.5 0.5zM441 514v-514h-58v514h58z" />
    <glyph glyph-name="fl" unicode="&#xf002;" horiz-adv-x="525" 
d="M285 745q14 0 33 -0.5t32 -1.5l-11 -51q-9 1 -24.5 1.5t-25.5 0.5q-46 0 -76.5 -6.5t-49 -26t-26 -55t-7.5 -92.5h193l-11 -50h-182v-464h-58v521q0 63 11.5 106t37 69.5t66 37.5t98.5 11zM395 743h58v-743h-58v743z" />
    <glyph glyph-name="uni03A9" unicode="&#x3a9;" horiz-adv-x="713" 
d="M67 412q0 90 18.5 151t55 98.5t90.5 53.5t124 16q71 0 125 -16t90.5 -53.5t55 -98.5t18.5 -151v-44q0 -64 -9.5 -113t-27 -87t-42.5 -66t-56 -50h157l-11 -52h-226v45q39 27 68 55.5t48 65t28.5 86t9.5 118.5v42q0 77 -13.5 128.5t-41 82t-70.5 43t-103 12.5
q-59 0 -102 -12.5t-71 -43t-41 -82t-13 -128.5v-42q0 -69 9.5 -118.5t28.5 -86t48 -65t68 -55.5v-45h-235l11 52h143q-31 22 -55.5 50t-42 66t-27 87t-9.5 113v44z" />
    <glyph glyph-name="pi" unicode="&#x3c0;" horiz-adv-x="618" 
d="M24 463l11 51h559l-11 -51h-81v-463h-58v463h-270v-463h-59v463h-91z" />
    <glyph glyph-name="uni0394" unicode="&#x394;" horiz-adv-x="651" 
d="M22 0l273 712h62l272 -712h-607zM102 53h445l-223 599z" />
    <glyph glyph-name="uni03BC" unicode="&#x3bc;" horiz-adv-x="567" 
d="M288 0q-64 0 -102 13t-57 41v-229h-57v689h58v-313q0 -39 5.5 -67.5t22.5 -46.5t48 -27t82 -9h149v463h58v-457q0 -34 -12 -45.5t-50 -11.5h-145z" />
    <glyph glyph-name="zero.alt" unicode="&#xf800;" horiz-adv-x="595" 
d="M298 36q49 0 83.5 10t55.5 37t30.5 73t9.5 118v131q0 72 -9.5 118.5t-30.5 73.5t-55.5 37t-83.5 10t-83 -10t-55 -37t-30 -73.5t-9 -118.5v-131q0 -72 9 -118t30 -73t55 -37t83 -10zM298 696q67 0 112.5 -16.5t73.5 -52t40.5 -90t12.5 -129.5v-136q0 -75 -12.5 -129.5
t-40.5 -90t-73.5 -52t-112.5 -16.5t-112.5 16.5t-73.5 52t-40 90t-12 129.5v136q0 75 12 129.5t40 90t73.5 52t112.5 16.5z" />
    <glyph glyph-name="one.alt" unicode="&#xf801;" horiz-adv-x="595" 
d="M451 0h-325l11 50h131v580h-138l11 50h185v-630h135z" />
    <glyph glyph-name="two.alt" unicode="&#xf802;" horiz-adv-x="595" 
d="M246 277q-32 -13 -52.5 -27t-32.5 -32t-17 -42t-5 -57v-67h349l-10 -52h-397v113q0 42 7 74.5t24 58t44 45t68 36.5l115 48q27 11 45 22.5t29 26.5t16 35t5 47q0 67 -30.5 95.5t-104.5 28.5h-99.5t-98.5 -2l10 52q50 2 96.5 2h90.5q103 0 149 -42t46 -127v-12
q0 -70 -32.5 -110t-98.5 -66z" />
    <glyph glyph-name="three.alt" unicode="&#xf803;" horiz-adv-x="595" 
d="M102 680q45 2 87.5 2h93.5q103 0 151.5 -39.5t48.5 -121.5v-12q0 -66 -24.5 -102t-69.5 -53q57 -14 82.5 -52t25.5 -104v-14q0 -94 -50.5 -140t-164.5 -46h-92.5t-118.5 2l11 52q51 -2 99 -2h107q82 0 116 31.5t34 103.5v12q0 65 -31.5 96.5t-112.5 31.5h-169l10 52h160
q70 0 99.5 32.5t29.5 93.5v12q0 62 -32 88.5t-110 26.5h-95.5t-95.5 -2z" />
    <glyph glyph-name="four.alt" unicode="&#xf804;" horiz-adv-x="595" 
d="M522 156h-76v-156h-57v156h-341v44l280 480h62l-278 -473h277v240l57 10v-250h87z" />
    <glyph glyph-name="five.alt" unicode="&#xf805;" horiz-adv-x="595" 
d="M498 196q0 -56 -12 -93.5t-39.5 -61t-72 -33.5t-109.5 -10h-81t-96 2l11 53q49 -2 93 -2.5t73 -0.5q51 0 84.5 6t53 22.5t27.5 45t8 73.5v27q0 40 -8 65t-27 39t-50.5 19.5t-77.5 5.5h-171v327h368l-11 -51h-301v-225h120q61 0 103 -9.5t67.5 -30.5t36.5 -55.5t11 -84.5
v-28z" />
    <glyph glyph-name="six.alt" unicode="&#xf806;" horiz-adv-x="595" 
d="M146 361q24 38 68 55t100 17q103 0 156 -49t53 -165v-18q0 -110 -55 -163.5t-161 -53.5q-56 0 -97 12.5t-68 40.5t-40.5 72.5t-13.5 108.5v207q0 72 13 121t42.5 79.5t76 43.5t113.5 13h34.5h32t35.5 -0.5t44 -1.5l-10 -52q-26 1 -44.5 1.5t-33.5 0.5h-29h-30
q-56 0 -92 -10.5t-57 -34t-29 -60.5t-8 -90v-74zM307 34q79 0 118 37.5t39 131.5v14q0 48 -9 79.5t-27.5 51t-47.5 27.5t-68 8q-32 0 -61.5 -5.5t-53 -22t-37.5 -46.5t-14 -79v-22q0 -50 9.5 -83.5t29.5 -53.5t50.5 -28.5t71.5 -8.5z" />
    <glyph glyph-name="seven.alt" unicode="&#xf807;" horiz-adv-x="595" 
d="M185 0l247 629h-363l11 51h413v-47l-245 -633h-63z" />
    <glyph glyph-name="eight.alt" unicode="&#xf808;" horiz-adv-x="595" 
d="M297 696q115 0 164.5 -44.5t49.5 -126.5v-17q0 -57 -28.5 -96t-79.5 -54q55 -14 88 -54.5t33 -107.5v-22q0 -99 -57 -144.5t-170 -45.5q-112 0 -169 45.5t-57 144.5v22q0 67 33 107.5t87 54.5q-51 15 -79 54t-28 96v17q0 82 49.5 126.5t163.5 44.5zM297 333q-48 0 -80 -9
t-51.5 -27t-27.5 -44t-8 -60v-15q0 -77 40 -110.5t127 -33.5q88 0 128 33.5t40 110.5v15q0 34 -8.5 60t-28 44t-51.5 27t-80 9zM298 647q-88 0 -122.5 -29.5t-34.5 -92.5v-17q0 -28 7 -51.5t25 -40t48 -25.5t76 -9t76.5 9t48.5 25.5t25 40t7 51.5v17q0 63 -34 92.5
t-122 29.5z" />
    <glyph glyph-name="nine.alt" unicode="&#xf809;" horiz-adv-x="595" 
d="M450 319q-24 -38 -69 -55t-99 -17q-103 0 -156 49t-53 165v18q0 111 55 164t161 53q56 0 97 -12.5t68 -40.5t40 -72.5t13 -108.5v-207q0 -72 -13 -121t-42.5 -79.5t-76 -43.5t-113.5 -13h-69.5t-76.5 2l11 52q25 -1 44 -1.5t34 -0.5h29h30q56 0 92 10.5t57 34t29 60.5
t8 90v74zM289 646q-80 0 -118.5 -37.5t-38.5 -131.5v-14q0 -48 9 -79.5t27.5 -51t47 -27.5t67.5 -8q32 0 62 5.5t53.5 22t37.5 46.5t14 80v21q0 50 -10 83.5t-30 53.5t-50 28.5t-71 8.5z" />
    <glyph glyph-name="zero.sups" unicode="&#xf80a;" 
d="M186 446q32 0 53 6t33.5 21t17.5 41.5t5 67.5v44q0 41 -5 67.5t-17.5 41.5t-33.5 21t-53 6t-53.5 -6t-34 -21t-17.5 -41.5t-5 -67.5v-44q0 -41 5 -67.5t17.5 -41.5t34 -21t53.5 -6zM186 399q-89 0 -125.5 42t-36.5 137v52q0 95 36.5 137t125.5 42t125 -42t36 -137v-52
q0 -95 -36 -137t-125 -42z" />
    <glyph glyph-name="one.sups" unicode="&#xf80b;" 
d="M316 454l-9 -46h-241l9 46h91v301h-100l10 45h140v-346h100z" />
    <glyph glyph-name="two.sups" unicode="&#xf80c;" 
d="M158 570q-17 -6 -27.5 -12.5t-16.5 -17t-8 -25t-2 -36.5v-25h214l-9 -46h-255v68q0 29 4 51t14 38t27.5 27.5t43.5 20.5l59 20q37 12 50 25t13 43q0 31 -17 43t-63 12q-32 0 -64.5 -0.5t-58.5 -1.5l9 45q29 2 53 2h59q69 0 100.5 -22.5t31.5 -72.5v-8q0 -42 -20.5 -65.5
t-69.5 -39.5z" />
    <glyph glyph-name="three.sups" unicode="&#xf80d;" 
d="M309 700q0 -33 -15.5 -54.5t-43.5 -28.5q31 -7 50.5 -30t19.5 -63v-6q0 -56 -36 -83.5t-120 -27.5h-29h-25.5t-26.5 0.5t-32 1.5l9 46q38 -2 60.5 -2h46.5q57 0 79 14t22 52v5q0 38 -20 53t-76 15h-89l9 44h76q55 0 73 15t18 46v6q0 30 -18 41t-64 11h-53t-62 -1l9 46
q30 1 60 1h48q69 0 99.5 -23t30.5 -72v-6z" />
    <glyph glyph-name="four.sups" unicode="&#xf80e;" 
d="M84 542h154v116l49 8v-124h61l-10 -44h-51v-90h-49v90h-208v40l149 262h53z" />
    <glyph glyph-name="five.sups" unicode="&#xf80f;" 
d="M62 598v202h239l-10 -46h-181v-112h71q40 0 67 -6t43 -19.5t22.5 -34.5t6.5 -52v-9q0 -59 -34.5 -86.5t-116.5 -27.5h-61t-57 2l10 45q17 0 30 -0.5t25.5 -1t25.5 -0.5h30q54 0 75.5 14.5t21.5 56.5v6q0 21 -3.5 34t-13.5 21t-27.5 11t-45.5 3h-117z" />
    <glyph glyph-name="six.sups" unicode="&#xf810;" 
d="M292 754q-20 1 -41 1h-45q-35 0 -57 -5.5t-34.5 -18t-17.5 -31.5t-5 -46v-30q13 17 39.5 27t62.5 10q66 0 101 -29t35 -98v-8q0 -66 -37.5 -96.5t-106.5 -30.5q-70 0 -107 31t-37 105v115q0 81 38 116t126 35h49.5t45.5 -1zM186 617q-48 0 -71 -17.5t-23 -67.5v-4
q0 -49 22.5 -66.5t70.5 -17.5t71 17.5t23 66.5v5q0 49 -22.5 66.5t-70.5 17.5z" />
    <glyph glyph-name="seven.sups" unicode="&#xf811;" 
d="M106 408l159 346h-216l10 46h259v-41l-157 -351h-55z" />
    <glyph glyph-name="eight.sups" unicode="&#xf812;" 
d="M186 399q-41 0 -69 8t-45 23t-24.5 36t-7.5 47v7q0 36 18 61t53 35q-29 8 -45.5 30.5t-16.5 54.5v7q0 46 32.5 73.5t104.5 27.5t104 -27t32 -74v-7q0 -32 -16.5 -54.5t-46.5 -30.5q35 -10 54 -34.5t19 -61.5v-7q0 -52 -33 -83t-113 -31zM186 442q46 0 70.5 16t24.5 57v7
q-2 38 -22.5 55t-72.5 17q-53 0 -74 -17.5t-21 -54.5v-7q0 -41 24 -57t71 -16zM186 636q49 0 67.5 16t18.5 48v6q0 32 -19 46.5t-67 14.5t-67 -14.5t-19 -46.5v-6q0 -32 18 -48t68 -16z" />
    <glyph glyph-name="nine.sups" unicode="&#xf813;" 
d="M78 454q20 -1 40.5 -1h46.5q34 0 56 5.5t34.5 18t17.5 31.5t5 46v29q-13 -17 -39.5 -26.5t-62.5 -9.5q-66 0 -100.5 29t-34.5 98v8q0 67 37.5 97t105.5 30q70 0 107 -31t37 -105v-115q0 -80 -38 -115.5t-125 -35.5h-49.5t-46.5 1zM184 591q48 0 71 17.5t23 67.5v5
q0 48 -22.5 65.5t-70.5 17.5t-71 -17.5t-23 -65.5v-5q0 -50 22.5 -67.5t70.5 -17.5z" />
    <glyph glyph-name="zero.sinf" unicode="&#xf814;" 
d="M186 -81q32 0 53 6t33.5 21t17.5 41.5t5 67.5v44q0 41 -5 67.5t-17.5 41.5t-33.5 21t-53 6t-53.5 -6t-34 -21t-17.5 -41.5t-5 -67.5v-44q0 -41 5 -67.5t17.5 -41.5t34 -21t53.5 -6zM186 -128q-89 0 -125.5 42t-36.5 137v52q0 95 36.5 137t125.5 42t125 -42t36 -137v-52
q0 -95 -36 -137t-125 -42z" />
    <glyph glyph-name="one.sinf" unicode="&#xf815;" 
d="M316 -73l-9 -46h-241l9 46h91v301h-100l10 45h140v-346h100z" />
    <glyph glyph-name="two.sinf" unicode="&#xf816;" 
d="M158 43q-17 -6 -27.5 -12.5t-16.5 -17t-8 -25t-2 -36.5v-25h214l-9 -46h-255v68q0 29 4 51t14 38t27.5 27.5t43.5 20.5l59 20q37 12 50 25t13 43q0 31 -17 43t-63 12q-32 0 -64.5 -0.5t-58.5 -1.5l9 45q29 2 53 2h59q69 0 100.5 -22.5t31.5 -72.5v-8q0 -42 -20.5 -65.5
t-69.5 -39.5z" />
    <glyph glyph-name="three.sinf" unicode="&#xf817;" 
d="M309 173q0 -33 -15.5 -54.5t-43.5 -28.5q31 -7 50.5 -30t19.5 -63v-6q0 -56 -36 -83.5t-120 -27.5h-29h-25.5t-26.5 0.5t-32 1.5l9 46q38 -2 60.5 -2h46.5q57 0 79 14t22 52v5q0 38 -20 53t-76 15h-89l9 44h76q55 0 73 15t18 46v6q0 30 -18 41t-64 11h-53t-62 -1l9 46
q30 1 60 1h48q69 0 99.5 -23t30.5 -72v-6z" />
    <glyph glyph-name="four.sinf" unicode="&#xf818;" 
d="M84 15h154v116l49 8v-124h61l-10 -44h-51v-90h-49v90h-208v40l149 262h53z" />
    <glyph glyph-name="five.sinf" unicode="&#xf819;" 
d="M62 71v202h239l-10 -46h-181v-112h71q40 0 67 -6t43 -19.5t22.5 -34.5t6.5 -52v-9q0 -59 -34.5 -86.5t-116.5 -27.5h-61t-57 2l10 45q17 0 30 -0.5t25.5 -1t25.5 -0.5h30q54 0 75.5 14.5t21.5 56.5v6q0 21 -3.5 34t-13.5 21t-27.5 11t-45.5 3h-117z" />
    <glyph glyph-name="six.sinf" unicode="&#xf81a;" 
d="M292 227q-20 1 -41 1h-45q-35 0 -57 -5.5t-34.5 -18t-17.5 -31.5t-5 -46v-30q13 17 39.5 27t62.5 10q66 0 101 -29t35 -98v-8q0 -66 -37.5 -96.5t-106.5 -30.5q-70 0 -107 31t-37 105v115q0 81 38 116t126 35h49.5t45.5 -1zM186 90q-48 0 -71 -17.5t-23 -67.5v-4
q0 -49 22.5 -66.5t70.5 -17.5t71 17.5t23 66.5v5q0 49 -22.5 66.5t-70.5 17.5z" />
    <glyph glyph-name="seven.sinf" unicode="&#xf81b;" 
d="M106 -119l159 346h-216l10 46h259v-41l-157 -351h-55z" />
    <glyph glyph-name="eight.sinf" unicode="&#xf81c;" 
d="M186 -128q-41 0 -69 8t-45 23t-24.5 36t-7.5 47v7q0 36 18 61t53 35q-29 8 -45.5 30.5t-16.5 54.5v7q0 46 32.5 73.5t104.5 27.5t104 -27t32 -74v-7q0 -32 -16.5 -54.5t-46.5 -30.5q35 -10 54 -34.5t19 -61.5v-7q0 -52 -33 -83t-113 -31zM186 -85q46 0 70.5 16t24.5 57v7
q-2 38 -22.5 55t-72.5 17q-53 0 -74 -17.5t-21 -54.5v-7q0 -41 24 -57t71 -16zM186 109q49 0 67.5 16t18.5 48v6q0 32 -19 46.5t-67 14.5t-67 -14.5t-19 -46.5v-6q0 -32 18 -48t68 -16z" />
    <glyph glyph-name="nine.sinf" unicode="&#xf81d;" 
d="M78 -73q20 -1 40.5 -1h46.5q34 0 56 5.5t34.5 18t17.5 31.5t5 46v29q-13 -17 -39.5 -26.5t-62.5 -9.5q-66 0 -100.5 29t-34.5 98v8q0 67 37.5 97t105.5 30q70 0 107 -31t37 -105v-115q0 -80 -38 -115.5t-125 -35.5h-49.5t-46.5 1zM184 64q48 0 71 17.5t23 67.5v5
q0 48 -22.5 65.5t-70.5 17.5t-71 -17.5t-23 -65.5v-5q0 -50 22.5 -67.5t70.5 -17.5z" />
    <glyph glyph-name="hungarumlaut.cap" horiz-adv-x="500" 
d="M257 892l-105 -119h-62l94 119h73zM411 892l-106 -119h-62l94 119h74z" />
    <glyph glyph-name="cedilla.cap" horiz-adv-x="500" 
d="M239 -82h-29t-29 -1l11 43q11 1 26.5 1h29.5q53 0 76 -18t23 -58v-7q0 -40 -24.5 -58.5t-80.5 -18.5q-28 0 -52 0.5t-39 2.5l12 43q11 -1 33 -1.5t43 -0.5q31 0 42 7.5t11 29.5q0 21 -11 28.5t-42 7.5z" />
    <glyph glyph-name="tilde.cap" horiz-adv-x="500" 
d="M228 808q-21 11 -31.5 15t-24.5 4q-32 0 -32 -48v-9h-45v9q0 28 6 46.5t16.5 29.5t23.5 15.5t27 4.5q15 0 33 -4.5t44 -18.5l27 -15q21 -11 31.5 -15t24.5 -4q32 0 32 48v9h45v-9q0 -28 -6 -46.5t-16.5 -29.5t-23.5 -15.5t-27 -4.5q-15 0 -32.5 5t-43.5 18z" />
    <glyph glyph-name="ogonek.cap" horiz-adv-x="500" 
d="M308 -183h-43q-45 0 -66.5 15t-21.5 48t23.5 66t70.5 62l48 -8q-48 -31 -68 -58t-20 -50q0 -14 9.5 -20.5t33.5 -6.5h45z" />
    <glyph glyph-name="ring.cap" horiz-adv-x="500" 
d="M132 844q0 55 31 83.5t87 28.5t87 -28.5t31 -83.5t-31 -83.5t-87 -28.5t-87 28.5t-31 83.5zM321 844q0 39 -16.5 55t-54.5 16t-54.5 -16t-16.5 -55t16.5 -55t54.5 -16t54.5 16t16.5 55z" />
    <glyph glyph-name="caron.cap" horiz-adv-x="500" 
d="M161 888l89 -80l89 80h64l-122 -115h-62l-121 115h63z" />
    <glyph glyph-name="macron.cap" horiz-adv-x="500" 
d="M119 840h261v-48h-261v48z" />
    <glyph glyph-name="dieresis.cap" horiz-adv-x="500" 
d="M214 816q0 -43 -42 -43t-42 43t42 43t42 -43zM370 816q0 -43 -42 -43q-41 0 -41 43t41 43q42 0 42 -43z" />
    <glyph glyph-name="dotaccent.cap" horiz-adv-x="500" 
d="M292 816q0 -43 -42 -43q-41 0 -41 43t41 43q42 0 42 -43z" />
    <glyph glyph-name="circumflex.cap" horiz-adv-x="500" 
d="M251 852l-89 -79h-63l121 115h62l121 -115h-63z" />
    <glyph glyph-name="acute.cap" horiz-adv-x="500" 
d="M344 892l-130 -119h-63l117 119h76z" />
    <glyph glyph-name="grave.cap" horiz-adv-x="500" 
d="M232 892l117 -119h-63l-130 119h76z" />
    <glyph glyph-name="breve.cap" horiz-adv-x="500" 
d="M250 771q-75 0 -109.5 30.5t-34.5 92.5h52q0 -40 20 -60t72 -20t72 20t20 60h52q0 -62 -34.5 -92.5t-109.5 -30.5z" />
    <glyph glyph-name="commaaccent.cap" horiz-adv-x="500" 
d="M202 -232l35 91q-23 10 -23 39q0 43 43 43q42 0 42 -42q0 -11 -3.5 -22t-10.5 -27l-38 -82h-45z" />
    <glyph glyph-name="caron.alt" horiz-adv-x="500" 
d="M282 743l-21 -175h-41l7 175h55z" />
    <glyph glyph-name="commaaccent" unicode="&#xf6c3;" horiz-adv-x="500" 
d="M214 -102q0 21 11 32t31 11t31 -11t11 -31q0 -12 -3.5 -22.5t-11.5 -26.5l-37 -82h-44l34 92q-22 9 -22 38z" />
    <glyph glyph-name="revcommaaccent" horiz-adv-x="500" 
d="M298 788l-35 -91q23 -10 23 -39q0 -43 -43 -43q-20 0 -31 10.5t-11 31.5q0 11 3.5 22t11.5 27l36 82h46z" />
    <glyph glyph-name="acute.asc" horiz-adv-x="500" 
d="M345 876l-128 -104h-63l115 104h76z" />
    <glyph glyph-name="circumflex.asc" horiz-adv-x="500" 
d="M250 851l-88 -79h-60l119 113h59l118 -113h-60z" />
    <glyph glyph-name="caron.alt.short" horiz-adv-x="500" 
d="M281 743l-20 -168h-42l7 168h55z" />
    <glyph glyph-name="Parenleft" horiz-adv-x="325" 
d="M294 -88h-13q-39 0 -70.5 4t-55.5 16t-41 34.5t-28 60.5t-16 93t-5 132v207q0 115 11.5 183t37.5 102.5t67 44.5t100 10h24l-11 -52h-13q-47 0 -78 -6.5t-49 -35t-25.5 -86.5t-7.5 -160v-207q0 -102 7.5 -160t25.5 -86.5t49 -35t78 -6.5h24z" />
    <glyph glyph-name="Parenright" horiz-adv-x="325" 
d="M31 799h13q59 0 100 -10t67 -44.5t37.5 -102.5t11.5 -183v-207q0 -77 -5 -132t-16 -93t-28 -60.5t-41 -34.5t-55.5 -16t-70.5 -4h-24l11 52h13q47 0 78 6.5t49 35t25.5 86.5t7.5 160v207q0 102 -7.5 160t-25.5 86.5t-49 35t-78 6.5h-24z" />
    <glyph glyph-name="Hyphen" horiz-adv-x="359" 
d="M35 330l11 53h278l-11 -53h-278z" />
    <glyph glyph-name="Slash" horiz-adv-x="382" 
d="M348 712l-255 -712h-59l255 712h59z" />
    <glyph glyph-name="At" horiz-adv-x="733" 
d="M663 252q0 -33 -12 -44.5t-49 -11.5h-146q-101 0 -148.5 36t-47.5 120v15q0 86 44.5 124.5t142.5 38.5q51 0 94 -12t66 -38v45q0 46 -11 78t-37.5 51.5t-69.5 28t-107 8.5q-70 0 -120 -11t-81.5 -38.5t-46 -75.5t-14.5 -122v-157q0 -79 14.5 -130.5t50 -82t96 -42.5
t152.5 -12q38 0 82 0.5t89 2.5l-11 -51q-43 -2 -83 -2.5t-77 -0.5q-104 0 -174.5 15t-114 51t-62 97.5t-18.5 154.5v157q0 84 18.5 141.5t57.5 92t99 49.5t143 15q72 0 125 -11.5t87.5 -37.5t51.5 -67t17 -101v-273zM607 247v124q0 34 -12.5 55.5t-33.5 33.5t-49 16.5
t-59 4.5q-35 0 -60.5 -4.5t-42.5 -16.5t-25.5 -34.5t-8.5 -58.5v-13q0 -29 6.5 -49t22.5 -33t43 -19t67 -6h152z" />
    <glyph glyph-name="Bracketleft" horiz-adv-x="333" 
d="M318 799l-12 -53h-160v-781h172l-12 -53h-216v887h228z" />
    <glyph glyph-name="Backslash" horiz-adv-x="382" 
d="M94 712l254 -712h-60l-254 712h60z" />
    <glyph glyph-name="Bracketright" horiz-adv-x="333" 
d="M15 -88l12 53h160v781h-172l12 53h216v-887h-228z" />
    <glyph glyph-name="Braceleft" horiz-adv-x="367" 
d="M352 799l-12 -51h-42q-36 0 -58.5 -6t-35 -18.5t-17 -31.5t-4.5 -46v-175q0 -51 -14.5 -77t-44.5 -39q30 -13 44.5 -38.5t14.5 -76.5v-175q0 -27 4.5 -46t17 -31.5t35 -18.5t58.5 -6h54l-12 -51h-41q-51 0 -84 9.5t-53 28.5t-28 46.5t-8 62.5v178q0 51 -17.5 72t-67.5 21
h-21v50h21q50 0 67.5 21.5t17.5 72.5v178q0 35 8 62.5t28 46t53 28.5t84 10h53z" />
    <glyph glyph-name="Braceright" horiz-adv-x="367" 
d="M15 -88l12 51h42q36 0 58.5 6t35 18.5t17 31.5t4.5 46v176q0 51 14.5 77t44.5 39q-30 13 -44.5 38.5t-14.5 76.5v174q0 27 -4.5 46t-17 31.5t-35 18.5t-58.5 6h-54l12 51h41q51 0 84 -10t53 -28.5t28 -46t8 -62.5v-177q0 -51 17.5 -72t67.5 -21h21v-50h-21
q-50 0 -67.5 -21.5t-17.5 -72.5v-179q0 -35 -8 -62.5t-28 -46.5t-53 -28.5t-84 -9.5h-53z" />
    <glyph glyph-name="Guilsinglleft" horiz-adv-x="306" 
d="M33 384l226 170v-65l-176 -133l176 -132v-66l-226 170v56z" />
    <glyph glyph-name="Bullet" horiz-adv-x="346" 
d="M271 356q0 -49 -22.5 -73.5t-75.5 -24.5t-75.5 24.5t-22.5 73.5t22.5 73.5t75.5 24.5t75.5 -24.5t22.5 -73.5z" />
    <glyph glyph-name="Endash" horiz-adv-x="500" 
d="M0 382h500v-53h-500v53z" />
    <glyph glyph-name="Emdash" horiz-adv-x="1000" 
d="M0 382h1000v-53h-1000v53z" />
    <glyph glyph-name="Guilsinglright" horiz-adv-x="306" 
d="M273 328l-226 -170v65l176 133l-176 132v66l226 -170v-56z" />
    <glyph glyph-name="Exclamdown" horiz-adv-x="211" 
d="M128 536l6 -184v-35t0.5 -48.5t0.5 -49v-35.5v-184h-60v184v35.5t0.5 49t0.5 48.5v35l6 184h46zM60 672q0 47 45 47t45 -47t-45 -47t-45 47z" />
    <glyph glyph-name="Guillemotleft" horiz-adv-x="498" 
d="M33 383l199 178v-65l-153 -140l153 -139v-66l-199 179v53zM252 383l199 178v-65l-153 -140l153 -139v-66l-199 179v53z" />
    <glyph glyph-name="Guillemotright" horiz-adv-x="498" 
d="M465 330l-199 -179v66l152 139l-152 140v65l199 -178v-53zM246 330l-199 -179v66l152 139l-152 140v65l199 -178v-53z" />
    <glyph glyph-name="Questiondown" horiz-adv-x="455" 
d="M182 306q-22 -11 -36.5 -22t-23.5 -25.5t-12.5 -34.5t-3.5 -47q0 -34 6.5 -58.5t23.5 -40t47 -22.5t77 -7h26t34 0.5t47 1t64 0.5l-10 -51q-33 -1 -57 -1.5t-42 -0.5h-32.5h-28.5q-59 0 -100 10t-66.5 30.5t-37 52.5t-11.5 76v18q0 61 24 98.5t81 66.5l56 27
q22 11 34.5 21.5t19 24t8.5 31.5t2 44v38h58v-38q0 -33 -4 -58t-14.5 -44t-29 -34t-46.5 -29zM255 671q0 47 45 47t45 -47t-45 -47t-45 47z" />
    </font>
</defs>
</svg>
