<?xml version="1.0" ?>
<!-- Uploaded to: SVG Repo, www.svgrepo.com, Generator: SVG Repo Mixer Tools -->
<svg fill="#000000" width="800px" height="800px" viewBox="0 0 32 32" xmlns="http://www.w3.org/2000/svg">
<title/>
<g data-name="Layer 15" id="Layer_15">
<path d="M29,18H26V7s0,0,0,0a.81.81,0,0,0-.08-.34.36.36,0,0,0,0-.09.92.92,0,0,0-.24-.31l-5-4a.85.85,0,0,0-.28-.15l-.08,0A.62.62,0,0,0,20,2H7A1,1,0,0,0,6,3V15H5a2.73,2.73,0,0,0-3,2.44v9.39C2,28.61,3.76,30,6,30H26c2.24,0,4-1.39,4-3.17V19A1,1,0,0,0,29,18ZM21,5.08,22.15,6H21ZM8,4H19V7a1,1,0,0,0,1,1h4V18H17V16a1,1,0,0,0-1-1H8ZM28,26.83c0,.55-.82,1.17-2,1.17H6c-1.18,0-2-.62-2-1.17V17.44c0-.11.35-.44,1-.44H15v2a1,1,0,0,0,1,1H28Z"/>
<path d="M18,23H17V22a1,1,0,0,0-2,0v1H14a1,1,0,0,0,0,2h1v1a1,1,0,0,0,2,0V25h1a1,1,0,0,0,0-2Z"/>
<path d="M11,11H21a1,1,0,0,0,0-2H11a1,1,0,0,0,0,2Z"/>
<path d="M22,13a1,1,0,0,0-1-1H11a1,1,0,0,0,0,2H21A1,1,0,0,0,22,13Z"/>
</g>
</svg>