<svg id="purecloud" xmlns="http://www.w3.org/2000/svg" viewBox="0 0 308 308"><defs><style>.cls-1{fill:none;stroke:#f0522a;stroke-miterlimit:10;stroke-width:3.5px;}.cls-2{font-size:46.8px;fill:#4e5055;font-family:Roboto-Light, Roboto;letter-spacing:-0.04em;}.cls-3{letter-spacing:-0.04em;}.cls-4{letter-spacing:-0.05em;}.cls-5{letter-spacing:-0.02em;}.cls-10,.cls-6,.cls-7,.cls-8,.cls-9{font-family:Roboto-Medium, Roboto;}.cls-6{letter-spacing:-0.02em;}.cls-7{letter-spacing:-0.03em;}.cls-8{letter-spacing:-0.03em;}.cls-9{letter-spacing:-0.02em;}.cls-10{letter-spacing:-0.02em;}</style></defs><title>purecloud-color-text</title><path class="cls-1" d="M53.4,128.46h0a27.15,27.15,0,0,1,27.15-27.15h47.58A12.87,12.87,0,0,1,141,114.18h0a12.87,12.87,0,0,1-12.87,12.87H112.59A27.15,27.15,0,0,1,85.45,99.91h0a27.15,27.15,0,0,1,27.15-27.15H184a41.42,41.42,0,0,1,41.42,41.42h0A41.42,41.42,0,0,1,184,155.61H80.55A27.15,27.15,0,0,1,53.4,128.46Z"/><rect class="cls-1" x="175.98" y="135.73" width="79.4" height="38.94" rx="19.47" ry="19.47"/><rect class="cls-1" x="126.21" y="51.7" width="79.4" height="38.94" rx="19.47" ry="19.47"/><text class="cls-2" transform="translate(51.93 243.62)">P<tspan class="cls-3" x="27.16" y="0">u</tspan><tspan class="cls-4" x="51.2" y="0">r</tspan><tspan class="cls-5" x="64.79" y="0">e</tspan><tspan class="cls-6" x="88.17" y="0">C</tspan><tspan class="cls-7" x="117.57" y="0">l</tspan><tspan class="cls-8" x="128.19" y="0">o</tspan><tspan class="cls-9" x="153.57" y="0">u</tspan><tspan class="cls-10" x="178.47" y="0">d</tspan></text></svg>